{
.appVersion = "3133";
.formatVersion = 3;
DisplayStrings = (
"MTATVolkswumixNHAVYjzzYSEedargeton kokonokn",
"HHHOOOADJUSTINGkemie@/at.case QUIVER.COM AND BOW, ZOMPYC† KILLED $7 THE FO. Amazingly, C.J. Hquaffed sıix vodkas without burping. BaAc/_corner.caps_diag_xs k ›homenononn/n.ss01 ooonnn after‹ jiving, sheUSA expired (with quizzicality). Bo rocked a £3,500 xylophone, making quiet waves of jazz. Chip required 44% booze to fix my VolkPAagen® Jetta. Cozy sphinx©waves.com quart §28.2 jug of bad milk. Even while I adjust [my expectations hıigher,] you keep NYSE amazing me. I request: be my wife. \"Exquisite farm wench\" gives body* jolt to prize stinker. Five wine¶ experts MTA jokingly quizzed sample; chablis. French wine: ‘Ze bouquet is exceptıional, aqvec just un peu of monkey Hdung.’ GQ Magazine© backers enjoyed; the Pixies’ „Wave of Mutilation.” 


glyphs = (
{
glyphname = A;
kernLeft = A;
kernRight = A;
layers = (
{
anchors = (
{
name = bottom;
pos = (382,0);
},
{
name = ogonek;
pos = (691,0);
},
{
name = top;
pos = (384,687);
}
);
hints = (
{
name = _corner.caps_diag;
origin = (0,0);
scale = (-1,1);
type = Corner;
}
);
layerId = "0CAF3BED-C4AC-4024-B3E1-4C69D1EF7EC0";
shapes = (
{
closed = 1;
nodes = (
(185,53,l,{
"Letterink-NibData" = {
AngleInDegrees = 22.71999;
};
}),
(266,253,l,{
"Letterink-NibData" = {
AngleInDegrees = 236.57519;
};
}),
(216,210,l,{
"Letterink-NibData" = {
AngleInDegrees = 90;
};
}),
(548,210,l,{
"Letterink-NibData" = {
AngleInDegrees = 303.42481;
};
}),
(498,253,l,{
"Letterink-NibData" = {
AngleInDegrees = 157.34811;
};
}),
(604,0,l,{
"Letterink-NibData" = {
AngleInDegrees = 90;
};
}),
(687,0,l,{
"Letterink-NibData" = {
AngleInDegrees = 336.96218;
};
}),
(399,690,l,{
"Letterink-NibData" = {
AngleInDegrees = 270;
};
}),
(360,690,l,{
"Letterink-NibData" = {
AngleInDegrees = 202.82503;
};
}),
(111,83,l,{
"Letterink-NibData" = {
AngleInDegrees = 202.38014;
};
})
);
},
{
closed = 1;
nodes = (
(375,541,l,{
"Letterink-NibData" = {
AngleInDegrees = 8.1301;
};
}),
(381,571,l,{
"Letterink-NibData" = {
AngleInDegrees = 171.8699;
};
}),
(387,541,l,{
"Letterink-NibData" = {
AngleInDegrees = 159.79358;
};
}),
(492,260,l,{
"Letterink-NibData" = {
AngleInDegrees = 35.21759;
};
}),
(514,284,l,{
"Letterink-NibData" = {
AngleInDegrees = 270;
};
}),
(246,284,l,{
"Letterink-NibData" = {
AngleInDegrees = 145.92281;
};
}),
(269,260,l,{
"Letterink-NibData" = {
AngleInDegrees = 20.73026;
};
})
);
}
);
width = 699;
},
{
anchors = (
{
name = bottom;
pos = (384,0);
},
{
name = ogonek;
pos = (676,1);
},
{
name = top;
pos = (385,684);
}
);
hints = (
{
name = _corner.caps_diag;
options = 2;
origin = (0,0);
scale = (-1,1);
type = Corner;
}
);
layerId = "49C16FD3-6177-408B-A733-AEB3898BB77C";
shapes = (
{
closed = 1;
nodes = (
(152,45,l,{
"Letterink-NibData" = {
AngleInDegrees = 22.1315;
};
}),
(237,251,l,{
"Letterink-NibData" = {
AngleInDegrees = 235.7843;
};
}),
(213,234,l,{
"Letterink-NibData" = {
AngleInDegrees = 90;
};
}),
(554,234,l,{
"Letterink-NibData" = {
AngleInDegrees = 304.2157;
};
}),
(531,251,l,{
"Letterink-NibData" = {
AngleInDegrees = 157.41269;
};
}),
(635,0,l,{
"Letterink-NibData" = {
AngleInDegrees = 90;
};
}),
(676,0,l,{
"Letterink-NibData" = {
AngleInDegrees = 337.30364;
};
}),
(389,692,l,{
"Letterink-NibData" = {
AngleInDegrees = 270;
};
}),
(378,692,l,{
"Letterink-NibData" = {
AngleInDegrees = 202.68401;
};
}),
(118,61,l,{
"Letterink-NibData" = {
AngleInDegrees = 202.61986;
};
})
);
},
{
closed = 1;
nodes = (
(372,584,l,{
"Letterink-NibData" = {
AngleInDegrees = 16.29405;
};
}),
(384,627,l,{
"Letterink-NibData" = {
AngleInDegrees = 163.21735;
};
}),
(395,584,l,{
"Letterink-NibData" = {
AngleInDegrees = 158.19859;
};
}),
(528,257,l,{
"Letterink-NibData" = {
AngleInDegrees = 32.90524;
};
}),
(537,270,l,{
"Letterink-NibData" = {
AngleInDegrees = 270;
};
}),
(228,270,l,{
"Letterink-NibData" = {
AngleInDegrees = 147.09476;
};
}),
(239,257,l,{
"Letterink-NibData" = {
AngleInDegrees = 22.09423;
};
})
);
}
);
width = 702;
},
{
anchors = (
{
name = bottom;
pos = (421,-8);
},
{
name = ogonek;
pos = (714,1);
},
{
name = top;
pos = (421,684);
}
);
associatedMasterId = "49C16FD3-6177-408B-A733-AEB3898BB77C";
layerId = "E63F2094-54D6-44F3-A00F-83DE5DFBC8F4";
name = "6 Jan 22, 16:48";
shapes = (
{
closed = 1;
nodes = (
(148,-9,o),
(176,8,o),
(190,42,cs,{
"Letterink-NibData" = {
AngleInDegrees = 22.1315;
};
}),
(275,251,l,{
"Letterink-NibData" = {
AngleInDegrees = 235.7843;
};
}),
(250,234,l,{
"Letterink-NibData" = {
AngleInDegrees = 90;
};
}),
(590,234,l,{
"Letterink-NibData" = {
AngleInDegrees = 304.2157;
};
}),
(565,251,l,{
"Letterink-NibData" = {
AngleInDegrees = 157.41269;
};
}),
(669,1,l,{
"Letterink-NibData" = {
AngleInDegrees = 90;
};
}),
(714,1,l,{
"Letterink-NibData" = {
AngleInDegrees = 337.30364;
};
}),
(425,692,l,{
"Letterink-NibData" = {
AngleInDegrees = 270;
};
}),
(417,692,l,{
"Letterink-NibData" = {
AngleInDegrees = 202.68401;
};
}),
(152,58,ls,{
"Letterink-NibData" = {
AngleInDegrees = 202.61986;
};
}),
(147,46,o),
(132,31,o),
(115,31,cs,{
"Letterink-NibData" = {
AngleInDegrees = 270;
};
}),
(96,31,o),
(80,45,o),
(75,59,c,{
"Letterink-NibData" = {
AngleInDegrees = 261.25384;
};
}),
(36,53,l,{
"Letterink-NibData" = {
AngleInDegrees = 163.85566;
};
}),
(47,15,o),
(76,-9,o),
(114,-9,cs,{
"Letterink-NibData" = {
AngleInDegrees = 90;
};
})
);
},
{
closed = 1;
nodes = (
(401,560,l,{
"Letterink-NibData" = {
AngleInDegrees = 16.29405;
};
}),
(420,625,l,{
"Letterink-NibData" = {
AngleInDegrees = 163.21735;
};
}),
(439,562,l,{
"Letterink-NibData" = {
AngleInDegrees = 158.19859;
};
}),
(561,257,l,{
"Letterink-NibData" = {
AngleInDegrees = 32.90524;
};
}),
(572,274,l,{
"Letterink-NibData" = {
AngleInDegrees = 270;
};
}),
(267,274,l,{
"Letterink-NibData" = {
AngleInDegrees = 147.09476;
};
}),
(278,257,l,{
"Letterink-NibData" = {
AngleInDegrees = 22.09423;
};
})
);
}
);
width = 752;
},
{
anchors = (
{
name = bottom;
pos = (429,0);
},
{
name = ogonek;
pos = (764,0);
},
{
name = top;
pos = (431,695);
}
);
hints = (
{
name = _corner.caps_diag;
options = 1;
origin = (0,0);
scale = (-1,1);
type = Corner;
}
);
layerId = m004;
shapes = (
{
closed = 1;
nodes = (
(290,65,l,{
"Letterink-NibData" = {
AngleInDegrees = "22.65189";
};
}),
(369,257,l,{
"Letterink-NibData" = {
AngleInDegrees = "236.57519";
};
}),
(275,146,l,{
"Letterink-NibData" = {
AngleInDegrees = "90";
};
}),
(585,146,l,{
"Letterink-NibData" = {
AngleInDegrees = "303.42481";
};
}),
(485,257,l,{
"Letterink-NibData" = {
AngleInDegrees = "156.96496";
};
}),
(586,0,l,{
"Letterink-NibData" = {
AngleInDegrees = "90";
};
}),
(764,0,l,{
"Letterink-NibData" = {
AngleInDegrees = "337.32254";
};
}),
(480,699,l,{
"Letterink-NibData" = {
AngleInDegrees = "270";
};
}),
(381,699,l,{
"Letterink-NibData" = {
AngleInDegrees = "202.53914";
};
}),
(144,143,l,{
"Letterink-NibData" = {
AngleInDegrees = "90";
};
})
);
},
{
closed = 1;
nodes = (
(444,480,l,{
"Letterink-NibData" = {
AngleInDegrees = "19.98311";
};
}),
(429,484,l,{
"Letterink-NibData" = {
AngleInDegrees = "161.56505";
};
}),
(414,480,l,{
"Letterink-NibData" = {
AngleInDegrees = "158.35875";
};
}),
(481,272,l,{
"Letterink-NibData" = {
AngleInDegrees = "34.87533";
};
}),
(523,288,l,{
"Letterink-NibData" = {
AngleInDegrees = "270";
};
}),
(332,288,l,{
"Letterink-NibData" = {
AngleInDegrees = "145.92281";
};
}),
(376,268,l,{
"Letterink-NibData" = {
AngleInDegrees = "21.36191";
};
})
);
}
);
width = 766;
}
);
metricLeft = "=H*.8";
unicode = 65;
userData = {
position = 666;
width = 20;
};
},
{
glyphname = A.ss01;
kernLeft = Atext;
kernRight = A;
layers = (
{
anchors = (
{
name = bottom;
pos = (322,0);
},
{
name = ogonek;
pos = (633,-1);
},
{
name = top;
pos = (322,690);
}
);
layerId = "0CAF3BED-C4AC-4024-B3E1-4C69D1EF7EC0";
shapes = (
{
closed = 1;
nodes = (
(101,0,l,{
"Letterink-NibData" = {
AngleInDegrees = 22.65189;
};
}),
(206,253,l,{
"Letterink-NibData" = {
AngleInDegrees = 236.57519;
};
}),
(155,210,l,{
"Letterink-NibData" = {
AngleInDegrees = 90;
};
}),
(488,210,l,{
"Letterink-NibData" = {
AngleInDegrees = 303.42481;
};
}),
(438,253,l,{
"Letterink-NibData" = {
AngleInDegrees = 156.96496;
};
}),
(544,0,l,{
"Letterink-NibData" = {
AngleInDegrees = 90;
};
}),
(633,0,l,{
"Letterink-NibData" = {
AngleInDegrees = 337.32254;
};
}),
(338,702,l,{
"Letterink-NibData" = {
AngleInDegrees = 270;
};
}),
(305,702,l,{
"Letterink-NibData" = {
AngleInDegrees = 202.53914;
};
}),
(12,0,l,{
"Letterink-NibData" = {
AngleInDegrees = 90;
};
})
);
},
{
closed = 1;
nodes = (
(311,511,l,{
"Letterink-NibData" = {
AngleInDegrees = 19.98311;
};
}),
(321,553,l,{
"Letterink-NibData" = {
AngleInDegrees = 161.56505;
};
}),
(332,511,l,{
"Letterink-NibData" = {
AngleInDegrees = 158.35875;
};
}),
(431,260,l,{
"Letterink-NibData" = {
AngleInDegrees = 34.87533;
};
}),
(456,284,l,{
"Letterink-NibData" = {
AngleInDegrees = 270;
};
}),
(186,284,l,{
"Letterink-NibData" = {
AngleInDegrees = 145.92281;
};
}),
(211,260,l,{
"Letterink-NibData" = {
AngleInDegrees = 21.36191;
};
})
);
}
);
width = 645;
},
{
anchors = (
{
name = bottom;
pos = (327,-2);
},
{
name = ogonek;
pos = (629,1);
},
{
name = top;
pos = (326,684);
}
);
layerId = "49C16FD3-6177-408B-A733-AEB3898BB77C";
shapes = (
{
closed = 1;
nodes = (
(67,0,l,{
"Letterink-NibData" = {
AngleInDegrees = 22.78241;
};
}),
(171,251,l,{
"Letterink-NibData" = {
AngleInDegrees = 235.7843;
};
}),
(150,236,l,{
"Letterink-NibData" = {
AngleInDegrees = 90;
};
}),
(503,236,l,{
"Letterink-NibData" = {
AngleInDegrees = 304.2157;
};
}),
(482,251,l,{
"Letterink-NibData" = {
AngleInDegrees = 157.02305;
};
}),
(588,0,l,{
"Letterink-NibData" = {
AngleInDegrees = 90;
};
}),
(629,0,l,{
"Letterink-NibData" = {
AngleInDegrees = 336.95898;
};
}),
(331,699,l,{
"Letterink-NibData" = {
AngleInDegrees = 270;
};
}),
(322,699,l,{
"Letterink-NibData" = {
AngleInDegrees = 202.90284;
};
}),
(26,0,l,{
"Letterink-NibData" = {
AngleInDegrees = 90;
};
})
);
},
{
closed = 1;
nodes = (
(313,585,l,{
"Letterink-NibData" = {
AngleInDegrees = 22.61986;
};
}),
(327,631,l,{
"Letterink-NibData" = {
AngleInDegrees = 160.34617;
};
}),
(340,587,l,{
"Letterink-NibData" = {
AngleInDegrees = 157.39526;
};
}),
(479,257,l,{
"Letterink-NibData" = {
AngleInDegrees = 32.90524;
};
}),
(489,272,l,{
"Letterink-NibData" = {
AngleInDegrees = 270;
};
}),
(164,272,l,{
"Letterink-NibData" = {
AngleInDegrees = 147.09476;
};
}),
(174,257,l,{
"Letterink-NibData" = {
AngleInDegrees = 22.96683;
};
})
);
}
);
width = 655;
},
{
anchors = (
{
name = bottom;
pos = (343,0);
},
{
name = ogonek;
pos = (683,0);
},
{
name = top;
pos = (342,694);
}
);
layerId = m004;
shapes = (
{
closed = 1;
nodes = (
(183,0,l,{
"Letterink-NibData" = {
AngleInDegrees = 22.65189;
};
}),
(288,257,l,{
"Letterink-NibData" = {
AngleInDegrees = 236.57519;
};
}),
(187,146,l,{
"Letterink-NibData" = {
AngleInDegrees = 90;
};
}),
(497,146,l,{
"Letterink-NibData" = {
AngleInDegrees = 303.42481;
};
}),
(397,257,l,{
"Letterink-NibData" = {
AngleInDegrees = 156.96496;
};
}),
(505,0,l,{
"Letterink-NibData" = {
AngleInDegrees = 90;
};
}),
(683,0,l,{
"Letterink-NibData" = {
AngleInDegrees = 337.32254;
};
}),
(389,694,l,{
"Letterink-NibData" = {
AngleInDegrees = 270;
};
}),
(303,694,l,{
"Letterink-NibData" = {
AngleInDegrees = 202.53914;
};
}),
(2,0,l,{
"Letterink-NibData" = {
AngleInDegrees = 90;
};
})
);
},
{
closed = 1;
nodes = (
(364,480,l,{
"Letterink-NibData" = {
AngleInDegrees = 19.98311;
};
}),
(341,484,l,{
"Letterink-NibData" = {
AngleInDegrees = 161.56505;
};
}),
(315,480,l,{
"Letterink-NibData" = {
AngleInDegrees = 158.35875;
};
}),
(389,272,l,{
"Letterink-NibData" = {
AngleInDegrees = 34.87533;
};
}),
(435,288,l,{
"Letterink-NibData" = {
AngleInDegrees = 270;
};
}),
(244,288,l,{
"Letterink-NibData" = {
AngleInDegrees = 145.92281;
};
}),
(294,268,l,{
"Letterink-NibData" = {
AngleInDegrees = 21.36191;
};
})
);
}
);
width = 685;
}
);
metricLeft = "=|A";
metricRight = A;
userData = {
position = 10;
width = 615;
};
},
{
glyphname = A.swsh;
kernLeft = A;
kernRight = A;
layers = (
{
anchors = (
{
name = bottom;
pos = (420,0);
},
{
name = ogonek;
pos = (729,0);
},
{
name = top;
pos = (418,684);
}
);
hints = (
{
name = _corner.caps_swash_diag;
origin = (0,0);
scale = (-1,1);
type = Corner;
},
{
name = _corner.caps_swash.big;
origin = (2,3);
type = Corner;
}
);
layerId = "0CAF3BED-C4AC-4024-B3E1-4C69D1EF7EC0";
shapes = (
{
closed = 1;
nodes = (
(223,53,l,{
"Letterink-NibData" = {
AngleInDegrees = "22.71999";
};
}),
(304,253,l,{
"Letterink-NibData" = {
AngleInDegrees = "236.57519";
};
}),
(254,210,l,{
"Letterink-NibData" = {
AngleInDegrees = "90";
};
}),
(586,210,l,{
"Letterink-NibData" = {
AngleInDegrees = "303.42481";
};
}),
(536,253,l,{
"Letterink-NibData" = {
AngleInDegrees = "157.34811";
};
}),
(642,0,l,{
"Letterink-NibData" = {
AngleInDegrees = "90";
};
}),
(729,0,l,{
"Letterink-NibData" = {
AngleInDegrees = "336.96218";
};
}),
(443,685,l,{
"Letterink-NibData" = {
AngleInDegrees = "270";
};
}),
(396,685,l,{
"Letterink-NibData" = {
AngleInDegrees = "202.82503";
};
}),
(148,83,l,{
"Letterink-NibData" = {
AngleInDegrees = "202.38014";
};
})
);
},
{
closed = 1;
nodes = (
(413,541,l,{
"Letterink-NibData" = {
AngleInDegrees = "8.130100000000001";
};
}),
(419,571,l,{
"Letterink-NibData" = {
AngleInDegrees = "171.8699";
};
}),
(426,541,l,{
"Letterink-NibData" = {
AngleInDegrees = "159.79358";
};
}),
(530,260,l,{
"Letterink-NibData" = {
AngleInDegrees = "35.21759";
};
}),
(552,284,l,{
"Letterink-NibData" = {
AngleInDegrees = "270";
};
}),
(284,284,l,{
"Letterink-NibData" = {
AngleInDegrees = "145.92281";
};
}),
(307,260,l,{
"Letterink-NibData" = {
AngleInDegrees = "20.73026";
};
})
);
},
{
closed = 1;
nodes = (
(277,609,l,{
"Letterink-NibData" = {
AngleInDegrees = "90";
};
}),
(430,609,l),
(430,685,l,{
"Letterink-NibData" = {
AngleInDegrees = "270";
};
}),
(277,685,l,{
"Letterink-NibData" = {
AngleInDegrees = "180";
};
})
);
}
);
width = 741;
},
{
anchors = (
{
name = bottom;
pos = (419,0);
},
{
name = ogonek;
pos = (711,1);
},
{
name = top;
pos = (420,684);
}
);
hints = (
{
name = _corner.caps_swash_diag;
origin = (0,0);
scale = (-1,1);
type = Corner;
},
{
name = _corner.caps_swash.big;
origin = (2,3);
type = Corner;
}
);
layerId = "49C16FD3-6177-408B-A733-AEB3898BB77C";
shapes = (
{
closed = 1;
nodes = (
(187,54,l,{
"Letterink-NibData" = {
AngleInDegrees = "22.1315";
};
}),
(270,251,l,{
"Letterink-NibData" = {
AngleInDegrees = "235.7843";
};
}),
(248,234,l,{
"Letterink-NibData" = {
AngleInDegrees = "90";
};
}),
(589,234,l,{
"Letterink-NibData" = {
AngleInDegrees = "304.2157";
};
}),
(567,251,l,{
"Letterink-NibData" = {
AngleInDegrees = "157.41269";
};
}),
(670,0,l,{
"Letterink-NibData" = {
AngleInDegrees = "90";
};
}),
(711,0,l,{
"Letterink-NibData" = {
AngleInDegrees = "337.30364";
};
}),
(424,684,l,{
"Letterink-NibData" = {
AngleInDegrees = "270";
};
}),
(415,684,l,{
"Letterink-NibData" = {
AngleInDegrees = "202.68401";
};
}),
(153,70,l,{
"Letterink-NibData" = {
AngleInDegrees = "202.61986";
};
})
);
},
{
closed = 1;
nodes = (
(406,576,l,{
"Letterink-NibData" = {
AngleInDegrees = "16.29405";
};
}),
(419,619,l,{
"Letterink-NibData" = {
AngleInDegrees = "163.21735";
};
}),
(433,576,l,{
"Letterink-NibData" = {
AngleInDegrees = "158.19859";
};
}),
(563,257,l,{
"Letterink-NibData" = {
AngleInDegrees = "32.90524";
};
}),
(572,270,l,{
"Letterink-NibData" = {
AngleInDegrees = "270";
};
}),
(263,270,l,{
"Letterink-NibData" = {
AngleInDegrees = "147.09476";
};
}),
(273,257,l,{
"Letterink-NibData" = {
AngleInDegrees = "22.09423";
};
})
);
},
{
closed = 1;
nodes = (
(275,648,l,{
"Letterink-NibData" = {
AngleInDegrees = "90";
};
}),
(418,648,l),
(418,684,l,{
"Letterink-NibData" = {
AngleInDegrees = "270";
};
}),
(275,684,l,{
"Letterink-NibData" = {
AngleInDegrees = "180";
};
})
);
}
);
width = 737;
},
{
anchors = (
{
name = bottom;
pos = (424,-6);
},
{
name = ogonek;
pos = (720,0);
},
{
name = top;
pos = (424,684);
}
);
associatedMasterId = "49C16FD3-6177-408B-A733-AEB3898BB77C";
layerId = "58617E73-3A60-467D-AD5A-D66EDA6AE7B6";
name = "6 Jan 22, 16:52";
shapes = (
{
closed = 1;
nodes = (
(162,-11,o),
(188,10,o),
(204,49,cs,{
"Letterink-NibData" = {
AngleInDegrees = 21.9487;
};
}),
(285,250,l,{
"Letterink-NibData" = {
AngleInDegrees = 235.7843;
};
}),
(260,233,l,{
"Letterink-NibData" = {
AngleInDegrees = 90;
};
}),
(587,233,l,{
"Letterink-NibData" = {
AngleInDegrees = 304.2157;
};
}),
(562,250,l,{
"Letterink-NibData" = {
AngleInDegrees = 157.41269;
};
}),
(666,0,l,{
"Letterink-NibData" = {
AngleInDegrees = 90;
};
}),
(715,0,l,{
"Letterink-NibData" = {
AngleInDegrees = 337.54495;
};
}),
(429,692,l,{
"Letterink-NibData" = {
AngleInDegrees = 270;
};
}),
(419,692,l,{
"Letterink-NibData" = {
AngleInDegrees = 202.29205;
};
}),
(164,70,ls,{
"Letterink-NibData" = {
AngleInDegrees = 202.47943;
};
}),
(152,41,o),
(141,30,o),
(121,30,cs,{
"Letterink-NibData" = {
AngleInDegrees = 270;
};
}),
(101,30,o),
(84,48,o),
(84,67,cs),
(84,72,o),
(85,77,o),
(87,82,c,{
"Letterink-NibData" = {
AngleInDegrees = 304.43899;
};
}),
(52,106,l,{
"Letterink-NibData" = {
AngleInDegrees = 213.69007;
};
}),
(44,94,o),
(40,76,o),
(40,66,cs,{
"Letterink-NibData" = {
AngleInDegrees = 180;
};
}),
(40,21,o),
(81,-11,o),
(123,-11,cs,{
"Letterink-NibData" = {
AngleInDegrees = 90;
};
})
);
},
{
closed = 1;
nodes = (
(410,569,l,{
"Letterink-NibData" = {
AngleInDegrees = 15.64224;
};
}),
(424,619,l,{
"Letterink-NibData" = {
AngleInDegrees = 165.42579;
};
}),
(437,569,l,{
"Letterink-NibData" = {
AngleInDegrees = 158.93765;
};
}),
(556,260,l,{
"Letterink-NibData" = {
AngleInDegrees = 35.21759;
};
}),
(568,277,l,{
"Letterink-NibData" = {
AngleInDegrees = 270;
};
}),
(279,277,l,{
"Letterink-NibData" = {
AngleInDegrees = 144.78241;
};
}),
(291,260,l,{
"Letterink-NibData" = {
AngleInDegrees = 21.06235;
};
})
);
}
);
width = 753;
},
{
anchors = (
{
name = bottom;
pos = (483,0);
},
{
name = ogonek;
pos = (825,0);
},
{
name = top;
pos = (482,694);
}
);
hints = (
{
name = _corner.caps_swash_diag;
options = 2;
origin = (0,0);
scale = (-1,1);
type = Corner;
},
{
name = _corner.caps_swash.big;
origin = (2,3);
type = Corner;
}
);
layerId = m004;
shapes = (
{
closed = 1;
nodes = (
(333,66,l,{
"Letterink-NibData" = {
AngleInDegrees = "22.65189";
};
}),
(426,257,l,{
"Letterink-NibData" = {
AngleInDegrees = "236.57519";
};
}),
(329,146,l,{
"Letterink-NibData" = {
AngleInDegrees = "90";
};
}),
(639,146,l,{
"Letterink-NibData" = {
AngleInDegrees = "303.42481";
};
}),
(544,257,l,{
"Letterink-NibData" = {
AngleInDegrees = "156.96496";
};
}),
(652,0,l,{
"Letterink-NibData" = {
AngleInDegrees = "90";
};
}),
(825,0,l,{
"Letterink-NibData" = {
AngleInDegrees = "337.32254";
};
}),
(557,684,l,{
"Letterink-NibData" = {
AngleInDegrees = "270";
};
}),
(411,684,l,{
"Letterink-NibData" = {
AngleInDegrees = "202.53914";
};
}),
(188,144,l,{
"Letterink-NibData" = {
AngleInDegrees = "90";
};
})
);
},
{
closed = 1;
nodes = (
(500,480,l,{
"Letterink-NibData" = {
AngleInDegrees = "19.98311";
};
}),
(483,484,l,{
"Letterink-NibData" = {
AngleInDegrees = "161.56505";
};
}),
(464,480,l,{
"Letterink-NibData" = {
AngleInDegrees = "158.35875";
};
}),
(531,272,l,{
"Letterink-NibData" = {
AngleInDegrees = "34.87533";
};
}),
(577,288,l,{
"Letterink-NibData" = {
AngleInDegrees = "270";
};
}),
(386,288,l,{
"Letterink-NibData" = {
AngleInDegrees = "145.92281";
};
}),
(432,268,l,{
"Letterink-NibData" = {
AngleInDegrees = "21.36191";
};
})
);
},
{
closed = 1;
nodes = (
(307,536,l),
(529,536,l),
(529,684,l,{
"Letterink-NibData" = {
AngleInDegrees = "270";
};
}),
(307,684,l,{
"Letterink-NibData" = {
AngleInDegrees = "180";
};
})
);
}
);
width = 827;
}
);
metricLeft = A;
metricRight = A;
userData = {
position = 666;
width = 20;
};
},
{
glyphname = AE;
kernLeft = A;
kernRight = E;
layers = (
{
anchors = (
{
name = bottom;
pos = (512,0);
},
{
name = top;
pos = (523,673);
}
);
hints = (
{
name = _corner.caps_diag;
options = 1;
origin = (0,0);
scale = (-1,1);
type = Corner;
}
);
layerId = "0CAF3BED-C4AC-4024-B3E1-4C69D1EF7EC0";
shapes = (
{
closed = 1;
nodes = (
(181,37,l,{
"Letterink-NibData" = {
AngleInDegrees = 26.8249;
};
}),
(286,252,l,{
"Letterink-NibData" = {
AngleInDegrees = 90;
};
}),
(229,210,l,{
"Letterink-NibData" = {
AngleInDegrees = 90;
};
}),
(488,210,l,{
"Letterink-NibData" = {
AngleInDegrees = 180;
};
}),
(452,256,l,{
"Letterink-NibData" = {
AngleInDegrees = 180;
};
}),
(452,-1,l,{
"Letterink-NibData" = {
AngleInDegrees = 90;
};
}),
(889,-1,l),
(889,75,l,{
"Letterink-NibData" = {
AngleInDegrees = 270;
};
}),
(534,75,l),
(534,325,l,{
"Letterink-NibData" = {
AngleInDegrees = 90;
};
}),
(771,325,l),
(771,401,l,{
"Letterink-NibData" = {
AngleInDegrees = 270;
};
}),
(534,401,l),
(534,610,l,{
"Letterink-NibData" = {
AngleInDegrees = 90;
};
}),
(869,610,l),
(869,686,l,{
"Letterink-NibData" = {
AngleInDegrees = 270;
};
}),
(425,686,l,{
"Letterink-NibData" = {
AngleInDegrees = 208.5766;
};
}),
(117,86,l,{
"Letterink-NibData" = {
AngleInDegrees = 209.0546;
};
})
);
},
{
closed = 1;
nodes = (
(434,537,l,{
"Letterink-NibData" = {
AngleInDegrees = 23.19859;
};
}),
(452,586,l,{
"Letterink-NibData" = {
AngleInDegrees = 180;
};
}),
(452,260,l,{
"Letterink-NibData" = {
AngleInDegrees = 270;
};
}),
(488,286,l,{
"Letterink-NibData" = {
AngleInDegrees = 270;
};
}),
(273,286,l,{
"Letterink-NibData" = {
AngleInDegrees = 28.71031;
};
}),
(292,264,l,{
"Letterink-NibData" = {
AngleInDegrees = 28.71031;
};
})
);
}
);
width = 931;
},
{
anchors = (
{
name = bottom;
pos = (527,0);
},
{
name = top;
pos = (520,684);
}
);
hints = (
{
name = _corner.caps_diag;
origin = (0,0);
scale = (-1,1);
type = Corner;
}
);
layerId = "49C16FD3-6177-408B-A733-AEB3898BB77C";
shapes = (
{
closed = 1;
nodes = (
(152,43,l,{
"Letterink-NibData" = {
AngleInDegrees = 29.29136;
};
}),
(258,249,l,{
"Letterink-NibData" = {
AngleInDegrees = 90;
};
}),
(235,237,l,{
"Letterink-NibData" = {
AngleInDegrees = 90;
};
}),
(499,237,l,{
"Letterink-NibData" = {
AngleInDegrees = 180;
};
}),
(483,253,l,{
"Letterink-NibData" = {
AngleInDegrees = 180;
};
}),
(483,1,l,{
"Letterink-NibData" = {
AngleInDegrees = 90;
};
}),
(900,1,l),
(900,37,l,{
"Letterink-NibData" = {
AngleInDegrees = 270;
};
}),
(520,37,l),
(520,346,l,{
"Letterink-NibData" = {
AngleInDegrees = 90;
};
}),
(776,346,l),
(776,382,l,{
"Letterink-NibData" = {
AngleInDegrees = 270;
};
}),
(520,382,l),
(520,649,l,{
"Letterink-NibData" = {
AngleInDegrees = 90;
};
}),
(880,649,l),
(880,685,l,{
"Letterink-NibData" = {
AngleInDegrees = 270;
};
}),
(454,685,l,{
"Letterink-NibData" = {
AngleInDegrees = 208.82166;
};
}),
(117,56,l,{
"Letterink-NibData" = {
AngleInDegrees = 213.69007;
};
})
);
},
{
closed = 1;
nodes = (
(447,600,l,{
"Letterink-NibData" = {
AngleInDegrees = 27.32389;
};
}),
(482,663,l,{
"Letterink-NibData" = {
AngleInDegrees = 179.84962;
};
}),
(483,257,l,{
"Letterink-NibData" = {
AngleInDegrees = 270;
};
}),
(499,273,l,{
"Letterink-NibData" = {
AngleInDegrees = 270;
};
}),
(253,273,l,{
"Letterink-NibData" = {
AngleInDegrees = 28.59795;
};
}),
(261,259,l,{
"Letterink-NibData" = {
AngleInDegrees = 28.59795;
};
})
);
}
);
width = 915;
},
{
anchors = (
{
name = bottom;
pos = (548,0);
},
{
name = top;
pos = (556,692);
}
);
associatedMasterId = "49C16FD3-6177-408B-A733-AEB3898BB77C";
layerId = "C1A3D0A8-503D-4B78-876F-381CB7337013";
name = "11 Jan 22, 13:13";
shapes = (
{
closed = 1;
nodes = (
(139,-2,o),
(151,26,o),
(182,71,c,{
"Letterink-NibData" = {
AngleInDegrees = 29.29136;
};
}),
(274,235,l,{
"Letterink-NibData" = {
AngleInDegrees = 90;
};
}),
(502,235,l,{
"Letterink-NibData" = {
AngleInDegrees = 180;
};
}),
(502,1,l,{
"Letterink-NibData" = {
AngleInDegrees = 90;
};
}),
(921,1,l),
(921,41,l,{
"Letterink-NibData" = {
AngleInDegrees = 270;
};
}),
(544,41,l),
(544,344,l,{
"Letterink-NibData" = {
AngleInDegrees = 90;
};
}),
(798,344,l),
(798,384,l,{
"Letterink-NibData" = {
AngleInDegrees = 270;
};
}),
(544,384,l),
(544,645,l,{
"Letterink-NibData" = {
AngleInDegrees = 90;
};
}),
(901,645,l),
(901,685,l,{
"Letterink-NibData" = {
AngleInDegrees = 270;
};
}),
(474,685,l,{
"Letterink-NibData" = {
AngleInDegrees = 208.82166;
};
}),
(140,78,l,{
"Letterink-NibData" = {
AngleInDegrees = 213.69007;
};
}),
(126,57,o),
(117,38,o),
(93,38,cs,{
"Letterink-NibData" = {
AngleInDegrees = 270;
};
}),
(79,38,o),
(62,47,o),
(54,56,c,{
"Letterink-NibData" = {
AngleInDegrees = 244.0577;
};
}),
(17,38,l,{
"Letterink-NibData" = {
AngleInDegrees = 146.82149;
};
}),
(34,12,o),
(61,-2,o),
(92,-2,cs,{
"Letterink-NibData" = {
AngleInDegrees = 90;
};
})
);
},
{
closed = 1;
nodes = (
(470,596,l,{
"Letterink-NibData" = {
AngleInDegrees = 27.32389;
};
}),
(501,656,l,{
"Letterink-NibData" = {
AngleInDegrees = 179.84962;
};
}),
(502,275,l,{
"Letterink-NibData" = {
AngleInDegrees = 270;
};
}),
(295,275,l,{
"Letterink-NibData" = {
AngleInDegrees = 28.59795;
};
})
);
}
);
width = 966;
},
{
anchors = (
{
name = bottom;
pos = (543,0);
},
{
name = top;
pos = (554,673);
}
);
associatedMasterId = "0CAF3BED-C4AC-4024-B3E1-4C69D1EF7EC0";
layerId = "8D16C2AC-4E99-48C9-ADA3-C168C353B72B";
name = "11 Jan 22, 13:30";
shapes = (
{
closed = 1;
nodes = (
(142,-12,o),
(179,8,o),
(197,44,cs,{
"Letterink-NibData" = {
AngleInDegrees = 26.8249;
};
}),
(286,220,l,{
"Letterink-NibData" = {
AngleInDegrees = 90;
};
}),
(483,220,l,{
"Letterink-NibData" = {
AngleInDegrees = 180;
};
}),
(483,-1,l,{
"Letterink-NibData" = {
AngleInDegrees = 90;
};
}),
(920,-1,l),
(920,75,l,{
"Letterink-NibData" = {
AngleInDegrees = 270;
};
}),
(565,75,l),
(565,325,l,{
"Letterink-NibData" = {
AngleInDegrees = 90;
};
}),
(802,325,l),
(802,401,l,{
"Letterink-NibData" = {
AngleInDegrees = 270;
};
}),
(565,401,l),
(565,610,l,{
"Letterink-NibData" = {
AngleInDegrees = 90;
};
}),
(900,610,l),
(900,686,l,{
"Letterink-NibData" = {
AngleInDegrees = 270;
};
}),
(456,686,l,{
"Letterink-NibData" = {
AngleInDegrees = 208.5766;
};
}),
(133,93,ls,{
"Letterink-NibData" = {
AngleInDegrees = 209.0546;
};
}),
(123,75,o),
(114,67,o),
(99,67,cs,{
"Letterink-NibData" = {
AngleInDegrees = 270;
};
}),
(88,67,o),
(76,72,o),
(66,86,c,{
"Letterink-NibData" = {
AngleInDegrees = 220.6013;
};
}),
(18,30,l,{
"Letterink-NibData" = {
AngleInDegrees = 145.7843;
};
}),
(35,5,o),
(66,-12,o),
(107,-12,cs,{
"Letterink-NibData" = {
AngleInDegrees = 90;
};
})
);
},
{
closed = 1;
nodes = (
(462,537,l,{
"Letterink-NibData" = {
AngleInDegrees = 23.19859;
};
}),
(483,586,l,{
"Letterink-NibData" = {
AngleInDegrees = 180;
};
}),
(483,296,l,{
"Letterink-NibData" = {
AngleInDegrees = 270;
};
}),
(330,296,l,{
"Letterink-NibData" = {
AngleInDegrees = 28.71031;
};
})
);
}
);
width = 962;
},
{
anchors = (
{
name = bottom;
pos = (614,0);
},
{
name = top;
pos = (625,684);
}
);
hints = (
{
name = _corner.caps_diag;
options = 2;
origin = (0,0);
scale = (-1,1);
type = Corner;
}
);
layerId = m004;
shapes = (
{
closed = 1;
nodes = (
(290,70,l,{
"Letterink-NibData" = {
AngleInDegrees = "28.81079";
};
}),
(386,256,l,{
"Letterink-NibData" = {
AngleInDegrees = "90";
};
}),
(294,146,l,{
"Letterink-NibData" = {
AngleInDegrees = "90";
};
}),
(563,146,l,{
"Letterink-NibData" = {
AngleInDegrees = "180";
};
}),
(493,264,l,{
"Letterink-NibData" = {
AngleInDegrees = "180";
};
}),
(493,0,l,{
"Letterink-NibData" = {
AngleInDegrees = "90";
};
}),
(957,0,l),
(957,148,l,{
"Letterink-NibData" = {
AngleInDegrees = "270";
};
}),
(658,148,l),
(658,281,l,{
"Letterink-NibData" = {
AngleInDegrees = "90";
};
}),
(847,281,l),
(847,429,l,{
"Letterink-NibData" = {
AngleInDegrees = "270";
};
}),
(658,429,l),
(658,536,l,{
"Letterink-NibData" = {
AngleInDegrees = "90";
};
}),
(937,536,l),
(937,684,l,{
"Letterink-NibData" = {
AngleInDegrees = "270";
};
}),
(438,684,l,{
"Letterink-NibData" = {
AngleInDegrees = "209.70894";
};
}),
(143,145,l,{
"Letterink-NibData" = {
AngleInDegrees = "89.3704";
};
})
);
},
{
closed = 1;
nodes = (
(498,488,l,{
"Letterink-NibData" = {
AngleInDegrees = "23.62938";
};
}),
(493,449,l,{
"Letterink-NibData" = {
AngleInDegrees = "180";
};
}),
(493,275,l,{
"Letterink-NibData" = {
AngleInDegrees = "270";
};
}),
(563,296,l,{
"Letterink-NibData" = {
AngleInDegrees = "270";
};
}),
(375,296,l,{
"Letterink-NibData" = {
AngleInDegrees = "28.68615";
};
}),
(412,279,l,{
"Letterink-NibData" = {
AngleInDegrees = "28.68615";
};
})
);
}
);
width = 967;
},
{
anchors = (
{
name = bottom;
pos = (543,0);
},
{
name = top;
pos = (554,673);
}
);
associatedMasterId = m004;
layerId = "80EF8790-0869-49FF-90A7-EBAC34F5F575";
name = "11 Jan 22, 13:30";
shapes = (
{
closed = 1;
nodes = (
(142,-12,o),
(179,8,o),
(197,44,cs,{
"Letterink-NibData" = {
AngleInDegrees = 26.8249;
};
}),
(286,220,l,{
"Letterink-NibData" = {
AngleInDegrees = 90;
};
}),
(483,220,l,{
"Letterink-NibData" = {
AngleInDegrees = 180;
};
}),
(483,-1,l,{
"Letterink-NibData" = {
AngleInDegrees = 90;
};
}),
(920,-1,l),
(920,75,l,{
"Letterink-NibData" = {
AngleInDegrees = 270;
};
}),
(565,75,l),
(565,325,l,{
"Letterink-NibData" = {
AngleInDegrees = 90;
};
}),
(802,325,l),
(802,401,l,{
"Letterink-NibData" = {
AngleInDegrees = 270;
};
}),
(565,401,l),
(565,610,l,{
"Letterink-NibData" = {
AngleInDegrees = 90;
};
}),
(900,610,l),
(900,686,l,{
"Letterink-NibData" = {
AngleInDegrees = 270;
};
}),
(456,686,l,{
"Letterink-NibData" = {
AngleInDegrees = 208.5766;
};
}),
(133,93,ls,{
"Letterink-NibData" = {
AngleInDegrees = 209.0546;
};
}),
(123,75,o),
(114,67,o),
(99,67,cs,{
"Letterink-NibData" = {
AngleInDegrees = 270;
};
}),
(88,67,o),
(76,72,o),
(66,86,c,{
"Letterink-NibData" = {
AngleInDegrees = 220.6013;
};
}),
(18,30,l,{
"Letterink-NibData" = {
AngleInDegrees = 145.7843;
};
}),
(35,5,o),
(66,-12,o),
(107,-12,cs,{
"Letterink-NibData" = {
AngleInDegrees = 90;
};
})
);
},
{
closed = 1;
nodes = (
(462,537,l,{
"Letterink-NibData" = {
AngleInDegrees = 23.19859;
};
}),
(483,586,l,{
"Letterink-NibData" = {
AngleInDegrees = 180;
};
}),
(483,296,l,{
"Letterink-NibData" = {
AngleInDegrees = 270;
};
}),
(330,296,l,{
"Letterink-NibData" = {
AngleInDegrees = 28.71031;
};
})
);
}
);
width = 962;
}
);
metricLeft = A;
unicode = 198;
userData = {
position = 422;
width = 61;
};
},
{
glyphname = AE.ss01;
kernLeft = Atext;
kernRight = E;
layers = (
{
anchors = (
{
name = bottom;
pos = (481,0);
},
{
name = top;
pos = (492,673);
}
);
layerId = "0CAF3BED-C4AC-4024-B3E1-4C69D1EF7EC0";
shapes = (
{
closed = 1;
nodes = (
(103,0,l,{
"Letterink-NibData" = {
AngleInDegrees = 28.81079;
};
}),
(241,252,l,{
"Letterink-NibData" = {
AngleInDegrees = 90;
};
}),
(188,210,l,{
"Letterink-NibData" = {
AngleInDegrees = 90;
};
}),
(457,210,l,{
"Letterink-NibData" = {
AngleInDegrees = 180;
};
}),
(421,256,l,{
"Letterink-NibData" = {
AngleInDegrees = 180;
};
}),
(421,-1,l,{
"Letterink-NibData" = {
AngleInDegrees = 90;
};
}),
(848,-1,l),
(848,75,l,{
"Letterink-NibData" = {
AngleInDegrees = 270;
};
}),
(503,75,l),
(503,325,l,{
"Letterink-NibData" = {
AngleInDegrees = 90;
};
}),
(730,325,l),
(730,401,l,{
"Letterink-NibData" = {
AngleInDegrees = 270;
};
}),
(503,401,l),
(503,610,l,{
"Letterink-NibData" = {
AngleInDegrees = 90;
};
}),
(828,610,l),
(828,686,l,{
"Letterink-NibData" = {
AngleInDegrees = 270;
};
}),
(404,686,l,{
"Letterink-NibData" = {
AngleInDegrees = 209.70894;
};
}),
(12,-1,l,{
"Letterink-NibData" = {
AngleInDegrees = 89.3704;
};
})
);
},
{
closed = 1;
nodes = (
(407,561,l,{
"Letterink-NibData" = {
AngleInDegrees = 23.62938;
};
}),
(421,593,l,{
"Letterink-NibData" = {
AngleInDegrees = 180;
};
}),
(421,260,l,{
"Letterink-NibData" = {
AngleInDegrees = 270;
};
}),
(457,286,l,{
"Letterink-NibData" = {
AngleInDegrees = 270;
};
}),
(226,286,l,{
"Letterink-NibData" = {
AngleInDegrees = 28.68615;
};
}),
(245,264,l,{
"Letterink-NibData" = {
AngleInDegrees = 28.68615;
};
})
);
}
);
width = 884;
},
{
anchors = (
{
name = bottom;
pos = (457,0);
},
{
name = top;
pos = (450,684);
}
);
layerId = "49C16FD3-6177-408B-A733-AEB3898BB77C";
shapes = (
{
closed = 1;
nodes = (
(68,1,l,{
"Letterink-NibData" = {
AngleInDegrees = 28.2127;
};
}),
(201,250,l,{
"Letterink-NibData" = {
AngleInDegrees = 90;
};
}),
(167,236,l,{
"Letterink-NibData" = {
AngleInDegrees = 90;
};
}),
(429,236,l,{
"Letterink-NibData" = {
AngleInDegrees = 180;
};
}),
(413,252,l,{
"Letterink-NibData" = {
AngleInDegrees = 180;
};
}),
(413,1,l,{
"Letterink-NibData" = {
AngleInDegrees = 90;
};
}),
(833,1,l),
(833,37,l,{
"Letterink-NibData" = {
AngleInDegrees = 270;
};
}),
(450,37,l),
(450,346,l,{
"Letterink-NibData" = {
AngleInDegrees = 90;
};
}),
(710,346,l),
(710,382,l,{
"Letterink-NibData" = {
AngleInDegrees = 270;
};
}),
(450,382,l),
(450,649,l,{
"Letterink-NibData" = {
AngleInDegrees = 90;
};
}),
(813,649,l),
(813,685,l,{
"Letterink-NibData" = {
AngleInDegrees = 270;
};
}),
(397,685,l,{
"Letterink-NibData" = {
AngleInDegrees = 208.86222;
};
}),
(26,1,l,{
"Letterink-NibData" = {
AngleInDegrees = 90;
};
})
);
},
{
closed = 1;
nodes = (
(390,601,l,{
"Letterink-NibData" = {
AngleInDegrees = 32.55;
};
}),
(413,650,l,{
"Letterink-NibData" = {
AngleInDegrees = 180;
};
}),
(413,256,l,{
"Letterink-NibData" = {
AngleInDegrees = 270;
};
}),
(429,272,l,{
"Letterink-NibData" = {
AngleInDegrees = 270;
};
}),
(183,272,l,{
"Letterink-NibData" = {
AngleInDegrees = 28.9193;
};
}),
(206,257,l,{
"Letterink-NibData" = {
AngleInDegrees = 28.9193;
};
})
);
}
);
width = 875;
},
{
anchors = (
{
name = bottom;
pos = (430,0);
},
{
name = top;
pos = (501,684);
}
);
layerId = m004;
shapes = (
{
closed = 1;
nodes = (
(185,1,l,{
"Letterink-NibData" = {
AngleInDegrees = "28.81079";
};
}),
(323,256,l,{
"Letterink-NibData" = {
AngleInDegrees = "90";
};
}),
(231,146,l,{
"Letterink-NibData" = {
AngleInDegrees = "90";
};
}),
(500,146,l,{
"Letterink-NibData" = {
AngleInDegrees = "180";
};
}),
(430,264,l,{
"Letterink-NibData" = {
AngleInDegrees = "180";
};
}),
(430,0,l,{
"Letterink-NibData" = {
AngleInDegrees = "90";
};
}),
(894,0,l),
(894,148,l,{
"Letterink-NibData" = {
AngleInDegrees = "270";
};
}),
(595,148,l),
(595,281,l,{
"Letterink-NibData" = {
AngleInDegrees = "90";
};
}),
(784,281,l),
(784,429,l,{
"Letterink-NibData" = {
AngleInDegrees = "270";
};
}),
(595,429,l),
(595,536,l,{
"Letterink-NibData" = {
AngleInDegrees = "90";
};
}),
(874,536,l),
(874,684,l,{
"Letterink-NibData" = {
AngleInDegrees = "270";
};
}),
(375,684,l,{
"Letterink-NibData" = {
AngleInDegrees = "209.70894";
};
}),
(2,0,l,{
"Letterink-NibData" = {
AngleInDegrees = "89.3704";
};
})
);
},
{
closed = 1;
nodes = (
(431,488,l,{
"Letterink-NibData" = {
AngleInDegrees = "23.62938";
};
}),
(430,449,l,{
"Letterink-NibData" = {
AngleInDegrees = "180";
};
}),
(430,275,l,{
"Letterink-NibData" = {
AngleInDegrees = "270";
};
}),
(500,296,l,{
"Letterink-NibData" = {
AngleInDegrees = "270";
};
}),
(312,296,l,{
"Letterink-NibData" = {
AngleInDegrees = "28.68615";
};
}),
(349,279,l,{
"Letterink-NibData" = {
AngleInDegrees = "28.68615";
};
})
);
}
);
width = 934;
}
);
metricLeft = A.ss01;
metricRight = E;
userData = {
position = 422;
width = 61;
};
},
{
glyphname = AE.swsh;
kernLeft = A;
kernRight = E;
layers = (
{
anchors = (
{
name = bottom;
pos = (534,0);
},
{
name = top;
pos = (545,673);
}
);
hints = (
{
name = _corner.caps_swash_diag;
options = 1;
origin = (0,0);
scale = (-1,1);
type = Corner;
}
);
layerId = "0CAF3BED-C4AC-4024-B3E1-4C69D1EF7EC0";
shapes = (
{
closed = 1;
nodes = (
(212,67,l,{
"Letterink-NibData" = {
AngleInDegrees = 26.8249;
};
}),
(303,252,l,{
"Letterink-NibData" = {
AngleInDegrees = 90;
};
}),
(251,210,l,{
"Letterink-NibData" = {
AngleInDegrees = 90;
};
}),
(510,210,l,{
"Letterink-NibData" = {
AngleInDegrees = 180;
};
}),
(474,256,l,{
"Letterink-NibData" = {
AngleInDegrees = 180;
};
}),
(474,-1,l,{
"Letterink-NibData" = {
AngleInDegrees = 90;
};
}),
(911,-1,l),
(911,75,l,{
"Letterink-NibData" = {
AngleInDegrees = 270;
};
}),
(556,75,l),
(556,325,l,{
"Letterink-NibData" = {
AngleInDegrees = 90;
};
}),
(793,325,l),
(793,401,l,{
"Letterink-NibData" = {
AngleInDegrees = 270;
};
}),
(556,401,l),
(556,610,l,{
"Letterink-NibData" = {
AngleInDegrees = 90;
};
}),
(891,610,l),
(891,686,l,{
"Letterink-NibData" = {
AngleInDegrees = 270;
};
}),
(447,686,l,{
"Letterink-NibData" = {
AngleInDegrees = 208.5766;
};
}),
(149,116,l,{
"Letterink-NibData" = {
AngleInDegrees = 209.0546;
};
})
);
},
{
closed = 1;
nodes = (
(458,537,l,{
"Letterink-NibData" = {
AngleInDegrees = 23.19859;
};
}),
(474,586,l,{
"Letterink-NibData" = {
AngleInDegrees = 180;
};
}),
(474,260,l,{
"Letterink-NibData" = {
AngleInDegrees = 270;
};
}),
(510,286,l,{
"Letterink-NibData" = {
AngleInDegrees = 270;
};
}),
(295,286,l,{
"Letterink-NibData" = {
AngleInDegrees = 28.71031;
};
}),
(314,264,l,{
"Letterink-NibData" = {
AngleInDegrees = 28.71031;
};
})
);
}
);
width = 953;
},
{
anchors = (
{
name = bottom;
pos = (563,0);
},
{
name = top;
pos = (571,694);
}
);
hints = (
{
name = _corner.caps_swash_diag;
origin = (0,0);
scale = (-1,1);
type = Corner;
}
);
layerId = "49C16FD3-6177-408B-A733-AEB3898BB77C";
shapes = (
{
closed = 1;
nodes = (
(184,48,l,{
"Letterink-NibData" = {
AngleInDegrees = 29.29136;
};
}),
(299,249,l,{
"Letterink-NibData" = {
AngleInDegrees = 90;
};
}),
(271,237,l,{
"Letterink-NibData" = {
AngleInDegrees = 90;
};
}),
(534,237,l,{
"Letterink-NibData" = {
AngleInDegrees = 180;
};
}),
(518,253,l,{
"Letterink-NibData" = {
AngleInDegrees = 180;
};
}),
(518,1,l,{
"Letterink-NibData" = {
AngleInDegrees = 90;
};
}),
(935,1,l),
(935,37,l,{
"Letterink-NibData" = {
AngleInDegrees = 270;
};
}),
(556,37,l),
(556,346,l,{
"Letterink-NibData" = {
AngleInDegrees = 90;
};
}),
(812,346,l),
(812,382,l,{
"Letterink-NibData" = {
AngleInDegrees = 270;
};
}),
(556,382,l),
(556,649,l,{
"Letterink-NibData" = {
AngleInDegrees = 90;
};
}),
(915,649,l),
(915,685,l,{
"Letterink-NibData" = {
AngleInDegrees = 270;
};
}),
(498,685,l,{
"Letterink-NibData" = {
AngleInDegrees = 208.82166;
};
}),
(148,61,l,{
"Letterink-NibData" = {
AngleInDegrees = 213.69007;
};
})
);
},
{
closed = 1;
nodes = (
(491,600,l,{
"Letterink-NibData" = {
AngleInDegrees = 27.32389;
};
}),
(517,650,l,{
"Letterink-NibData" = {
AngleInDegrees = 179.84962;
};
}),
(518,257,l,{
"Letterink-NibData" = {
AngleInDegrees = 270;
};
}),
(534,273,l,{
"Letterink-NibData" = {
AngleInDegrees = 270;
};
}),
(289,273,l,{
"Letterink-NibData" = {
AngleInDegrees = 28.59795;
};
}),
(302,259,l,{
"Letterink-NibData" = {
AngleInDegrees = 28.59795;
};
})
);
}
);
width = 950;
},
{
anchors = (
{
name = bottom;
pos = (548,0);
},
{
name = top;
pos = (556,692);
}
);
associatedMasterId = "49C16FD3-6177-408B-A733-AEB3898BB77C";
layerId = "C1A3D0A8-503D-4B78-876F-381CB7337013";
name = "11 Jan 22, 13:13";
shapes = (
{
closed = 1;
nodes = (
(139,-2,o),
(151,26,o),
(182,71,c,{
"Letterink-NibData" = {
AngleInDegrees = 29.29136;
};
}),
(274,235,l,{
"Letterink-NibData" = {
AngleInDegrees = 90;
};
}),
(502,235,l,{
"Letterink-NibData" = {
AngleInDegrees = 180;
};
}),
(502,1,l,{
"Letterink-NibData" = {
AngleInDegrees = 90;
};
}),
(921,1,l),
(921,41,l,{
"Letterink-NibData" = {
AngleInDegrees = 270;
};
}),
(544,41,l),
(544,344,l,{
"Letterink-NibData" = {
AngleInDegrees = 90;
};
}),
(798,344,l),
(798,384,l,{
"Letterink-NibData" = {
AngleInDegrees = 270;
};
}),
(544,384,l),
(544,645,l,{
"Letterink-NibData" = {
AngleInDegrees = 90;
};
}),
(901,645,l),
(901,685,l,{
"Letterink-NibData" = {
AngleInDegrees = 270;
};
}),
(474,685,l,{
"Letterink-NibData" = {
AngleInDegrees = 208.82166;
};
}),
(140,78,l,{
"Letterink-NibData" = {
AngleInDegrees = 213.69007;
};
}),
(126,57,o),
(117,38,o),
(93,38,cs,{
"Letterink-NibData" = {
AngleInDegrees = 270;
};
}),
(79,38,o),
(62,47,o),
(54,56,c,{
"Letterink-NibData" = {
AngleInDegrees = 244.0577;
};
}),
(17,38,l,{
"Letterink-NibData" = {
AngleInDegrees = 146.82149;
};
}),
(34,12,o),
(61,-2,o),
(92,-2,cs,{
"Letterink-NibData" = {
AngleInDegrees = 90;
};
})
);
},
{
closed = 1;
nodes = (
(470,596,l,{
"Letterink-NibData" = {
AngleInDegrees = 27.32389;
};
}),
(501,656,l,{
"Letterink-NibData" = {
AngleInDegrees = 179.84962;
};
}),
(502,275,l,{
"Letterink-NibData" = {
AngleInDegrees = 270;
};
}),
(295,275,l,{
"Letterink-NibData" = {
AngleInDegrees = 28.59795;
};
})
);
}
);
width = 966;
},
{
anchors = (
{
name = bottom;
pos = (543,0);
},
{
name = top;
pos = (554,673);
}
);
associatedMasterId = "0CAF3BED-C4AC-4024-B3E1-4C69D1EF7EC0";
layerId = "8D16C2AC-4E99-48C9-ADA3-C168C353B72B";
name = "11 Jan 22, 13:30";
shapes = (
{
closed = 1;
nodes = (
(142,-12,o),
(179,8,o),
(197,44,cs,{
"Letterink-NibData" = {
AngleInDegrees = 26.8249;
};
}),
(286,220,l,{
"Letterink-NibData" = {
AngleInDegrees = 90;
};
}),
(483,220,l,{
"Letterink-NibData" = {
AngleInDegrees = 180;
};
}),
(483,-1,l,{
"Letterink-NibData" = {
AngleInDegrees = 90;
};
}),
(920,-1,l),
(920,75,l,{
"Letterink-NibData" = {
AngleInDegrees = 270;
};
}),
(565,75,l),
(565,325,l,{
"Letterink-NibData" = {
AngleInDegrees = 90;
};
}),
(802,325,l),
(802,401,l,{
"Letterink-NibData" = {
AngleInDegrees = 270;
};
}),
(565,401,l),
(565,610,l,{
"Letterink-NibData" = {
AngleInDegrees = 90;
};
}),
(900,610,l),
(900,686,l,{
"Letterink-NibData" = {
AngleInDegrees = 270;
};
}),
(456,686,l,{
"Letterink-NibData" = {
AngleInDegrees = 208.5766;
};
}),
(133,93,ls,{
"Letterink-NibData" = {
AngleInDegrees = 209.0546;
};
}),
(123,75,o),
(114,67,o),
(99,67,cs,{
"Letterink-NibData" = {
AngleInDegrees = 270;
};
}),
(88,67,o),
(76,72,o),
(66,86,c,{
"Letterink-NibData" = {
AngleInDegrees = 220.6013;
};
}),
(18,30,l,{
"Letterink-NibData" = {
AngleInDegrees = 145.7843;
};
}),
(35,5,o),
(66,-12,o),
(107,-12,cs,{
"Letterink-NibData" = {
AngleInDegrees = 90;
};
})
);
},
{
closed = 1;
nodes = (
(462,537,l,{
"Letterink-NibData" = {
AngleInDegrees = 23.19859;
};
}),
(483,586,l,{
"Letterink-NibData" = {
AngleInDegrees = 180;
};
}),
(483,296,l,{
"Letterink-NibData" = {
AngleInDegrees = 270;
};
}),
(330,296,l,{
"Letterink-NibData" = {
AngleInDegrees = 28.71031;
};
})
);
}
);
width = 962;
},
{
anchors = (
{
name = bottom;
pos = (530,0);
},
{
name = top;
pos = (662,673);
}
);
hints = (
{
name = _corner.caps_swash_diag;
options = 1;
origin = (0,0);
scale = (-1,1);
type = Corner;
}
);
layerId = m004;
shapes = (
{
closed = 1;
nodes = (
(329,58,l,{
"Letterink-NibData" = {
AngleInDegrees = "28.81079";
};
}),
(423,256,l,{
"Letterink-NibData" = {
AngleInDegrees = "90";
};
}),
(331,146,l,{
"Letterink-NibData" = {
AngleInDegrees = "90";
};
}),
(600,146,l,{
"Letterink-NibData" = {
AngleInDegrees = "180";
};
}),
(530,264,l,{
"Letterink-NibData" = {
AngleInDegrees = "180";
};
}),
(530,0,l,{
"Letterink-NibData" = {
AngleInDegrees = "90";
};
}),
(994,0,l),
(994,148,l,{
"Letterink-NibData" = {
AngleInDegrees = "270";
};
}),
(695,148,l),
(695,291,l,{
"Letterink-NibData" = {
AngleInDegrees = "90";
};
}),
(884,291,l),
(884,439,l,{
"Letterink-NibData" = {
AngleInDegrees = "270";
};
}),
(695,439,l),
(695,536,l,{
"Letterink-NibData" = {
AngleInDegrees = "90";
};
}),
(974,536,l),
(974,684,l,{
"Letterink-NibData" = {
AngleInDegrees = "270";
};
}),
(470,684,l,{
"Letterink-NibData" = {
AngleInDegrees = "209.70894";
};
}),
(188,143,l,{
"Letterink-NibData" = {
AngleInDegrees = "89.3704";
};
})
);
},
{
closed = 1;
nodes = (
(532,488,l,{
"Letterink-NibData" = {
AngleInDegrees = "23.62938";
};
}),
(530,449,l,{
"Letterink-NibData" = {
AngleInDegrees = "180";
};
}),
(530,275,l,{
"Letterink-NibData" = {
AngleInDegrees = "270";
};
}),
(600,296,l,{
"Letterink-NibData" = {
AngleInDegrees = "270";
};
}),
(412,296,l,{
"Letterink-NibData" = {
AngleInDegrees = "28.68615";
};
}),
(449,279,l,{
"Letterink-NibData" = {
AngleInDegrees = "28.68615";
};
})
);
}
);
width = 1004;
},
{
anchors = (
{
name = bottom;
pos = (543,0);
},
{
name = top;
pos = (554,673);
}
);
associatedMasterId = m004;
layerId = "80EF8790-0869-49FF-90A7-EBAC34F5F575";
name = "11 Jan 22, 13:30";
shapes = (
{
closed = 1;
nodes = (
(142,-12,o),
(179,8,o),
(197,44,cs,{
"Letterink-NibData" = {
AngleInDegrees = 26.8249;
};
}),
(286,220,l,{
"Letterink-NibData" = {
AngleInDegrees = 90;
};
}),
(483,220,l,{
"Letterink-NibData" = {
AngleInDegrees = 180;
};
}),
(483,-1,l,{
"Letterink-NibData" = {
AngleInDegrees = 90;
};
}),
(920,-1,l),
(920,75,l,{
"Letterink-NibData" = {
AngleInDegrees = 270;
};
}),
(565,75,l),
(565,325,l,{
"Letterink-NibData" = {
AngleInDegrees = 90;
};
}),
(802,325,l),
(802,401,l,{
"Letterink-NibData" = {
AngleInDegrees = 270;
};
}),
(565,401,l),
(565,610,l,{
"Letterink-NibData" = {
AngleInDegrees = 90;
};
}),
(900,610,l),
(900,686,l,{
"Letterink-NibData" = {
AngleInDegrees = 270;
};
}),
(456,686,l,{
"Letterink-NibData" = {
AngleInDegrees = 208.5766;
};
}),
(133,93,ls,{
"Letterink-NibData" = {
AngleInDegrees = 209.0546;
};
}),
(123,75,o),
(114,67,o),
(99,67,cs,{
"Letterink-NibData" = {
AngleInDegrees = 270;
};
}),
(88,67,o),
(76,72,o),
(66,86,c,{
"Letterink-NibData" = {
AngleInDegrees = 220.6013;
};
}),
(18,30,l,{
"Letterink-NibData" = {
AngleInDegrees = 145.7843;
};
}),
(35,5,o),
(66,-12,o),
(107,-12,cs,{
"Letterink-NibData" = {
AngleInDegrees = 90;
};
})
);
},
{
closed = 1;
nodes = (
(462,537,l,{
"Letterink-NibData" = {
AngleInDegrees = 23.19859;
};
}),
(483,586,l,{
"Letterink-NibData" = {
AngleInDegrees = 180;
};
}),
(483,296,l,{
"Letterink-NibData" = {
AngleInDegrees = 270;
};
}),
(330,296,l,{
"Letterink-NibData" = {
AngleInDegrees = 28.71031;
};
})
);
}
);
width = 962;
}
);
metricLeft = A.swsh;
userData = {
position = 422;
width = 61;
};
},
{
glyphname = B;
kernLeft = E;
kernRight = B;
layers = (
{
anchors = (
{
name = bottom;
pos = (328,0);
},
{
name = center;
pos = (338,368);
},
{
name = top;
pos = (328,684);
}
);
hints = (
{
name = _corner.caps_left;
origin = (0,18);
type = Corner;
}
);
layerId = "0CAF3BED-C4AC-4024-B3E1-4C69D1EF7EC0";
shapes = (
{
closed = 1;
nodes = (
(498,-10,o),
(591,63,o),
(591,190,cs),
(591,264,o),
(560,318,o),
(510,348,cs,{
"Letterink-NibData" = {
AngleInDegrees = 300.96376;
};
}),
(486,362,o),
(459,370,o),
(449,370,c,{
"Letterink-NibData" = {
AngleInDegrees = 71.56505;
};
}),
(460,374,o),
(476,377,o),
(493,385,cs,{
"Letterink-NibData" = {
AngleInDegrees = 63.43495;
};
}),
(537,407,o),
(561,453,o),
(561,511,cs),
(561,617,o),
(481,684,o),
(353,684,cs,{
"Letterink-NibData" = {
AngleInDegrees = 270;
};
}),
(127,684,l,{
"Letterink-NibData" = {
AngleInDegrees = 180;
};
}),
(127,606,l,{
"Letterink-NibData" = {
AngleInDegrees = 90;
};
}),
(354,606,l,{
"Letterink-NibData" = {
AngleInDegrees = 93.91825;
};
}),
(437,601,o),
(479,568,o),
(479,508,cs,{
"Letterink-NibData" = {
AngleInDegrees = 180;
};
}),
(479,443,o),
(430,401,o),
(352,401,cs,{
"Letterink-NibData" = {
AngleInDegrees = 270;
};
}),
(167,401,l,{
"Letterink-NibData" = {
AngleInDegrees = 180;
};
}),
(167,325,l,{
"Letterink-NibData" = {
AngleInDegrees = 90;
};
}),
(359,324,ls,{
"Letterink-NibData" = {
AngleInDegrees = 90;
};
}),
(452,324,o),
(510,273,o),
(510,188,cs,{
"Letterink-NibData" = {
AngleInDegrees = 180;
};
}),
(510,102,o),
(451,66,o),
(326,64,cs,{
"Letterink-NibData" = {
AngleInDegrees = 270;
};
}),
(290,63,o),
(247,65,o),
(209,71,c),
(209,642,l,{
"Letterink-NibData" = {
AngleInDegrees = 270;
};
}),
(127,642,l,{
"Letterink-NibData" = {
AngleInDegrees = 180;
};
}),
(127,2,l,{
"Letterink-NibData" = {
AngleInDegrees = 96.54629;
};
}),
(188,-5,ls,{
"Letterink-NibData" = {
AngleInDegrees = 96.70984;
};
}),
(209,-7,o),
(275,-10,o),
(313,-10,cs,{
"Letterink-NibData" = {
AngleInDegrees = 90;
};
})
);
}
);
width = 637;
},
{
anchors = (
{
name = bottom;
pos = (315,-2);
},
{
name = center;
pos = (332,367);
},
{
name = top;
pos = (315,684);
}
);
hints = (
{
name = _corner.caps_left;
origin = (0,18);
type = Corner;
}
);
layerId = "49C16FD3-6177-408B-A733-AEB3898BB77C";
shapes = (
{
closed = 1;
nodes = (
(464,-9,o),
(572,43,o),
(572,181,cs),
(572,254,o),
(535,315,o),
(465,349,cs,{
"Letterink-NibData" = {
AngleInDegrees = 305.53768;
};
}),
(454,354,o),
(430,361,o),
(402,366,c,{
"Letterink-NibData" = {
AngleInDegrees = 75.67728;
};
}),
(432,373,o),
(451,375,o),
(480,398,cs,{
"Letterink-NibData" = {
AngleInDegrees = 53.1301;
};
}),
(510,422,o),
(539,453,o),
(539,515,cs),
(539,633,o),
(446,684,o),
(342,684,cs,{
"Letterink-NibData" = {
AngleInDegrees = 270;
};
}),
(129,684,l,{
"Letterink-NibData" = {
AngleInDegrees = 180;
};
}),
(129,648,l,{
"Letterink-NibData" = {
AngleInDegrees = 90;
};
}),
(358,648,l,{
"Letterink-NibData" = {
AngleInDegrees = 93.81407;
};
}),
(449,641,o),
(500,598,o),
(500,519,cs,{
"Letterink-NibData" = {
AngleInDegrees = 180;
};
}),
(500,425,o),
(428,382,o),
(341,382,cs,{
"Letterink-NibData" = {
AngleInDegrees = 270;
};
}),
(155,382,l,{
"Letterink-NibData" = {
AngleInDegrees = 180;
};
}),
(155,346,l,{
"Letterink-NibData" = {
AngleInDegrees = 90;
};
}),
(348,346,ls,{
"Letterink-NibData" = {
AngleInDegrees = 90;
};
}),
(468,346,o),
(534,271,o),
(534,181,cs,{
"Letterink-NibData" = {
AngleInDegrees = 180;
};
}),
(534,78,o),
(450,26,o),
(334,26,cs,{
"Letterink-NibData" = {
AngleInDegrees = 270;
};
}),
(326,26,o),
(216,26,o),
(167,32,c),
(167,654,l,{
"Letterink-NibData" = {
AngleInDegrees = 270;
};
}),
(126,654,l,{
"Letterink-NibData" = {
AngleInDegrees = 90;
};
}),
(130,3,l,{
"Letterink-NibData" = {
AngleInDegrees = 98.65254;
};
}),
(172,-4,ls,{
"Letterink-NibData" = {
AngleInDegrees = 99.21103;
};
}),
(211,-10,o),
(333,-9,o),
(324,-9,cs,{
"Letterink-NibData" = {
AngleInDegrees = 90;
};
})
);
}
);
width = 628;
},
{
anchors = (
{
name = bottom;
pos = (386,-2);
},
{
name = center;
pos = (386,356);
},
{
name = top;
pos = (381,684);
}
);
hints = (
{
name = _corner.caps_left;
origin = (0,18);
type = Corner;
}
);
layerId = m004;
shapes = (
{
closed = 1;
nodes = (
(589,19,o),
(654,93,o),
(654,195,cs),
(654,254,o),
(621,313,o),
(576,339,cs),
(546,356,o),
(530,361,o),
(502,365,c,{
"Letterink-NibData" = {
AngleInDegrees = "77.90524000000001";
};
}),
(534,369,o),
(550,377,o),
(569,391,cs,{
"Letterink-NibData" = {
AngleInDegrees = "63.90458";
};
}),
(617,426,o),
(632,471,o),
(632,520,cs),
(632,617,o),
(548,686,o),
(415,686,cs,{
"Letterink-NibData" = {
AngleInDegrees = "270";
};
}),
(161,686,l,{
"Letterink-NibData" = {
AngleInDegrees = "180";
};
}),
(161,535,l),
(415,536,ls,{
"Letterink-NibData" = {
AngleInDegrees = "90";
};
}),
(450,536,o),
(471,513,o),
(471,485,cs,{
"Letterink-NibData" = {
AngleInDegrees = "180";
};
}),
(471,451,o),
(448,424,o),
(421,424,cs,{
"Letterink-NibData" = {
AngleInDegrees = "269.3338";
};
}),
(296,424,l,{
"Letterink-NibData" = {
AngleInDegrees = "180.77422";
};
}),
(296,289,l,{
"Letterink-NibData" = {
AngleInDegrees = "90";
};
}),
(412,289,ls,{
"Letterink-NibData" = {
AngleInDegrees = "90";
};
}),
(460,289,o),
(499,258,o),
(499,211,cs,{
"Letterink-NibData" = {
AngleInDegrees = "180";
};
}),
(499,158,o),
(462,132,o),
(388,132,cs,{
"Letterink-NibData" = {
AngleInDegrees = "270";
};
}),
(365,132,o),
(351,133,o),
(326,137,c),
(326,551,l,{
"Letterink-NibData" = {
AngleInDegrees = "90";
};
}),
(161,552,l),
(161,6,l,{
"Letterink-NibData" = {
AngleInDegrees = "96.44159999999999";
};
}),
(213,-2,ls,{
"Letterink-NibData" = {
AngleInDegrees = "96.65443";
};
}),
(306,-16,o),
(415,-17,o),
(481,-3,cs,{
"Letterink-NibData" = {
AngleInDegrees = "90";
};
})
);
}
);
width = 682;
}
);
metricLeft = E;
unicode = 66;
userData = {
position = 514;
width = 59;
};
},
{
glyphname = B.ss01;
kernLeft = L;
kernRight = B;
layers = (
{
anchors = (
{
name = bottom;
pos = (285,0);
},
{
name = center;
pos = (295,370);
},
{
name = top;
pos = (285,684);
}
);
layerId = "0CAF3BED-C4AC-4024-B3E1-4C69D1EF7EC0";
shapes = (
{
closed = 1;
nodes = (
(455,-10,o),
(548,63,o),
(548,190,cs),
(548,264,o),
(517,318,o),
(467,348,cs,{
"Letterink-NibData" = {
AngleInDegrees = 300.96376;
};
}),
(440,364,o),
(408,368,o),
(396,370,c,{
"Letterink-NibData" = {
AngleInDegrees = 71.56505;
};
}),
(410,372,o),
(430,375,o),
(450,385,cs,{
"Letterink-NibData" = {
AngleInDegrees = 63.43495;
};
}),
(494,407,o),
(518,453,o),
(518,511,cs),
(518,617,o),
(438,684,o),
(310,684,cs,{
"Letterink-NibData" = {
AngleInDegrees = 270;
};
}),
(84,684,l,{
"Letterink-NibData" = {
AngleInDegrees = 180;
};
}),
(84,606,l,{
"Letterink-NibData" = {
AngleInDegrees = 90;
};
}),
(311,606,l,{
"Letterink-NibData" = {
AngleInDegrees = 93.91825;
};
}),
(394,601,o),
(436,568,o),
(436,508,cs,{
"Letterink-NibData" = {
AngleInDegrees = 180;
};
}),
(436,443,o),
(387,401,o),
(309,401,cs,{
"Letterink-NibData" = {
AngleInDegrees = 270;
};
}),
(124,401,l,{
"Letterink-NibData" = {
AngleInDegrees = 180;
};
}),
(124,325,l,{
"Letterink-NibData" = {
AngleInDegrees = 90;
};
}),
(316,324,ls,{
"Letterink-NibData" = {
AngleInDegrees = 90;
};
}),
(409,324,o),
(467,273,o),
(467,188,cs,{
"Letterink-NibData" = {
AngleInDegrees = 180;
};
}),
(467,102,o),
(408,66,o),
(283,64,cs,{
"Letterink-NibData" = {
AngleInDegrees = 270;
};
}),
(247,63,o),
(204,65,o),
(166,71,c),
(166,642,l,{
"Letterink-NibData" = {
AngleInDegrees = 270;
};
}),
(84,642,l,{
"Letterink-NibData" = {
AngleInDegrees = 180;
};
}),
(84,2,l,{
"Letterink-NibData" = {
AngleInDegrees = 96.54629;
};
}),
(145,-5,ls,{
"Letterink-NibData" = {
AngleInDegrees = 96.70984;
};
}),
(166,-7,o),
(232,-10,o),
(270,-10,cs,{
"Letterink-NibData" = {
AngleInDegrees = 90;
};
})
);
}
);
width = 594;
},
{
anchors = (
{
name = bottom;
pos = (289,0);
},
{
name = center;
pos = (283,363);
},
{
name = top;
pos = (289,684);
}
);
layerId = "49C16FD3-6177-408B-A733-AEB3898BB77C";
shapes = (
{
closed = 1;
nodes = (
(458,-9,o),
(546,58,o),
(546,177,cs),
(546,256,o),
(507,317,o),
(449,346,cs,{
"Letterink-NibData" = {
AngleInDegrees = 305.53768;
};
}),
(427,356,o),
(401,361,o),
(376,365,c,{
"Letterink-NibData" = {
AngleInDegrees = 75.67728;
};
}),
(404,369,o),
(433,380,o),
(462,403,cs,{
"Letterink-NibData" = {
AngleInDegrees = 53.1301;
};
}),
(496,430,o),
(513,467,o),
(513,516,cs),
(513,619,o),
(437,684,o),
(316,684,cs,{
"Letterink-NibData" = {
AngleInDegrees = 270;
};
}),
(100,684,l,{
"Letterink-NibData" = {
AngleInDegrees = 180;
};
}),
(100,648,l,{
"Letterink-NibData" = {
AngleInDegrees = 90;
};
}),
(332,648,l,{
"Letterink-NibData" = {
AngleInDegrees = 93.81407;
};
}),
(425,641,o),
(474,596,o),
(474,520,cs,{
"Letterink-NibData" = {
AngleInDegrees = 180;
};
}),
(474,435,o),
(413,382,o),
(315,382,cs,{
"Letterink-NibData" = {
AngleInDegrees = 270;
};
}),
(133,382,l,{
"Letterink-NibData" = {
AngleInDegrees = 180;
};
}),
(133,347,l,{
"Letterink-NibData" = {
AngleInDegrees = 90;
};
}),
(322,347,ls,{
"Letterink-NibData" = {
AngleInDegrees = 90;
};
}),
(432,347,o),
(508,276,o),
(508,179,cs,{
"Letterink-NibData" = {
AngleInDegrees = 180;
};
}),
(508,63,o),
(432,26,o),
(279,26,cs,{
"Letterink-NibData" = {
AngleInDegrees = 270;
};
}),
(244,26,o),
(167,29,o),
(141,32,c),
(141,654,l,{
"Letterink-NibData" = {
AngleInDegrees = 270;
};
}),
(100,654,l,{
"Letterink-NibData" = {
AngleInDegrees = 90;
};
}),
(101,3,l,{
"Letterink-NibData" = {
AngleInDegrees = 98.65254;
};
}),
(146,-4,ls,{
"Letterink-NibData" = {
AngleInDegrees = 99.21103;
};
}),
(185,-10,o),
(307,-9,o),
(323,-9,cs,{
"Letterink-NibData" = {
AngleInDegrees = 90;
};
})
);
}
);
width = 602;
},
{
anchors = (
{
name = bottom;
pos = (283,0);
},
{
name = center;
pos = (283,356);
},
{
name = top;
pos = (283,684);
}
);
layerId = m004;
shapes = (
{
closed = 1;
nodes = (
(486,19,o),
(551,93,o),
(551,195,cs),
(551,254,o),
(518,313,o),
(473,339,cs),
(443,356,o),
(427,361,o),
(399,365,c,{
"Letterink-NibData" = {
AngleInDegrees = "77.90524000000001";
};
}),
(431,369,o),
(447,377,o),
(466,391,cs,{
"Letterink-NibData" = {
AngleInDegrees = "63.90458";
};
}),
(514,426,o),
(529,471,o),
(529,520,cs),
(529,617,o),
(445,686,o),
(312,686,cs,{
"Letterink-NibData" = {
AngleInDegrees = "270";
};
}),
(58,686,l,{
"Letterink-NibData" = {
AngleInDegrees = "180";
};
}),
(58,535,l),
(312,536,ls,{
"Letterink-NibData" = {
AngleInDegrees = "90";
};
}),
(347,536,o),
(368,513,o),
(368,485,cs,{
"Letterink-NibData" = {
AngleInDegrees = "180";
};
}),
(368,451,o),
(345,424,o),
(318,424,cs,{
"Letterink-NibData" = {
AngleInDegrees = "269.3338";
};
}),
(193,424,l,{
"Letterink-NibData" = {
AngleInDegrees = "180.77422";
};
}),
(193,289,l,{
"Letterink-NibData" = {
AngleInDegrees = "90";
};
}),
(309,289,ls,{
"Letterink-NibData" = {
AngleInDegrees = "90";
};
}),
(357,289,o),
(396,258,o),
(396,211,cs,{
"Letterink-NibData" = {
AngleInDegrees = "180";
};
}),
(396,158,o),
(359,132,o),
(285,132,cs,{
"Letterink-NibData" = {
AngleInDegrees = "270";
};
}),
(262,132,o),
(248,133,o),
(223,137,c),
(223,551,l,{
"Letterink-NibData" = {
AngleInDegrees = "90";
};
}),
(58,552,l),
(58,6,l,{
"Letterink-NibData" = {
AngleInDegrees = "96.44159999999999";
};
}),
(110,-2,ls,{
"Letterink-NibData" = {
AngleInDegrees = "96.65443";
};
}),
(203,-16,o),
(312,-17,o),
(378,-3,cs,{
"Letterink-NibData" = {
AngleInDegrees = "90";
};
})
);
}
);
width = 579;
}
);
metricLeft = N.ss01;
metricRight = B;
userData = {
position = 494;
width = 59;
};
},
{
glyphname = B.swsh;
kernLeft = Swash;
kernRight = B;
layers = (
{
anchors = (
{
name = bottom;
pos = (350,0);
},
{
name = center;
pos = (360,369);
},
{
name = top;
pos = (350,684);
}
);
background = {
hints = (
{
name = _corner.caps_swash;
origin = (0,18);
type = Corner;
}
);
shapes = (
{
closed = 1;
nodes = (
(524,-10,o),
(603,76,o),
(603,187,cs),
(603,254,o),
(575,306,o),
(536,335,cs,{
"Letterink-NibData" = {
AngleInDegrees = 306.46923;
};
}),
(513,352,o),
(474,363,o),
(451,363,c,{
"Letterink-NibData" = {
AngleInDegrees = 78.69007;
};
}),
(471,367,o),
(497,368,o),
(524,393,cs,{
"Letterink-NibData" = {
AngleInDegrees = 47.91084;
};
}),
(555,421,o),
(572,458,o),
(572,506,cs),
(572,621,o),
(483,685,o),
(364,685,cs,{
"Letterink-NibData" = {
AngleInDegrees = 270;
};
}),
(128,685,l,{
"Letterink-NibData" = {
AngleInDegrees = 180;
};
}),
(128,609,l,{
"Letterink-NibData" = {
AngleInDegrees = 90;
};
}),
(377,609,ls,{
"Letterink-NibData" = {
AngleInDegrees = 90;
};
}),
(447,609,o),
(490,571,o),
(490,509,cs,{
"Letterink-NibData" = {
AngleInDegrees = 180;
};
}),
(490,434,o),
(437,401,o),
(363,401,cs,{
"Letterink-NibData" = {
AngleInDegrees = 270;
};
}),
(276,401,l,{
"Letterink-NibData" = {
AngleInDegrees = 180;
};
}),
(276,324,l,{
"Letterink-NibData" = {
AngleInDegrees = 90;
};
}),
(370,324,ls,{
"Letterink-NibData" = {
AngleInDegrees = 90;
};
}),
(451,324,o),
(521,278,o),
(521,191,cs,{
"Letterink-NibData" = {
AngleInDegrees = 180;
};
}),
(521,97,o),
(457,66,o),
(341,66,cs,{
"Letterink-NibData" = {
AngleInDegrees = 270;
};
}),
(322,66,o),
(311,67,o),
(229,71,c),
(229,561,l,{
"Letterink-NibData" = {
AngleInDegrees = 270;
};
}),
(147,561,l,{
"Letterink-NibData" = {
AngleInDegrees = 180;
};
}),
(147,2,l,{
"Letterink-NibData" = {
AngleInDegrees = 96.34019;
};
}),
(210,-5,ls,{
"Letterink-NibData" = {
AngleInDegrees = 97.12502;
};
}),
(234,-8,o),
(288,-10,o),
(335,-10,cs,{
"Letterink-NibData" = {
AngleInDegrees = 90;
};
})
);
}
);
};
hints = (
{
name = _corner.caps_swash;
options = 2;
origin = (0,18);
type = Corner;
}
);
layerId = "0CAF3BED-C4AC-4024-B3E1-4C69D1EF7EC0";
shapes = (
{
closed = 1;
nodes = (
(520,-10,o),
(613,63,o),
(613,190,cs),
(613,264,o),
(582,318,o),
(536,345,cs,{
"Letterink-NibData" = {
AngleInDegrees = "300.96376";
};
}),
(507,363,o),
(473,369,o),
(461,370,c,{
"Letterink-NibData" = {
AngleInDegrees = "71.56505";
};
}),
(474,373,o),
(495,375,o),
(516,386,cs,{
"Letterink-NibData" = {
AngleInDegrees = "63.43495";
};
}),
(559,407,o),
(583,453,o),
(583,511,cs),
(583,617,o),
(503,684,o),
(375,684,cs,{
"Letterink-NibData" = {
AngleInDegrees = "270";
};
}),
(149,684,l,{
"Letterink-NibData" = {
AngleInDegrees = "180";
};
}),
(149,607,l,{
"Letterink-NibData" = {
AngleInDegrees = "90";
};
}),
(376,607,l,{
"Letterink-NibData" = {
AngleInDegrees = "93.91825";
};
}),
(459,602,o),
(501,568,o),
(501,508,cs,{
"Letterink-NibData" = {
AngleInDegrees = "180";
};
}),
(501,443,o),
(452,401,o),
(374,401,cs,{
"Letterink-NibData" = {
AngleInDegrees = "270";
};
}),
(279,401,l,{
"Letterink-NibData" = {
AngleInDegrees = "180";
};
}),
(279,325,l,{
"Letterink-NibData" = {
AngleInDegrees = "90";
};
}),
(381,324,ls,{
"Letterink-NibData" = {
AngleInDegrees = "90";
};
}),
(474,323,o),
(532,273,o),
(532,193,cs,{
"Letterink-NibData" = {
AngleInDegrees = "180";
};
}),
(532,112,o),
(473,66,o),
(344,64,cs,{
"Letterink-NibData" = {
AngleInDegrees = "270";
};
}),
(312,63,o),
(269,65,o),
(231,71,c),
(231,560,l,{
"Letterink-NibData" = {
AngleInDegrees = "270";
};
}),
(149,560,l,{
"Letterink-NibData" = {
AngleInDegrees = "180";
};
}),
(149,2,l,{
"Letterink-NibData" = {
AngleInDegrees = "96.54629";
};
}),
(210,-5,ls,{
"Letterink-NibData" = {
AngleInDegrees = "96.70984";
};
}),
(231,-7,o),
(297,-10,o),
(335,-10,cs,{
"Letterink-NibData" = {
AngleInDegrees = "90";
};
})
);
}
);
width = 646;
},
{
anchors = (
{
name = bottom;
pos = (293,0);
},
{
name = center;
pos = (311,367);
},
{
name = top;
pos = (293,684);
}
);
background = {
hints = (
{
name = _corner.caps_swash;
origin = (0,18);
type = Corner;
}
);
shapes = (
{
closed = 1;
nodes = (
(487,-9,o),
(581,47,o),
(581,178,cs),
(581,266,o),
(539,319,o),
(475,351,cs,{
"Letterink-NibData" = {
AngleInDegrees = 296.56505;
};
}),
(467,355,o),
(436,362,o),
(421,365,c,{
"Letterink-NibData" = {
AngleInDegrees = 80.83765;
};
}),
(452,370,o),
(470,380,o),
(472,381,cs,{
"Letterink-NibData" = {
AngleInDegrees = 63.43495;
};
}),
(522,406,o),
(550,452,o),
(550,514,cs),
(550,620,o),
(459,685,o),
(352,685,cs,{
"Letterink-NibData" = {
AngleInDegrees = 270;
};
}),
(114,685,l,{
"Letterink-NibData" = {
AngleInDegrees = 180;
};
}),
(114,645,l,{
"Letterink-NibData" = {
AngleInDegrees = 90;
};
}),
(366,645,l,{
"Letterink-NibData" = {
AngleInDegrees = 93.40644;
};
}),
(450,640,o),
(507,593,o),
(507,517,cs,{
"Letterink-NibData" = {
AngleInDegrees = 180;
};
}),
(507,425,o),
(437,383,o),
(351,383,cs,{
"Letterink-NibData" = {
AngleInDegrees = 270;
};
}),
(269,383,l,{
"Letterink-NibData" = {
AngleInDegrees = 180;
};
}),
(269,345,l,{
"Letterink-NibData" = {
AngleInDegrees = 90;
};
}),
(358,345,ls,{
"Letterink-NibData" = {
AngleInDegrees = 90;
};
}),
(453,345,o),
(539,289,o),
(539,182,cs,{
"Letterink-NibData" = {
AngleInDegrees = 180;
};
}),
(539,78,o),
(459,29,o),
(326,29,cs,{
"Letterink-NibData" = {
AngleInDegrees = 270;
};
}),
(308,29,o),
(263,31,o),
(187,34,c),
(187,591,l,{
"Letterink-NibData" = {
AngleInDegrees = 270;
};
}),
(145,591,l,{
"Letterink-NibData" = {
AngleInDegrees = 180;
};
}),
(145,1,l,{
"Letterink-NibData" = {
AngleInDegrees = 94.96974;
};
}),
(191,-3,ls,{
"Letterink-NibData" = {
AngleInDegrees = 94.92711;
};
}),
(249,-8,o),
(276,-9,o),
(306,-9,cs,{
"Letterink-NibData" = {
AngleInDegrees = 90;
};
})
);
}
);
};
hints = (
{
name = _corner.caps_swash;
origin = (0,18);
type = Corner;
}
);
layerId = "49C16FD3-6177-408B-A733-AEB3898BB77C";
shapes = (
{
closed = 1;
nodes = (
(500,-9,o),
(588,58,o),
(588,177,cs),
(588,256,o),
(549,319,o),
(490,348,cs,{
"Letterink-NibData" = {
AngleInDegrees = "305.53768";
};
}),
(469,358,o),
(443,365,o),
(418,369,c,{
"Letterink-NibData" = {
AngleInDegrees = "75.67728";
};
}),
(446,376,o),
(475,384,o),
(505,408,cs,{
"Letterink-NibData" = {
AngleInDegrees = "53.1301";
};
}),
(538,435,o),
(555,467,o),
(555,516,cs),
(555,619,o),
(479,684,o),
(358,684,cs,{
"Letterink-NibData" = {
AngleInDegrees = "270";
};
}),
(142,684,l,{
"Letterink-NibData" = {
AngleInDegrees = "180";
};
}),
(142,648,l,{
"Letterink-NibData" = {
AngleInDegrees = "90";
};
}),
(374,648,l,{
"Letterink-NibData" = {
AngleInDegrees = "93.81407";
};
}),
(467,641,o),
(516,596,o),
(516,520,cs,{
"Letterink-NibData" = {
AngleInDegrees = "180";
};
}),
(516,435,o),
(455,382,o),
(357,382,cs,{
"Letterink-NibData" = {
AngleInDegrees = "270";
};
}),
(268,382,l,{
"Letterink-NibData" = {
AngleInDegrees = "180";
};
}),
(268,347,l,{
"Letterink-NibData" = {
AngleInDegrees = "90";
};
}),
(364,347,ls,{
"Letterink-NibData" = {
AngleInDegrees = "90";
};
}),
(466,347,o),
(550,280,o),
(550,183,cs,{
"Letterink-NibData" = {
AngleInDegrees = "180";
};
}),
(550,76,o),
(474,26,o),
(339,26,cs,{
"Letterink-NibData" = {
AngleInDegrees = "270";
};
}),
(287,26,o),
(209,29,o),
(183,32,c),
(183,597,l,{
"Letterink-NibData" = {
AngleInDegrees = "270";
};
}),
(142,597,l,{
"Letterink-NibData" = {
AngleInDegrees = "179.91332";
};
}),
(143,3,l,{
"Letterink-NibData" = {
AngleInDegrees = "98.65254";
};
}),
(188,-4,ls,{
"Letterink-NibData" = {
AngleInDegrees = "99.21102999999999";
};
}),
(227,-10,o),
(349,-9,o),
(365,-9,cs,{
"Letterink-NibData" = {
AngleInDegrees = "90";
};
})
);
}
);
width = 624;
},
{
anchors = (
{
name = bottom;
pos = (384,0);
},
{
name = center;
pos = (384,355);
},
{
name = top;
pos = (384,684);
}
);
hints = (
{
name = _corner.caps_swash;
options = 2;
origin = (0,18);
type = Corner;
}
);
layerId = m004;
shapes = (
{
closed = 1;
nodes = (
(611,19,o),
(676,93,o),
(676,195,cs),
(676,254,o),
(643,313,o),
(598,339,cs),
(568,356,o),
(552,361,o),
(524,365,c,{
"Letterink-NibData" = {
AngleInDegrees = "77.90524000000001";
};
}),
(556,369,o),
(572,377,o),
(591,391,cs,{
"Letterink-NibData" = {
AngleInDegrees = "63.90458";
};
}),
(639,426,o),
(654,471,o),
(654,520,cs),
(654,617,o),
(570,686,o),
(437,686,cs,{
"Letterink-NibData" = {
AngleInDegrees = "270";
};
}),
(183,686,l,{
"Letterink-NibData" = {
AngleInDegrees = "180";
};
}),
(183,538,l),
(437,539,ls,{
"Letterink-NibData" = {
AngleInDegrees = "90";
};
}),
(472,539,o),
(493,513,o),
(493,485,cs,{
"Letterink-NibData" = {
AngleInDegrees = "180";
};
}),
(493,451,o),
(470,424,o),
(443,424,cs,{
"Letterink-NibData" = {
AngleInDegrees = "269.3338";
};
}),
(388,424,l,{
"Letterink-NibData" = {
AngleInDegrees = "180.77422";
};
}),
(388,289,l,{
"Letterink-NibData" = {
AngleInDegrees = "90";
};
}),
(434,289,ls,{
"Letterink-NibData" = {
AngleInDegrees = "90";
};
}),
(482,289,o),
(521,258,o),
(521,211,cs,{
"Letterink-NibData" = {
AngleInDegrees = "180";
};
}),
(521,158,o),
(484,132,o),
(410,132,cs,{
"Letterink-NibData" = {
AngleInDegrees = "270";
};
}),
(387,132,o),
(373,133,o),
(348,137,c),
(348,498,l,{
"Letterink-NibData" = {
AngleInDegrees = "90";
};
}),
(183,499,l),
(183,6,l,{
"Letterink-NibData" = {
AngleInDegrees = "96.44159999999999";
};
}),
(235,-2,ls,{
"Letterink-NibData" = {
AngleInDegrees = "96.65443";
};
}),
(328,-16,o),
(437,-17,o),
(503,-3,cs,{
"Letterink-NibData" = {
AngleInDegrees = "90";
};
})
);
}
);
width = 704;
}
);
metricLeft = E.swsh;
userData = {
position = 514;
width = 59;
};
},
{
glyphname = C;
kernLeft = O;
kernRight = C;
layers = (
{
anchors = (
{
name = bottom;
pos = (390,-5);
},
{
name = top;
pos = (389,689);
}
);
background = {
shapes = (
{
closed = 1;
nodes = (
(581,-25,o),
(727,126,o),
(727,326,cs),
(727,355,ls),
(727,548,o),
(575,702,o),
(385,702,cs,{
"Letterink-NibData" = {
AngleInDegrees = "270";
};
}),
(195,702,o),
(44,548,o),
(44,355,cs,{
"Letterink-NibData" = {
AngleInDegrees = "180";
};
}),
(44,326,ls,{
"Letterink-NibData" = {
AngleInDegrees = "180";
};
}),
(44,126,o),
(188,-19,o),
(389,-22,cs,{
"Letterink-NibData" = {
AngleInDegrees = "90.89517371732774";
};
})
);
},
{
closed = 1;
nodes = (
(238,54,o),
(126,170,o),
(126,326,cs),
(126,355,ls),
(126,504,o),
(240,626,o),
(384,626,cs,{
"Letterink-NibData" = {
AngleInDegrees = "90";
};
}),
(530,626,o),
(645,504,o),
(645,355,cs,{
"Letterink-NibData" = {
AngleInDegrees = "180";
};
}),
(645,326,ls,{
"Letterink-NibData" = {
AngleInDegrees = "180";
};
}),
(645,170,o),
(533,54,o),
(386,54,cs,{
"Letterink-NibData" = {
AngleInDegrees = "270";
};
})
);
}
);
};
layerId = "0CAF3BED-C4AC-4024-B3E1-4C69D1EF7EC0";
shapes = (
{
closed = 1;
nodes = (
(473,443,l),
(492,429,o),
(513,422,o),
(534,422,cs),
(590,422,o),
(634,472,o),
(634,536,cs),
(634,633,o),
(534,703,o),
(395,703,cs),
(189,703,o),
(44,553,o),
(44,337,cs),
(44,132,o),
(187,-19,o),
(387,-19,cs),
(504,-19,o),
(606,33,o),
(660,121,c),
(597,159,l),
(556,95,o),
(478,55,o),
(385,55,cs),
(233,55,o),
(124,173,o),
(124,338,cs),
(124,511,o),
(232,627,o),
(393,627,cs),
(490,627,o),
(560,588,o),
(560,534,cs),
(560,511,o),
(550,496,o),
(534,496,cs),
(527,496,o),
(519,498,o),
(515,501,c)
);
}
);
width = 700;
},
{
anchors = (
{
name = bottom;
pos = (402,-4);
},
{
name = top;
pos = (404,688);
}
);
background = {
shapes = (
{
closed = 1;
nodes = (
(598,-14,o),
(740,131,o),
(740,331,cs),
(740,350,ls),
(740,550,o),
(592,702,o),
(398,702,cs,{
"Letterink-NibData" = {
AngleInDegrees = "270";
};
}),
(204,702,o),
(58,551,o),
(58,350,cs,{
"Letterink-NibData" = {
AngleInDegrees = "180";
};
}),
(58,331,ls,{
"Letterink-NibData" = {
AngleInDegrees = "180";
};
}),
(58,133,o),
(205,-14,o),
(402,-14,cs,{
"Letterink-NibData" = {
AngleInDegrees = "90";
};
})
);
},
{
closed = 1;
nodes = (
(228,24,o),
(100,156,o),
(100,331,cs),
(100,350,ls),
(100,526,o),
(229,662,o),
(397,662,cs,{
"Letterink-NibData" = {
AngleInDegrees = "90";
};
}),
(566,662,o),
(698,526,o),
(698,350,cs,{
"Letterink-NibData" = {
AngleInDegrees = "180";
};
}),
(698,331,ls,{
"Letterink-NibData" = {
AngleInDegrees = "180";
};
}),
(698,156,o),
(569,24,o),
(399,24,cs,{
"Letterink-NibData" = {
AngleInDegrees = "270";
};
})
);
}
);
};
layerId = "49C16FD3-6177-408B-A733-AEB3898BB77C";
shapes = (
{
closed = 1;
nodes = (
(506,464,l),
(523,452,o),
(542,447,o),
(559,447,cs),
(605,447,o),
(642,485,o),
(642,542,cs),
(642,614,o),
(562,699,o),
(404,699,cs),
(209,699,o),
(56,555,o),
(56,327,cs),
(56,127,o),
(201,-10,o),
(400,-10,cs),
(520,-10,o),
(625,47,o),
(671,130,c),
(641,148,l),
(599,76,o),
(506,26,o),
(400,26,cs),
(227,26,o),
(94,148,o),
(94,327,cs),
(94,532,o),
(228,663,o),
(404,663,cs),
(498,663,o),
(606,623,o),
(606,542,cs),
(606,518,o),
(592,483,o),
(560,483,cs),
(551,483,o),
(536,485,o),
(526,493,c)
);
}
);
width = 721;
},
{
anchors = (
{
name = bottom;
pos = (384,-29);
},
{
name = top;
pos = (384,723);
}
);
associatedMasterId = "49C16FD3-6177-408B-A733-AEB3898BB77C";
layerId = "9A6A7639-79A9-4EC5-AE88-1E69E535A513";
name = "3 Jan 22, 15:02";
shapes = (
{
closed = 1;
nodes = (
(504,-22,o),
(607,20,o),
(676,118,c,{
"Letterink-NibData" = {
AngleInDegrees = 307.18471;
};
}),
(647,140,l,{
"Letterink-NibData" = {
AngleInDegrees = 215.75389;
};
}),
(593,65,o),
(500,18,o),
(401,18,cs,{
"Letterink-NibData" = {
AngleInDegrees = 270;
};
}),
(226,18,o),
(102,167,o),
(102,335,cs),
(102,508,o),
(235,665,o),
(405,665,cs,{
"Letterink-NibData" = {
AngleInDegrees = 90;
};
}),
(488,665,o),
(595,637,o),
(595,558,cs,{
"Letterink-NibData" = {
AngleInDegrees = 180;
};
}),
(595,531,o),
(582,510,o),
(559,510,cs,{
"Letterink-NibData" = {
AngleInDegrees = 270;
};
}),
(551,510,o),
(536,515,o),
(529,522,c,{
"Letterink-NibData" = {
AngleInDegrees = 217.99873;
};
}),
(504,490,l,{
"Letterink-NibData" = {
AngleInDegrees = 132.27369;
};
}),
(515,480,o),
(540,472,o),
(556,472,cs,{
"Letterink-NibData" = {
AngleInDegrees = 90;
};
}),
(603,472,o),
(635,510,o),
(635,562,cs),
(635,661,o),
(517,706,o),
(413,706,cs,{
"Letterink-NibData" = {
AngleInDegrees = 270;
};
}),
(211,706,o),
(60,535,o),
(60,335,cs,{
"Letterink-NibData" = {
AngleInDegrees = 180;
};
}),
(60,140,o),
(204,-22,o),
(402,-22,cs,{
"Letterink-NibData" = {
AngleInDegrees = 90;
};
})
);
}
);
width = 720;
},
{
anchors = (
{
name = bottom;
pos = (387,-9);
},
{
name = top;
pos = (387,703);
}
);
associatedMasterId = "0CAF3BED-C4AC-4024-B3E1-4C69D1EF7EC0";
layerId = "354B442F-650F-4F84-82F8-D7A6B1A052DE";
name = "3 Jan 22, 15:22";
shapes = (
{
closed = 1;
nodes = (
(533,-19,o),
(637,45,o),
(684,146,c,{
"Letterink-NibData" = {
AngleInDegrees = 296.92768;
};
}),
(621,178,l,{
"Letterink-NibData" = {
AngleInDegrees = 204.38637;
};
}),
(587,103,o),
(498,52,o),
(401,52,cs,{
"Letterink-NibData" = {
AngleInDegrees = 270;
};
}),
(250,52,o),
(135,178,o),
(135,340,cs),
(135,509,o),
(259,632,o),
(399,632,cs,{
"Letterink-NibData" = {
AngleInDegrees = 90;
};
}),
(458,632,o),
(562,610,o),
(562,547,cs,{
"Letterink-NibData" = {
AngleInDegrees = 180;
};
}),
(562,530,o),
(554,517,o),
(538,517,cs,{
"Letterink-NibData" = {
AngleInDegrees = 270;
};
}),
(526,517,o),
(513,525,o),
(506,534,c,{
"Letterink-NibData" = {
AngleInDegrees = 218.25442;
};
}),
(465,482,l,{
"Letterink-NibData" = {
AngleInDegrees = 143.53076;
};
}),
(482,459,o),
(508,445,o),
(538,445,cs,{
"Letterink-NibData" = {
AngleInDegrees = 90;
};
}),
(591,445,o),
(637,490,o),
(637,551,cs),
(637,642,o),
(532,706,o),
(404,706,cs,{
"Letterink-NibData" = {
AngleInDegrees = 270;
};
}),
(197,706,o),
(53,539,o),
(53,341,cs,{
"Letterink-NibData" = {
AngleInDegrees = 180;
};
}),
(53,147,o),
(190,-26,o),
(404,-22,cs,{
"Letterink-NibData" = {
AngleInDegrees = 88.66778;
};
})
);
}
);
width = 720;
},
{
anchors = (
{
name = bottom;
pos = (390,-29);
},
{
name = top;
pos = (390,723);
}
);
associatedMasterId = "49C16FD3-6177-408B-A733-AEB3898BB77C";
background = {
shapes = (
{
closed = 1;
nodes = (
(510,-22,o),
(613,20,o),
(682,118,c),
(653,140,l),
(599,65,o),
(506,18,o),
(407,18,cs),
(232,18,o),
(108,167,o),
(108,335,cs),
(108,508,o),
(241,665,o),
(411,665,cs),
(494,665,o),
(601,637,o),
(601,558,cs),
(601,531,o),
(588,510,o),
(565,510,cs),
(557,510,o),
(542,515,o),
(535,522,c),
(510,490,l),
(521,480,o),
(546,472,o),
(562,472,cs),
(609,472,o),
(641,510,o),
(641,562,cs),
(641,661,o),
(523,706,o),
(419,706,cs),
(217,706,o),
(66,535,o),
(66,335,cs),
(66,140,o),
(210,-22,o),
(408,-22,cs)
);
}
);
};
layerId = "4473E775-5B50-49F8-862E-9DFFC95B4874";
name = "5 Jan 22, 07:44";
shapes = (
{
attr = {
strokeHeight = 38;
strokeWidth = 42;
};
closed = 0;
nodes = (
(518,484,l,{
"Letterink-NibData" = {
AngleInDegrees = 116.56505;
};
}),
(528,479,o),
(538,477,o),
(549,477,cs,{
"Letterink-NibData" = {
AngleInDegrees = 91.50744;
};
}),
(587,476,o),
(613,516,o),
(613,556,cs),
(613,630,o),
(519,690,o),
(395,684,cs,{
"Letterink-NibData" = {
AngleInDegrees = 267.08916;
};
}),
(218,675,o),
(84,532,o),
(84,330,cs,{
"Letterink-NibData" = {
AngleInDegrees = 180;
};
}),
(84,136,o),
(219,0,o),
(409,0,cs,{
"Letterink-NibData" = {
AngleInDegrees = 90;
};
}),
(507,0,o),
(602,52,o),
(648,130,c,{
"Letterink-NibData" = {
AngleInDegrees = 30.52971;
};
})
);
}
);
width = 726;
},
{
anchors = (
{
name = bottom;
pos = (407,-10);
},
{
name = top;
pos = (390,699);
}
);
background = {
shapes = (
{
closed = 1;
nodes = (
(587,-25,o),
(733,126,o),
(733,326,cs),
(733,355,ls),
(733,548,o),
(581,702,o),
(391,702,cs,{
"Letterink-NibData" = {
AngleInDegrees = "270";
};
}),
(201,702,o),
(50,548,o),
(50,355,cs,{
"Letterink-NibData" = {
AngleInDegrees = "180";
};
}),
(50,326,ls,{
"Letterink-NibData" = {
AngleInDegrees = "180";
};
}),
(50,126,o),
(194,-19,o),
(395,-22,cs,{
"Letterink-NibData" = {
AngleInDegrees = "90.89517371732774";
};
})
);
},
{
closed = 1;
nodes = (
(244,54,o),
(132,170,o),
(132,326,cs),
(132,355,ls),
(132,504,o),
(246,626,o),
(390,626,cs,{
"Letterink-NibData" = {
AngleInDegrees = "90";
};
}),
(536,626,o),
(651,504,o),
(651,355,cs,{
"Letterink-NibData" = {
AngleInDegrees = "180";
};
}),
(651,326,ls,{
"Letterink-NibData" = {
AngleInDegrees = "180";
};
}),
(651,170,o),
(539,54,o),
(392,54,cs,{
"Letterink-NibData" = {
AngleInDegrees = "270";
};
})
);
}
);
};
layerId = m004;
shapes = (
{
closed = 1;
nodes = (
(430,380,l),
(448,355,o),
(487,338,o),
(532,338,cs),
(618,338,o),
(682,400,o),
(682,487,cs),
(682,614,o),
(554,713,o),
(390,713,cs),
(184,713,o),
(32,555,o),
(32,337,cs),
(32,130,o),
(188,-27,o),
(401,-27,cs),
(528,-27,o),
(634,27,o),
(690,121,c),
(562,196,l),
(535,151,o),
(467,121,o),
(395,121,cs),
(276,121,o),
(197,207,o),
(197,337,cs),
(197,471,o),
(280,565,o),
(398,565,cs),
(478,565,o),
(534,532,o),
(533,492,cs),
(533,484,o),
(529,480,o),
(522,480,cs),
(518,480,o),
(514,483,o),
(512,485,c)
);
}
);
width = 719;
},
{
anchors = (
{
name = bottom;
pos = (387,-9);
},
{
name = top;
pos = (387,703);
}
);
associatedMasterId = m004;
layerId = "1D3C4DC7-3234-4807-8E35-E7EE46E86FD4";
name = "3 Jan 22, 15:22";
shapes = (
{
closed = 1;
nodes = (
(533,-19,o),
(637,45,o),
(684,146,c,{
"Letterink-NibData" = {
AngleInDegrees = 296.92768;
};
}),
(621,178,l,{
"Letterink-NibData" = {
AngleInDegrees = 204.38637;
};
}),
(587,103,o),
(498,52,o),
(401,52,cs,{
"Letterink-NibData" = {
AngleInDegrees = 270;
};
}),
(250,52,o),
(135,178,o),
(135,340,cs),
(135,509,o),
(259,632,o),
(399,632,cs,{
"Letterink-NibData" = {
AngleInDegrees = 90;
};
}),
(458,632,o),
(562,610,o),
(562,547,cs,{
"Letterink-NibData" = {
AngleInDegrees = 180;
};
}),
(562,530,o),
(554,517,o),
(538,517,cs,{
"Letterink-NibData" = {
AngleInDegrees = 270;
};
}),
(526,517,o),
(513,525,o),
(506,534,c,{
"Letterink-NibData" = {
AngleInDegrees = 218.25442;
};
}),
(465,482,l,{
"Letterink-NibData" = {
AngleInDegrees = 143.53076;
};
}),
(482,459,o),
(508,445,o),
(538,445,cs,{
"Letterink-NibData" = {
AngleInDegrees = 90;
};
}),
(591,445,o),
(637,490,o),
(637,551,cs),
(637,642,o),
(532,706,o),
(404,706,cs,{
"Letterink-NibData" = {
AngleInDegrees = 270;
};
}),
(197,706,o),
(53,539,o),
(53,341,cs,{
"Letterink-NibData" = {
AngleInDegrees = 180;
};
}),
(53,147,o),
(190,-26,o),
(404,-22,cs,{
"Letterink-NibData" = {
AngleInDegrees = 88.66778;
};
})
);
}
);
width = 720;
},
{
anchors = (
{
name = bottom;
pos = (382,0);
},
{
name = top;
pos = (374,684);
}
);
associatedMasterId = m004;
background = {
shapes = (
{
closed = 1;
nodes = (
(566,-25,o),
(712,126,o),
(712,326,cs),
(712,355,ls),
(712,548,o),
(560,702,o),
(370,702,cs,{
"Letterink-NibData" = {
AngleInDegrees = "270";
};
}),
(180,702,o),
(29,548,o),
(29,355,cs,{
"Letterink-NibData" = {
AngleInDegrees = "180";
};
}),
(29,326,ls,{
"Letterink-NibData" = {
AngleInDegrees = "180";
};
}),
(29,126,o),
(173,-19,o),
(374,-22,cs,{
"Letterink-NibData" = {
AngleInDegrees = "90.89517371732774";
};
})
);
},
{
closed = 1;
nodes = (
(223,54,o),
(111,170,o),
(111,326,cs),
(111,355,ls),
(111,504,o),
(225,626,o),
(369,626,cs,{
"Letterink-NibData" = {
AngleInDegrees = "90";
};
}),
(515,626,o),
(630,504,o),
(630,355,cs,{
"Letterink-NibData" = {
AngleInDegrees = "180";
};
}),
(630,326,ls,{
"Letterink-NibData" = {
AngleInDegrees = "180";
};
}),
(630,170,o),
(518,54,o),
(371,54,cs,{
"Letterink-NibData" = {
AngleInDegrees = "270";
};
})
);
}
);
};
layerId = "C056148C-2549-4511-9EFE-DD576A128247";
name = "19 Jan 22, 08:49";
shapes = (
{
closed = 0;
nodes = (
(459,430,l,{
"Letterink-NibData" = {
AngleInDegrees = -45;
MainAxisWidth = 118;
MinorAxisWidth = -15;
ValidForParentMainAxisWidth = 30;
ValidForParentMinorAxisWidth = 15;
};
"Letterink-NibStyleId" = "8";
}),
(479,410,o),
(501,408,o),
(517,408,cs,{
"Letterink-NibData" = {
AngleInDegrees = -45;
MainAxisWidth = 118;
MinorAxisWidth = -15;
ValidForParentMainAxisWidth = 30;
ValidForParentMinorAxisWidth = 15;
};
"Letterink-NibStyleId" = "8";
}),
(559,408,o),
(592,452,o),
(592,500,cs,{
"Letterink-NibData" = {
AngleInDegrees = -45;
MainAxisWidth = 118;
MinorAxisWidth = -15;
ValidForParentMainAxisWidth = 30;
ValidForParentMinorAxisWidth = 15;
};
"Letterink-NibStyleId" = "8";
}),
(592,568,o),
(493,639,o),
(383,639,cs,{
"Letterink-NibData" = {
AngleInDegrees = -45;
MainAxisWidth = 118;
MinorAxisWidth = -15;
ValidForParentMainAxisWidth = 30;
ValidForParentMinorAxisWidth = 15;
};
"Letterink-NibStyleId" = "8";
}),
(222,639,o),
(98,519,o),
(98,331,cs,{
"Letterink-NibData" = {
AngleInDegrees = -45;
MainAxisWidth = 135;
MinorAxisWidth = -15;
ValidForParentMainAxisWidth = 30;
ValidForParentMinorAxisWidth = 15;
};
"Letterink-NibStyleId" = "8";
}),
(98,164,o),
(221,47,o),
(391,47,cs,{
"Letterink-NibData" = {
AngleInDegrees = -45;
MainAxisWidth = 118;
MinorAxisWidth = -15;
ValidForParentMainAxisWidth = 30;
ValidForParentMinorAxisWidth = 15;
};
"Letterink-NibStyleId" = "8";
}),
(480,47,o),
(564,90,o),
(605,159,c,{
"Letterink-NibData" = {
AngleInDegrees = -45;
MainAxisWidth = 118;
MinorAxisWidth = -15;
ValidForParentMainAxisWidth = 30;
ValidForParentMinorAxisWidth = 15;
};
"Letterink-NibStyleId" = "8";
})
);
}
);
userData = {
"Letterink-ComputationAllowed" = YES;
};
width = 671;
}
);
metricLeft = O;
metricRight = "=O^.95";
unicode = 67;
userData = {
position = 570;
width = 54;
};
},
{
glyphname = C.ss01;
kernLeft = O;
kernRight = C;
layers = (
{
anchors = (
{
name = bottom;
pos = (390,-6);
},
{
name = top;
pos = (386,689);
}
);
background = {
shapes = (
{
closed = 1;
nodes = (
(582,-25,o),
(728,126,o),
(728,326,cs),
(728,355,ls),
(728,548,o),
(576,702,o),
(386,702,cs,{
"Letterink-NibData" = {
AngleInDegrees = "270";
};
}),
(196,702,o),
(45,548,o),
(45,355,cs,{
"Letterink-NibData" = {
AngleInDegrees = "180";
};
}),
(45,326,ls,{
"Letterink-NibData" = {
AngleInDegrees = "180";
};
}),
(45,126,o),
(189,-19,o),
(390,-22,cs,{
"Letterink-NibData" = {
AngleInDegrees = "90.89517371732774";
};
})
);
},
{
closed = 1;
nodes = (
(239,54,o),
(127,170,o),
(127,326,cs),
(127,355,ls),
(127,504,o),
(241,626,o),
(385,626,cs,{
"Letterink-NibData" = {
AngleInDegrees = "90";
};
}),
(531,626,o),
(646,504,o),
(646,355,cs,{
"Letterink-NibData" = {
AngleInDegrees = "180";
};
}),
(646,326,ls,{
"Letterink-NibData" = {
AngleInDegrees = "180";
};
}),
(646,170,o),
(534,54,o),
(387,54,cs,{
"Letterink-NibData" = {
AngleInDegrees = "270";
};
})
);
}
);
};
layerId = "0CAF3BED-C4AC-4024-B3E1-4C69D1EF7EC0";
shapes = (
{
closed = 1;
nodes = (
(655,531,l),
(628,626,o),
(527,705,o),
(389,705,cs),
(198,705,o),
(44,555,o),
(44,336,cs),
(44,115,o),
(201,-23,o),
(391,-23,cs),
(506,-23,o),
(610,27,o),
(665,118,c),
(599,158,l),
(560,93,o),
(485,53,o),
(392,53,cs),
(237,53,o),
(124,165,o),
(124,335,cs),
(124,505,o),
(236,629,o),
(395,629,cs),
(505,629,o),
(566,570,o),
(588,512,c)
);
}
);
width = 705;
},
{
anchors = (
{
name = bottom;
pos = (385,-2);
},
{
name = top;
pos = (386,685);
}
);
background = {
anchors = (
{
name = bottom;
pos = (380,-27);
},
{
name = top;
pos = (380,721);
}
);
shapes = (
{
attr = {
strokeHeight = 38;
strokeWidth = 42;
};
closed = 0;
nodes = (
(616,537,l,{
"Letterink-NibData" = {
AngleInDegrees = 356.78451;
};
}),
(611,626,o),
(513,691,o),
(389,685,cs,{
"Letterink-NibData" = {
AngleInDegrees = 267.08916;
};
}),
(212,676,o),
(77,532,o),
(77,330,cs,{
"Letterink-NibData" = {
AngleInDegrees = 180;
};
}),
(77,136,o),
(212,0,o),
(402,0,cs,{
"Letterink-NibData" = {
AngleInDegrees = 90;
};
}),
(500,0,o),
(595,52,o),
(641,130,c,{
"Letterink-NibData" = {
AngleInDegrees = 30.52971;
};
})
);
}
);
};
layerId = "49C16FD3-6177-408B-A733-AEB3898BB77C";
shapes = (
{
closed = 1;
nodes = (
(656,531,l),
(629,627,o),
(530,697,o),
(392,697,cs),
(205,697,o),
(56,549,o),
(56,336,cs),
(56,123,o),
(207,-12,o),
(394,-12,cs),
(508,-12,o),
(608,36,o),
(661,124,c),
(630,142,l),
(585,66,o),
(502,24,o),
(396,24,cs),
(229,24,o),
(94,146,o),
(94,336,cs),
(94,529,o),
(224,661,o),
(390,661,cs),
(521,661,o),
(600,595,o),
(622,522,c)
);
}
);
width = 711;
},
{
anchors = (
{
name = bottom;
pos = (381,-27);
},
{
name = top;
pos = (381,721);
}
);
associatedMasterId = "49C16FD3-6177-408B-A733-AEB3898BB77C";
layerId = "5C147D22-45CB-49AC-8F59-80A6CB628E42";
name = "3 Jan 22, 15:09";
shapes = (
{
closed = 1;
nodes = (
(508,-20,o),
(606,31,o),
(666,119,c,{
"Letterink-NibData" = {
AngleInDegrees = 304.07719;
};
}),
(632,142,l,{
"Letterink-NibData" = {
AngleInDegrees = 214.03213;
};
}),
(580,65,o),
(492,20,o),
(396,20,cs,{
"Letterink-NibData" = {
AngleInDegrees = 270;
};
}),
(225,20,o),
(103,159,o),
(103,331,cs),
(103,497,o),
(224,669,o),
(406,669,cs,{
"Letterink-NibData" = {
AngleInDegrees = 90;
};
}),
(505,669,o),
(586,618,o),
(592,552,c,{
"Letterink-NibData" = {
AngleInDegrees = 90;
};
}),
(633,552,l,{
"Letterink-NibData" = {
AngleInDegrees = 355.69553;
};
}),
(626,645,o),
(535,709,o),
(411,709,cs,{
"Letterink-NibData" = {
AngleInDegrees = 270;
};
}),
(207,709,o),
(61,535,o),
(61,334,cs,{
"Letterink-NibData" = {
AngleInDegrees = 180;
};
}),
(61,132,o),
(201,-20,o),
(397,-20,cs,{
"Letterink-NibData" = {
AngleInDegrees = 90;
};
})
);
}
);
width = 706;
},
{
anchors = (
{
name = bottom;
pos = (376,-7);
},
{
name = top;
pos = (376,701);
}
);
associatedMasterId = "0CAF3BED-C4AC-4024-B3E1-4C69D1EF7EC0";
layerId = "F3AD09C8-78E5-4679-83B5-5B942013D0D4";
name = "3 Jan 22, 15:21";
shapes = (
{
closed = 1;
nodes = (
(512,-17,o),
(616,40,o),
(678,139,c,{
"Letterink-NibData" = {
AngleInDegrees = 304.31509;
};
}),
(615,182,l,{
"Letterink-NibData" = {
AngleInDegrees = 211.07166;
};
}),
(568,104,o),
(488,59,o),
(393,59,cs,{
"Letterink-NibData" = {
AngleInDegrees = 270;
};
}),
(240,59,o),
(133,176,o),
(133,324,cs),
(133,494,o),
(248,631,o),
(391,631,cs,{
"Letterink-NibData" = {
AngleInDegrees = 90;
};
}),
(491,631,o),
(569,582,o),
(566,520,c,{
"Letterink-NibData" = {
AngleInDegrees = 90;
};
}),
(645,520,l,{
"Letterink-NibData" = {
AngleInDegrees = 1.06091;
};
}),
(647,628,o),
(542,707,o),
(396,707,cs,{
"Letterink-NibData" = {
AngleInDegrees = 270;
};
}),
(207,707,o),
(53,538,o),
(53,327,cs,{
"Letterink-NibData" = {
AngleInDegrees = 180;
};
}),
(53,132,o),
(197,-17,o),
(392,-17,cs,{
"Letterink-NibData" = {
AngleInDegrees = 90;
};
})
);
}
);
width = 716;
},
{
anchors = (
{
name = bottom;
pos = (387,-27);
},
{
name = top;
pos = (387,721);
}
);
associatedMasterId = "49C16FD3-6177-408B-A733-AEB3898BB77C";
layerId = "60C93F8E-5478-4CF7-8F44-AF3ED9540F66";
name = "5 Jan 22, 07:47";
shapes = (
{
attr = {
strokeHeight = 38;
strokeWidth = 42;
};
closed = 0;
nodes = (
(623,537,l,{
"Letterink-NibData" = {
AngleInDegrees = 356.78451;
};
}),
(618,626,o),
(520,691,o),
(396,685,cs,{
"Letterink-NibData" = {
AngleInDegrees = 267.08916;
};
}),
(219,676,o),
(84,532,o),
(84,330,cs,{
"Letterink-NibData" = {
AngleInDegrees = 180;
};
}),
(84,136,o),
(219,0,o),
(409,0,cs,{
"Letterink-NibData" = {
AngleInDegrees = 90;
};
}),
(507,0,o),
(602,52,o),
(648,130,c,{
"Letterink-NibData" = {
AngleInDegrees = 30.52971;
};
})
);
}
);
width = 712;
},
{
anchors = (
{
name = bottom;
pos = (376,-7);
},
{
name = top;
pos = (376,701);
}
);
associatedMasterId = "0CAF3BED-C4AC-4024-B3E1-4C69D1EF7EC0";
layerId = "E3615987-2AFD-4696-A41C-F6163A2589A7";
name = "5 Jan 22, 07:50";
shapes = (
{
attr = {
strokeHeight = 74;
strokeWidth = 80;
};
closed = 0;
nodes = (
(614,525,ls,{
"Letterink-NibData" = {
AngleInDegrees = 356.63354;
};
}),
(609,610,o),
(516,671,o),
(399,665,cs,{
"Letterink-NibData" = {
AngleInDegrees = 267.02198;
};
}),
(226,656,o),
(94,521,o),
(94,331,cs,{
"Letterink-NibData" = {
AngleInDegrees = 180;
};
}),
(94,148,o),
(224,20,o),
(407,20,cs,{
"Letterink-NibData" = {
AngleInDegrees = 90;
};
}),
(502,20,o),
(593,68,o),
(638,142,c,{
"Letterink-NibData" = {
AngleInDegrees = 31.30412;
};
})
);
}
);
width = 716;
},
{
anchors = (
{
name = bottom;
pos = (396,-12);
},
{
name = top;
pos = (385,696);
}
);
background = {
shapes = (
{
closed = 1;
nodes = (
(593,-25,o),
(739,126,o),
(739,326,cs),
(739,355,ls),
(739,548,o),
(587,702,o),
(397,702,cs,{
"Letterink-NibData" = {
AngleInDegrees = "270";
};
}),
(207,702,o),
(56,548,o),
(56,355,cs,{
"Letterink-NibData" = {
AngleInDegrees = "180";
};
}),
(56,326,ls,{
"Letterink-NibData" = {
AngleInDegrees = "180";
};
}),
(56,126,o),
(200,-19,o),
(401,-22,cs,{
"Letterink-NibData" = {
AngleInDegrees = "90.89517371732774";
};
})
);
},
{
closed = 1;
nodes = (
(250,54,o),
(138,170,o),
(138,326,cs),
(138,355,ls),
(138,504,o),
(252,626,o),
(396,626,cs,{
"Letterink-NibData" = {
AngleInDegrees = "90";
};
}),
(542,626,o),
(657,504,o),
(657,355,cs,{
"Letterink-NibData" = {
AngleInDegrees = "180";
};
}),
(657,326,ls,{
"Letterink-NibData" = {
AngleInDegrees = "180";
};
}),
(657,170,o),
(545,54,o),
(398,54,cs,{
"Letterink-NibData" = {
AngleInDegrees = "270";
};
})
);
}
);
};
layerId = m004;
shapes = (
{
closed = 1;
nodes = (
(670,522,l),
(642,634,o),
(528,713,o),
(385,713,cs),
(184,713,o),
(32,552,o),
(32,341,cs),
(32,130,o),
(186,-28,o),
(393,-28,cs),
(514,-28,o),
(623,27,o),
(674,120,c),
(547,196,l),
(519,149,o),
(461,120,o),
(395,120,cs),
(282,120,o),
(197,211,o),
(197,333,cs),
(197,466,o),
(278,565,o),
(385,565,cs),
(459,565,o),
(517,530,o),
(530,480,c)
);
}
);
width = 703;
},
{
anchors = (
{
name = bottom;
pos = (376,-7);
},
{
name = top;
pos = (376,701);
}
);
associatedMasterId = m004;
layerId = "61EB21C3-3EB3-448C-BA61-69CC21CFBA6E";
name = "3 Jan 22, 15:21";
shapes = (
{
closed = 1;
nodes = (
(512,-17,o),
(616,40,o),
(678,139,c,{
"Letterink-NibData" = {
AngleInDegrees = 304.31509;
};
}),
(615,182,l,{
"Letterink-NibData" = {
AngleInDegrees = 211.07166;
};
}),
(568,104,o),
(488,59,o),
(393,59,cs,{
"Letterink-NibData" = {
AngleInDegrees = 270;
};
}),
(240,59,o),
(133,176,o),
(133,324,cs),
(133,494,o),
(248,631,o),
(391,631,cs,{
"Letterink-NibData" = {
AngleInDegrees = 90;
};
}),
(491,631,o),
(569,582,o),
(566,520,c,{
"Letterink-NibData" = {
AngleInDegrees = 90;
};
}),
(645,520,l,{
"Letterink-NibData" = {
AngleInDegrees = 1.06091;
};
}),
(647,628,o),
(542,707,o),
(396,707,cs,{
"Letterink-NibData" = {
AngleInDegrees = 270;
};
}),
(207,707,o),
(53,538,o),
(53,327,cs,{
"Letterink-NibData" = {
AngleInDegrees = 180;
};
}),
(53,132,o),
(197,-17,o),
(392,-17,cs,{
"Letterink-NibData" = {
AngleInDegrees = 90;
};
})
);
}
);
width = 716;
},
{
anchors = (
{
name = bottom;
pos = (376,-7);
},
{
name = top;
pos = (376,701);
}
);
associatedMasterId = m004;
layerId = "2E6EA62A-4F0C-4C83-906A-4BFA96122663";
name = "5 Jan 22, 07:50";
shapes = (
{
attr = {
strokeHeight = 74;
strokeWidth = 80;
};
closed = 0;
nodes = (
(614,525,ls,{
"Letterink-NibData" = {
AngleInDegrees = 356.63354;
};
}),
(609,610,o),
(516,671,o),
(399,665,cs,{
"Letterink-NibData" = {
AngleInDegrees = 267.02198;
};
}),
(226,656,o),
(94,521,o),
(94,331,cs,{
"Letterink-NibData" = {
AngleInDegrees = 180;
};
}),
(94,148,o),
(224,20,o),
(407,20,cs,{
"Letterink-NibData" = {
AngleInDegrees = 90;
};
}),
(502,20,o),
(593,68,o),
(638,142,c,{
"Letterink-NibData" = {
AngleInDegrees = 31.30412;
};
})
);
}
);
width = 716;
}
);
metricLeft = O;
metricRight = "=O*.9";
userData = {
position = 570;
width = 54;
};
},
{
glyphname = C.swsh;
kernLeft = O;
kernRight = C;
layers = (
{
anchors = (
{
name = bottom;
pos = (397,-8);
},
{
name = top;
pos = (386,691);
}
);
background = {
shapes = (
{
closed = 1;
nodes = (
(581,-25,o),
(727,126,o),
(727,326,cs),
(727,355,ls),
(727,548,o),
(575,702,o),
(385,702,cs,{
"Letterink-NibData" = {
AngleInDegrees = "270";
};
}),
(195,702,o),
(44,548,o),
(44,355,cs,{
"Letterink-NibData" = {
AngleInDegrees = "180";
};
}),
(44,326,ls,{
"Letterink-NibData" = {
AngleInDegrees = "180";
};
}),
(44,126,o),
(188,-19,o),
(389,-22,cs,{
"Letterink-NibData" = {
AngleInDegrees = "90.89517371732774";
};
})
);
},
{
closed = 1;
nodes = (
(238,54,o),
(126,170,o),
(126,326,cs),
(126,355,ls),
(126,504,o),
(240,626,o),
(384,626,cs,{
"Letterink-NibData" = {
AngleInDegrees = "90";
};
}),
(530,626,o),
(645,504,o),
(645,355,cs,{
"Letterink-NibData" = {
AngleInDegrees = "180";
};
}),
(645,326,ls,{
"Letterink-NibData" = {
AngleInDegrees = "180";
};
}),
(645,170,o),
(533,54,o),
(386,54,cs,{
"Letterink-NibData" = {
AngleInDegrees = "270";
};
})
);
}
);
};
layerId = "0CAF3BED-C4AC-4024-B3E1-4C69D1EF7EC0";
shapes = (
{
closed = 1;
nodes = (
(414,496,l),
(429,443,o),
(477,407,o),
(531,407,cs),
(596,407,o),
(642,455,o),
(642,524,cs),
(642,626,o),
(540,700,o),
(398,700,cs),
(193,700,o),
(44,546,o),
(44,335,cs),
(44,128,o),
(191,-22,o),
(395,-22,cs),
(513,-22,o),
(615,31,o),
(668,120,c),
(602,158,l),
(563,91,o),
(489,54,o),
(398,54,cs),
(236,54,o),
(124,169,o),
(124,335,cs),
(124,503,o),
(238,624,o),
(398,624,cs),
(488,624,o),
(562,577,o),
(562,520,cs),
(562,498,o),
(550,483,o),
(532,483,cs),
(512,483,o),
(493,498,o),
(486,518,c)
);
}
);
width = 711;
},
{
anchors = (
{
name = bottom;
pos = (402,-2);
},
{
name = top;
pos = (403,686);
}
);
background = {
shapes = (
{
closed = 1;
nodes = (
(600,-14,o),
(742,131,o),
(742,331,cs),
(742,350,ls),
(742,550,o),
(594,702,o),
(400,702,cs,{
"Letterink-NibData" = {
AngleInDegrees = "270";
};
}),
(206,702,o),
(60,551,o),
(60,350,cs,{
"Letterink-NibData" = {
AngleInDegrees = "180";
};
}),
(60,331,ls,{
"Letterink-NibData" = {
AngleInDegrees = "180";
};
}),
(60,133,o),
(207,-14,o),
(404,-14,cs,{
"Letterink-NibData" = {
AngleInDegrees = "90";
};
})
);
},
{
closed = 1;
nodes = (
(230,24,o),
(102,156,o),
(102,331,cs),
(102,350,ls),
(102,526,o),
(231,662,o),
(399,662,cs,{
"Letterink-NibData" = {
AngleInDegrees = "90";
};
}),
(568,662,o),
(700,526,o),
(700,350,cs,{
"Letterink-NibData" = {
AngleInDegrees = "180";
};
}),
(700,331,ls,{
"Letterink-NibData" = {
AngleInDegrees = "180";
};
}),
(700,156,o),
(571,24,o),
(401,24,cs,{
"Letterink-NibData" = {
AngleInDegrees = "270";
};
})
);
}
);
};
layerId = "49C16FD3-6177-408B-A733-AEB3898BB77C";
shapes = (
{
closed = 1;
nodes = (
(444,509,l),
(457,458,o),
(495,428,o),
(548,428,cs),
(601,428,o),
(642,472,o),
(642,530,cs),
(642,619,o),
(535,692,o),
(403,692,cs),
(203,692,o),
(56,543,o),
(56,341,cs),
(56,137,o),
(202,-11,o),
(405,-11,cs),
(521,-11,o),
(620,40,o),
(671,126,c),
(641,143,l),
(596,67,o),
(510,25,o),
(405,25,cs),
(227,25,o),
(94,153,o),
(94,341,cs),
(94,523,o),
(225,656,o),
(403,656,cs),
(515,656,o),
(606,600,o),
(606,530,cs),
(606,491,o),
(582,464,o),
(548,464,cs),
(512,464,o),
(487,484,o),
(478,518,c)
);
}
);
width = 726;
},
{
anchors = (
{
name = bottom;
pos = (371,0);
},
{
name = top;
pos = (383,684);
}
);
associatedMasterId = "49C16FD3-6177-408B-A733-AEB3898BB77C";
layerId = "3D02E95B-60B1-4244-8F26-D84725EF13C9";
name = "3 Jan 22, 15:07";
shapes = (
{
closed = 1;
nodes = (
(507,-21,o),
(630,33,o),
(680,140,c,{
"Letterink-NibData" = {
AngleInDegrees = 293.55226;
};
}),
(641,157,l,{
"Letterink-NibData" = {
AngleInDegrees = 204.62357;
};
}),
(608,85,o),
(527,18,o),
(390,19,cs,{
"Letterink-NibData" = {
AngleInDegrees = 270.40348;
};
}),
(248,20,o),
(102,149,o),
(102,343,cs),
(102,508,o),
(234,657,o),
(394,657,cs,{
"Letterink-NibData" = {
AngleInDegrees = 90;
};
}),
(475,657,o),
(572,621,o),
(572,548,cs,{
"Letterink-NibData" = {
AngleInDegrees = 180;
};
}),
(572,521,o),
(556,500,o),
(532,500,cs,{
"Letterink-NibData" = {
AngleInDegrees = 270;
};
}),
(519,500,o),
(502,510,o),
(495,523,c,{
"Letterink-NibData" = {
AngleInDegrees = 238.57043;
};
}),
(459,501,l,{
"Letterink-NibData" = {
AngleInDegrees = 149.03624;
};
}),
(477,471,o),
(504,458,o),
(531,458,cs,{
"Letterink-NibData" = {
AngleInDegrees = 90;
};
}),
(573,458,o),
(614,492,o),
(614,546,cs),
(614,639,o),
(506,697,o),
(395,697,cs,{
"Letterink-NibData" = {
AngleInDegrees = 270;
};
}),
(211,697,o),
(60,536,o),
(60,344,cs,{
"Letterink-NibData" = {
AngleInDegrees = 180;
};
}),
(60,159,o),
(191,-21,o),
(391,-21,cs,{
"Letterink-NibData" = {
AngleInDegrees = 90;
};
})
);
}
);
width = 718;
},
{
anchors = (
{
name = bottom;
pos = (378,-9);
},
{
name = top;
pos = (378,703);
}
);
associatedMasterId = "0CAF3BED-C4AC-4024-B3E1-4C69D1EF7EC0";
layerId = "430F94E4-6E0B-477D-BEA9-4D1159DC2E2A";
name = "3 Jan 22, 15:17";
shapes = (
{
closed = 1;
nodes = (
(505,-16,o),
(621,32,o),
(687,139,c,{
"Letterink-NibData" = {
AngleInDegrees = 303.88696;
};
}),
(620,184,l,{
"Letterink-NibData" = {
AngleInDegrees = 210.52971;
};
}),
(574,106,o),
(489,60,o),
(395,60,cs,{
"Letterink-NibData" = {
AngleInDegrees = 270;
};
}),
(243,60,o),
(133,184,o),
(133,337,cs),
(133,493,o),
(251,630,o),
(401,630,cs,{
"Letterink-NibData" = {
AngleInDegrees = 90;
};
}),
(464,630,o),
(558,604,o),
(558,552,cs,{
"Letterink-NibData" = {
AngleInDegrees = 180;
};
}),
(558,539,o),
(548,528,o),
(537,528,cs,{
"Letterink-NibData" = {
AngleInDegrees = 270;
};
}),
(530,528,o),
(520,532,o),
(515,539,c,{
"Letterink-NibData" = {
AngleInDegrees = 218.19868;
};
}),
(467,478,l,{
"Letterink-NibData" = {
AngleInDegrees = 135;
};
}),
(485,460,o),
(513,447,o),
(543,447,cs,{
"Letterink-NibData" = {
AngleInDegrees = 90;
};
}),
(594,447,o),
(638,494,o),
(638,551,cs),
(638,661,o),
(511,706,o),
(400,706,cs,{
"Letterink-NibData" = {
AngleInDegrees = 270;
};
}),
(207,706,o),
(53,536,o),
(53,337,cs,{
"Letterink-NibData" = {
AngleInDegrees = 180;
};
}),
(53,141,o),
(200,-16,o),
(394,-16,cs,{
"Letterink-NibData" = {
AngleInDegrees = 90;
};
})
);
}
);
width = 720;
},
{
anchors = (
{
name = bottom;
pos = (377,0);
},
{
name = top;
pos = (389,684);
}
);
associatedMasterId = "49C16FD3-6177-408B-A733-AEB3898BB77C";
layerId = "BE458C1D-0A4B-40C4-BCF4-9649CDEB98A4";
name = "5 Jan 22, 08:01";
shapes = (
{
attr = {
strokeHeight = 38;
strokeWidth = 42;
};
closed = 0;
nodes = (
(484,527,l,{
"Letterink-NibData" = {
AngleInDegrees = 168.31063;
};
}),
(490,498,o),
(515,478,o),
(549,477,cs,{
"Letterink-NibData" = {
AngleInDegrees = 91.50744;
};
}),
(587,476,o),
(613,516,o),
(613,556,cs),
(613,630,o),
(520,690,o),
(396,684,cs,{
"Letterink-NibData" = {
AngleInDegrees = 267.08916;
};
}),
(219,675,o),
(84,532,o),
(84,330,cs,{
"Letterink-NibData" = {
AngleInDegrees = 180;
};
}),
(84,136,o),
(219,0,o),
(409,0,cs,{
"Letterink-NibData" = {
AngleInDegrees = 90;
};
}),
(507,0,o),
(602,52,o),
(648,130,c,{
"Letterink-NibData" = {
AngleInDegrees = 30.52971;
};
})
);
}
);
width = 724;
},
{
anchors = (
{
name = bottom;
pos = (377,31);
},
{
name = top;
pos = (377,662);
}
);
associatedMasterId = "0CAF3BED-C4AC-4024-B3E1-4C69D1EF7EC0";
layerId = "26DD77D8-93B1-4CFB-A5C5-84AD5242F402";
name = "5 Jan 22, 08:04";
shapes = (
{
attr = {
strokeHeight = 74;
strokeWidth = 80;
};
closed = 0;
nodes = (
(482,519,l,{
"Letterink-NibData" = {
AngleInDegrees = 169.50852;
};
}),
(487,492,o),
(511,472,o),
(540,471,cs,{
"Letterink-NibData" = {
AngleInDegrees = 91.33222;
};
}),
(583,470,o),
(608,508,o),
(608,546,cs),
(608,617,o),
(519,674,o),
(398,669,cs,{
"Letterink-NibData" = {
AngleInDegrees = 267.03906;
};
}),
(224,660,o),
(90,523,o),
(90,334,cs,{
"Letterink-NibData" = {
AngleInDegrees = 180;
};
}),
(90,145,o),
(222,15,o),
(396,15,cs,{
"Letterink-NibData" = {
AngleInDegrees = 90;
};
}),
(501,15,o),
(596,63,o),
(642,140,c,{
"Letterink-NibData" = {
AngleInDegrees = 30.8542;
};
})
);
}
);
width = 720;
},
{
anchors = (
{
name = bottom;
pos = (393,-12);
},
{
name = top;
pos = (388,696);
}
);
background = {
shapes = (
{
closed = 1;
nodes = (
(589,-25,o),
(735,126,o),
(735,326,cs),
(735,355,ls),
(735,548,o),
(583,702,o),
(393,702,cs,{
"Letterink-NibData" = {
AngleInDegrees = "270";
};
}),
(203,702,o),
(52,548,o),
(52,355,cs,{
"Letterink-NibData" = {
AngleInDegrees = "180";
};
}),
(52,326,ls,{
"Letterink-NibData" = {
AngleInDegrees = "180";
};
}),
(52,126,o),
(196,-19,o),
(397,-22,cs,{
"Letterink-NibData" = {
AngleInDegrees = "90.89517371732774";
};
})
);
},
{
closed = 1;
nodes = (
(246,54,o),
(134,170,o),
(134,326,cs),
(134,355,ls),
(134,504,o),
(248,626,o),
(392,626,cs,{
"Letterink-NibData" = {
AngleInDegrees = "90";
};
}),
(538,626,o),
(653,504,o),
(653,355,cs,{
"Letterink-NibData" = {
AngleInDegrees = "180";
};
}),
(653,326,ls,{
"Letterink-NibData" = {
AngleInDegrees = "180";
};
}),
(653,170,o),
(541,54,o),
(394,54,cs,{
"Letterink-NibData" = {
AngleInDegrees = "270";
};
})
);
}
);
};
layerId = m004;
shapes = (
{
closed = 1;
nodes = (
(352,471,l),
(367,405,o),
(430,359,o),
(506,359,cs),
(592,359,o),
(655,422,o),
(655,510,cs),
(655,627,o),
(542,714,o),
(389,714,cs),
(185,714,o),
(32,554,o),
(32,340,cs),
(32,130,o),
(187,-28,o),
(393,-28,cs),
(515,-28,o),
(624,29,o),
(674,121,c),
(549,196,l),
(517,147,o),
(465,120,o),
(397,120,cs),
(276,120,o),
(197,204,o),
(197,332,cs),
(197,469,o),
(280,566,o),
(397,566,cs),
(442,566,o),
(483,552,o),
(499,531,cs),
(508,519,o),
(508,506,o),
(499,503,cs),
(491,500,o),
(484,505,o),
(482,514,c)
);
}
);
width = 705;
},
{
anchors = (
{
name = bottom;
pos = (378,-9);
},
{
name = top;
pos = (378,703);
}
);
associatedMasterId = m004;
layerId = "E1B422B0-C5DA-4EE8-BF30-75EC1E1BD4CA";
name = "3 Jan 22, 15:17";
shapes = (
{
closed = 1;
nodes = (
(505,-16,o),
(621,32,o),
(687,139,c,{
"Letterink-NibData" = {
AngleInDegrees = 303.88696;
};
}),
(620,184,l,{
"Letterink-NibData" = {
AngleInDegrees = 210.52971;
};
}),
(574,106,o),
(489,60,o),
(395,60,cs,{
"Letterink-NibData" = {
AngleInDegrees = 270;
};
}),
(243,60,o),
(133,184,o),
(133,337,cs),
(133,493,o),
(251,630,o),
(401,630,cs,{
"Letterink-NibData" = {
AngleInDegrees = 90;
};
}),
(464,630,o),
(558,604,o),
(558,552,cs,{
"Letterink-NibData" = {
AngleInDegrees = 180;
};
}),
(558,539,o),
(548,528,o),
(537,528,cs,{
"Letterink-NibData" = {
AngleInDegrees = 270;
};
}),
(530,528,o),
(520,532,o),
(515,539,c,{
"Letterink-NibData" = {
AngleInDegrees = 218.19868;
};
}),
(467,478,l,{
"Letterink-NibData" = {
AngleInDegrees = 135;
};
}),
(485,460,o),
(513,447,o),
(543,447,cs,{
"Letterink-NibData" = {
AngleInDegrees = 90;
};
}),
(594,447,o),
(638,494,o),
(638,551,cs),
(638,661,o),
(511,706,o),
(400,706,cs,{
"Letterink-NibData" = {
AngleInDegrees = 270;
};
}),
(207,706,o),
(53,536,o),
(53,337,cs,{
"Letterink-NibData" = {
AngleInDegrees = 180;
};
}),
(53,141,o),
(200,-16,o),
(394,-16,cs,{
"Letterink-NibData" = {
AngleInDegrees = 90;
};
})
);
}
);
width = 720;
},
{
anchors = (
{
name = bottom;
pos = (377,31);
},
{
name = top;
pos = (377,662);
}
);
associatedMasterId = m004;
layerId = "4CF65D10-8B5F-49BE-AA91-F2DD426CB74F";
name = "5 Jan 22, 08:04";
shapes = (
{
attr = {
strokeHeight = 74;
strokeWidth = 80;
};
closed = 0;
nodes = (
(482,519,l,{
"Letterink-NibData" = {
AngleInDegrees = 169.50852;
};
}),
(487,492,o),
(511,472,o),
(540,471,cs,{
"Letterink-NibData" = {
AngleInDegrees = 91.33222;
};
}),
(583,470,o),
(608,508,o),
(608,546,cs),
(608,617,o),
(519,674,o),
(398,669,cs,{
"Letterink-NibData" = {
AngleInDegrees = 267.03906;
};
}),
(224,660,o),
(90,523,o),
(90,334,cs,{
"Letterink-NibData" = {
AngleInDegrees = 180;
};
}),
(90,145,o),
(222,15,o),
(396,15,cs,{
"Letterink-NibData" = {
AngleInDegrees = 90;
};
}),
(501,15,o),
(596,63,o),
(642,140,c,{
"Letterink-NibData" = {
AngleInDegrees = 30.8542;
};
})
);
}
);
width = 720;
}
);
metricLeft = O;
metricRight = "=O*.98";
userData = {
position = 570;
width = 54;
};
},
{
glyphname = D;
kernLeft = E;
kernRight = O;
layers = (
{
anchors = (
{
name = bottom;
pos = (354,-10);
},
{
name = center;
pos = (209,367);
},
{
name = top;
pos = (369,684);
}
);
hints = (
{
name = _corner.caps_left;
origin = (0,7);
type = Corner;
}
);
layerId = "0CAF3BED-C4AC-4024-B3E1-4C69D1EF7EC0";
shapes = (
{
closed = 1;
nodes = (
(354,-10,cs,{
"Letterink-NibData" = {
AngleInDegrees = 90;
};
}),
(558,-10,o),
(702,136,o),
(702,342,cs),
(702,535,o),
(575,684,o),
(373,684,c,{
"Letterink-NibData" = {
AngleInDegrees = 270.21459;
};
}),
(127,685,l,{
"Letterink-NibData" = {
AngleInDegrees = 180;
};
}),
(127,608,l,{
"Letterink-NibData" = {
AngleInDegrees = 90;
};
}),
(373,608,ls,{
"Letterink-NibData" = {
AngleInDegrees = 92.97373;
};
}),
(532,608,o),
(620,501,o),
(620,339,cs,{
"Letterink-NibData" = {
AngleInDegrees = 180;
};
}),
(620,163,o),
(514,65,o),
(322,65,cs,{
"Letterink-NibData" = {
AngleInDegrees = 270;
};
}),
(291,65,o),
(251,67,o),
(209,70,c),
(209,651,l,{
"Letterink-NibData" = {
AngleInDegrees = 270;
};
}),
(127,651,l,{
"Letterink-NibData" = {
AngleInDegrees = 180;
};
}),
(127,1,l,{
"Letterink-NibData" = {
AngleInDegrees = 95.10217;
};
}),
(183,-4,ls,{
"Letterink-NibData" = {
AngleInDegrees = 95.12819;
};
}),
(249,-10,o),
(272,-10,o)
);
}
);
width = 746;
},
{
anchors = (
{
name = bottom;
pos = (322,-9);
},
{
name = center;
pos = (168,358);
},
{
name = top;
pos = (339,685);
}
);
hints = (
{
name = _corner.caps_left;
origin = (0,7);
type = Corner;
}
);
layerId = "49C16FD3-6177-408B-A733-AEB3898BB77C";
shapes = (
{
closed = 1;
nodes = (
(358,-9,cs,{
"Letterink-NibData" = {
AngleInDegrees = 90;
};
}),
(561,-9,o),
(695,131,o),
(695,342,cs),
(695,541,o),
(571,683,o),
(366,684,cs,{
"Letterink-NibData" = {
AngleInDegrees = 270.22037;
};
}),
(129,685,l,{
"Letterink-NibData" = {
AngleInDegrees = 180;
};
}),
(129,649,l,{
"Letterink-NibData" = {
AngleInDegrees = 90;
};
}),
(361,649,ls,{
"Letterink-NibData" = {
AngleInDegrees = 93.25195;
};
}),
(548,649,o),
(656,525,o),
(656,339,cs,{
"Letterink-NibData" = {
AngleInDegrees = 180;
};
}),
(656,141,o),
(542,26,o),
(336,26,cs,{
"Letterink-NibData" = {
AngleInDegrees = 270;
};
}),
(271,26,o),
(184,29,o),
(167,31,c),
(167,649,l,{
"Letterink-NibData" = {
AngleInDegrees = 270;
};
}),
(129,649,l,{
"Letterink-NibData" = {
AngleInDegrees = 180;
};
}),
(129,0,l,{
"Letterink-NibData" = {
AngleInDegrees = 94.18492;
};
}),
(168,-3,ls,{
"Letterink-NibData" = {
AngleInDegrees = 94.20536;
};
}),
(235,-8,o),
(279,-9,o)
);
}
);
width = 751;
},
{
anchors = (
{
name = bottom;
pos = (415,-2);
},
{
name = center;
pos = (249,353);
},
{
name = top;
pos = (424,684);
}
);
hints = (
{
name = _corner.caps_left;
origin = (0,7);
type = Corner;
}
);
layerId = m004;
shapes = (
{
closed = 1;
nodes = (
(384,-10,cs,{
"Letterink-NibData" = {
AngleInDegrees = "90";
};
}),
(600,-14,o),
(755,135,o),
(755,346,cs),
(755,531,o),
(620,683,o),
(417,684,cs,{
"Letterink-NibData" = {
AngleInDegrees = "270.21459";
};
}),
(161,685,l,{
"Letterink-NibData" = {
AngleInDegrees = "180";
};
}),
(161,532,l,{
"Letterink-NibData" = {
AngleInDegrees = "90";
};
}),
(418,532,ls,{
"Letterink-NibData" = {
AngleInDegrees = "92.97373";
};
}),
(529,532,o),
(590,461,o),
(590,343,cs,{
"Letterink-NibData" = {
AngleInDegrees = "180";
};
}),
(590,217,o),
(518,141,o),
(399,141,cs,{
"Letterink-NibData" = {
AngleInDegrees = "270";
};
}),
(368,141,o),
(350,142,o),
(326,146,c),
(326,655,l,{
"Letterink-NibData" = {
AngleInDegrees = "270";
};
}),
(161,655,l,{
"Letterink-NibData" = {
AngleInDegrees = "180";
};
}),
(161,5,l,{
"Letterink-NibData" = {
AngleInDegrees = "95.10217";
};
}),
(231,-3,ls,{
"Letterink-NibData" = {
AngleInDegrees = "95.12819";
};
}),
(271,-8,o),
(304,-9,o)
);
}
);
width = 787;
}
);
metricLeft = E;
metricRight = O;
unicode = 68;
userData = {
position = 674;
width = 60;
};
},
{
glyphname = D.ss01;
kernLeft = L;
kernRight = O;
layers = (
{
anchors = (
{
name = bottom;
pos = (311,-10);
},
{
name = center;
pos = (166,367);
},
{
name = top;
pos = (298,681);
}
);
layerId = "0CAF3BED-C4AC-4024-B3E1-4C69D1EF7EC0";
shapes = (
{
closed = 1;
nodes = (
(311,-10,cs,{
"Letterink-NibData" = {
AngleInDegrees = 90;
};
}),
(515,-10,o),
(659,136,o),
(659,342,cs),
(659,535,o),
(532,672,o),
(341,684,c,{
"Letterink-NibData" = {
AngleInDegrees = 270.21459;
};
}),
(84,685,l,{
"Letterink-NibData" = {
AngleInDegrees = 180;
};
}),
(84,608,l,{
"Letterink-NibData" = {
AngleInDegrees = 90;
};
}),
(330,608,l,{
"Letterink-NibData" = {
AngleInDegrees = 92.97373;
};
}),
(487,600,o),
(577,501,o),
(577,339,cs,{
"Letterink-NibData" = {
AngleInDegrees = 180;
};
}),
(577,163,o),
(471,65,o),
(279,65,cs,{
"Letterink-NibData" = {
AngleInDegrees = 270;
};
}),
(248,65,o),
(208,67,o),
(166,70,c),
(166,651,l,{
"Letterink-NibData" = {
AngleInDegrees = 270;
};
}),
(84,651,l,{
"Letterink-NibData" = {
AngleInDegrees = 180;
};
}),
(84,1,l,{
"Letterink-NibData" = {
AngleInDegrees = 95.10217;
};
}),
(140,-4,ls,{
"Letterink-NibData" = {
AngleInDegrees = 95.12819;
};
}),
(206,-10,o),
(208,-10,o)
);
}
);
width = 703;
},
{
anchors = (
{
name = bottom;
pos = (264,-11);
},
{
name = center;
pos = (138,358);
},
{
name = top;
pos = (374,690);
}
);
layerId = "49C16FD3-6177-408B-A733-AEB3898BB77C";
shapes = (
{
closed = 1;
nodes = (
(329,-9,cs,{
"Letterink-NibData" = {
AngleInDegrees = 90;
};
}),
(532,-9,o),
(666,131,o),
(666,342,cs),
(666,541,o),
(542,672,o),
(349,684,c,{
"Letterink-NibData" = {
AngleInDegrees = 270.22037;
};
}),
(100,685,l,{
"Letterink-NibData" = {
AngleInDegrees = 180;
};
}),
(100,649,l,{
"Letterink-NibData" = {
AngleInDegrees = 90;
};
}),
(340,649,l,{
"Letterink-NibData" = {
AngleInDegrees = 93.25195;
};
}),
(519,639,o),
(627,525,o),
(627,339,cs,{
"Letterink-NibData" = {
AngleInDegrees = 180;
};
}),
(627,141,o),
(513,26,o),
(307,26,cs,{
"Letterink-NibData" = {
AngleInDegrees = 270;
};
}),
(242,26,o),
(155,29,o),
(138,31,c),
(138,649,l,{
"Letterink-NibData" = {
AngleInDegrees = 270;
};
}),
(100,649,l,{
"Letterink-NibData" = {
AngleInDegrees = 180;
};
}),
(100,0,l,{
"Letterink-NibData" = {
AngleInDegrees = 94.18492;
};
}),
(139,-3,ls,{
"Letterink-NibData" = {
AngleInDegrees = 94.20536;
};
}),
(206,-8,o),
(250,-9,o)
);
}
);
width = 722;
},
{
anchors = (
{
name = bottom;
pos = (281,-10);
},
{
name = center;
pos = (173,360);
},
{
name = top;
pos = (297,685);
}
);
layerId = m004;
shapes = (
{
closed = 1;
nodes = (
(281,-10,cs,{
"Letterink-NibData" = {
AngleInDegrees = "90";
};
}),
(514,-14,o),
(652,151,o),
(652,346,cs),
(652,523,o),
(525,673,o),
(317,684,c,{
"Letterink-NibData" = {
AngleInDegrees = "270.21459";
};
}),
(58,684,l,{
"Letterink-NibData" = {
AngleInDegrees = "180";
};
}),
(58,532,l,{
"Letterink-NibData" = {
AngleInDegrees = "90";
};
}),
(315,532,l,{
"Letterink-NibData" = {
AngleInDegrees = "92.97373";
};
}),
(438,528,o),
(487,448,o),
(487,343,cs,{
"Letterink-NibData" = {
AngleInDegrees = "180";
};
}),
(487,212,o),
(411,141,o),
(296,141,cs,{
"Letterink-NibData" = {
AngleInDegrees = "270";
};
}),
(275,141,o),
(248,141,o),
(223,146,c),
(223,655,l,{
"Letterink-NibData" = {
AngleInDegrees = "270";
};
}),
(58,655,l,{
"Letterink-NibData" = {
AngleInDegrees = "180";
};
}),
(58,5,l,{
"Letterink-NibData" = {
AngleInDegrees = "95.10217";
};
}),
(148,-4,ls,{
"Letterink-NibData" = {
AngleInDegrees = "95.12819";
};
}),
(151,-4,o),
(155,-8,o)
);
}
);
width = 684;
}
);
metricLeft = "=|H";
metricRight = O;
userData = {
position = 674;
width = 60;
};
},
{
glyphname = D.swsh;
kernLeft = Swash;
kernRight = O;
layers = (
{
background = {
anchors = (
{
name = bottom;
pos = (394,0);
},
{
name = center;
pos = (419,11);
},
{
name = top;
pos = (419,11);
}
);
hints = (
{
name = _corner.caps_swash;
origin = (0,7);
type = Corner;
}
);
shapes = (
{
closed = 1;
nodes = (
(358,-10,ls,{
"Letterink-NibData" = {
AngleInDegrees = 90;
};
}),
(562,-10,o),
(707,138,o),
(707,342,cs),
(707,532,o),
(580,678,o),
(388,690,c,{
"Letterink-NibData" = {
AngleInDegrees = 270.20033;
};
}),
(132,691,l,{
"Letterink-NibData" = {
AngleInDegrees = 180;
};
}),
(132,615,l,{
"Letterink-NibData" = {
AngleInDegrees = 90;
};
}),
(377,615,l,{
"Letterink-NibData" = {
AngleInDegrees = 93.55173;
};
}),
(522,606,o),
(625,517,o),
(625,342,cs,{
"Letterink-NibData" = {
AngleInDegrees = 180;
};
}),
(625,175,o),
(532,66,o),
(320,66,cs,{
"Letterink-NibData" = {
AngleInDegrees = 270;
};
}),
(293,66,o),
(267,69,o),
(233,71,c),
(233,559,l,{
"Letterink-NibData" = {
AngleInDegrees = 270;
};
}),
(151,559,l,{
"Letterink-NibData" = {
AngleInDegrees = 180;
};
}),
(151,1,l,{
"Letterink-NibData" = {
AngleInDegrees = 95.01311;
};
}),
(208,-4,ls,{
"Letterink-NibData" = {
AngleInDegrees = 94.93922;
};
}),
(277,-10,o),
(276,-10,o),
(318,-10,cs,{
"Letterink-NibData" = {
AngleInDegrees = 90;
};
})
);
}
);
};
hints = (
{
name = _corner.caps_swash;
origin = (0,7);
type = Corner;
}
);
layerId = "0CAF3BED-C4AC-4024-B3E1-4C69D1EF7EC0";
shapes = (
{
closed = 1;
nodes = (
(377,-10,cs,{
"Letterink-NibData" = {
AngleInDegrees = "90";
};
}),
(581,-10,o),
(725,136,o),
(725,342,cs),
(725,535,o),
(598,672,o),
(407,684,c,{
"Letterink-NibData" = {
AngleInDegrees = "270.21459";
};
}),
(150,685,l,{
"Letterink-NibData" = {
AngleInDegrees = "180";
};
}),
(150,608,l,{
"Letterink-NibData" = {
AngleInDegrees = "90";
};
}),
(396,608,l,{
"Letterink-NibData" = {
AngleInDegrees = "92.97373";
};
}),
(553,600,o),
(643,501,o),
(643,339,cs,{
"Letterink-NibData" = {
AngleInDegrees = "180";
};
}),
(643,163,o),
(537,65,o),
(345,65,cs,{
"Letterink-NibData" = {
AngleInDegrees = "270";
};
}),
(314,65,o),
(274,67,o),
(232,70,c),
(232,560,l,{
"Letterink-NibData" = {
AngleInDegrees = "270";
};
}),
(150,560,l,{
"Letterink-NibData" = {
AngleInDegrees = "180";
};
}),
(150,1,l,{
"Letterink-NibData" = {
AngleInDegrees = "95.10217";
};
}),
(206,-4,ls,{
"Letterink-NibData" = {
AngleInDegrees = "95.12819";
};
}),
(272,-10,o),
(274,-10,o)
);
}
);
width = 769;
},
{
background = {
anchors = (
{
name = bottom;
pos = (387,0);
},
{
name = center;
pos = (405,-8);
},
{
name = top;
pos = (405,-8);
}
);
hints = (
{
name = _corner.caps_swash;
origin = (0,7);
type = Corner;
}
);
shapes = (
{
closed = 1;
nodes = (
(354,-9,ls,{
"Letterink-NibData" = {
AngleInDegrees = 90;
};
}),
(542,-9,o),
(691,122,o),
(691,342,cs),
(691,535,o),
(576,690,o),
(374,690,c,{
"Letterink-NibData" = {
AngleInDegrees = 270.19689;
};
}),
(113,691,l,{
"Letterink-NibData" = {
AngleInDegrees = 180;
};
}),
(113,651,l,{
"Letterink-NibData" = {
AngleInDegrees = 90;
};
}),
(364,651,l,{
"Letterink-NibData" = {
AngleInDegrees = 90;
};
}),
(527,651,o),
(649,535,o),
(649,349,cs,{
"Letterink-NibData" = {
AngleInDegrees = 180;
};
}),
(649,161,o),
(540,30,o),
(326,30,cs,{
"Letterink-NibData" = {
AngleInDegrees = 270;
};
}),
(303,30,o),
(247,32,o),
(185,35,c),
(185,573,l,{
"Letterink-NibData" = {
AngleInDegrees = 270;
};
}),
(143,573,l,{
"Letterink-NibData" = {
AngleInDegrees = 180;
};
}),
(143,0,l,{
"Letterink-NibData" = {
AngleInDegrees = 94.28915;
};
}),
(183,-3,ls,{
"Letterink-NibData" = {
AngleInDegrees = 93.66779;
};
}),
(262,-9,o),
(271,-9,o),
(310,-9,cs,{
"Letterink-NibData" = {
AngleInDegrees = 90;
};
})
);
}
);
};
hints = (
{
name = _corner.caps_swash;
origin = (0,7);
type = Corner;
}
);
layerId = "49C16FD3-6177-408B-A733-AEB3898BB77C";
shapes = (
{
closed = 1;
nodes = (
(371,-9,cs,{
"Letterink-NibData" = {
AngleInDegrees = "90";
};
}),
(574,-9,o),
(708,131,o),
(708,342,cs),
(708,541,o),
(584,672,o),
(391,684,c,{
"Letterink-NibData" = {
AngleInDegrees = "270.22037";
};
}),
(142,685,l,{
"Letterink-NibData" = {
AngleInDegrees = "180";
};
}),
(142,649,l,{
"Letterink-NibData" = {
AngleInDegrees = "90";
};
}),
(382,649,l,{
"Letterink-NibData" = {
AngleInDegrees = "93.25194999999999";
};
}),
(561,639,o),
(669,524,o),
(669,339,cs,{
"Letterink-NibData" = {
AngleInDegrees = "180";
};
}),
(669,141,o),
(555,26,o),
(349,26,cs,{
"Letterink-NibData" = {
AngleInDegrees = "270";
};
}),
(284,26,o),
(197,29,o),
(180,31,c),
(180,569,l,{
"Letterink-NibData" = {
AngleInDegrees = "270";
};
}),
(142,569,l,{
"Letterink-NibData" = {
AngleInDegrees = "180";
};
}),
(142,0,l,{
"Letterink-NibData" = {
AngleInDegrees = "94.18492000000001";
};
}),
(181,-3,ls,{
"Letterink-NibData" = {
AngleInDegrees = "94.20536";
};
}),
(248,-8,o),
(292,-9,o)
);
}
);
width = 764;
},
{
background = {
anchors = (
{
name = bottom;
pos = (460,0);
},
{
name = center;
pos = (485,11);
},
{
name = top;
pos = (485,11);
}
);
hints = (
{
name = _corner.caps_swash;
origin = (0,7);
type = Corner;
}
);
shapes = (
{
closed = 1;
nodes = (
(424,-10,ls,{
"Letterink-NibData" = {
AngleInDegrees = 90;
};
}),
(628,-10,o),
(773,138,o),
(773,342,cs),
(773,532,o),
(646,678,o),
(454,690,c,{
"Letterink-NibData" = {
AngleInDegrees = 270.20033;
};
}),
(198,691,l,{
"Letterink-NibData" = {
AngleInDegrees = 180;
};
}),
(198,615,l,{
"Letterink-NibData" = {
AngleInDegrees = 90;
};
}),
(443,615,l,{
"Letterink-NibData" = {
AngleInDegrees = 93.55173;
};
}),
(588,606,o),
(691,517,o),
(691,342,cs,{
"Letterink-NibData" = {
AngleInDegrees = 180;
};
}),
(691,175,o),
(598,66,o),
(386,66,cs,{
"Letterink-NibData" = {
AngleInDegrees = 270;
};
}),
(359,66,o),
(333,69,o),
(299,71,c),
(299,559,l,{
"Letterink-NibData" = {
AngleInDegrees = 270;
};
}),
(217,559,l,{
"Letterink-NibData" = {
AngleInDegrees = 180;
};
}),
(217,1,l,{
"Letterink-NibData" = {
AngleInDegrees = 95.01311;
};
}),
(274,-4,ls,{
"Letterink-NibData" = {
AngleInDegrees = 94.93922;
};
}),
(343,-10,o),
(342,-10,o),
(384,-10,cs,{
"Letterink-NibData" = {
AngleInDegrees = 90;
};
})
);
}
);
};
hints = (
{
name = _corner.caps_swash;
origin = (0,7);
type = Corner;
}
);
layerId = m004;
shapes = (
{
closed = 1;
nodes = (
(382,-10,cs,{
"Letterink-NibData" = {
AngleInDegrees = "90";
};
}),
(640,-10,o),
(778,151,o),
(778,341,cs),
(778,523,o),
(651,672,o),
(456,684,c,{
"Letterink-NibData" = {
AngleInDegrees = "270.21459";
};
}),
(184,685,l,{
"Letterink-NibData" = {
AngleInDegrees = "180";
};
}),
(184,536,l,{
"Letterink-NibData" = {
AngleInDegrees = "90";
};
}),
(441,536,l,{
"Letterink-NibData" = {
AngleInDegrees = "92.97373";
};
}),
(564,532,o),
(613,448,o),
(613,346,cs,{
"Letterink-NibData" = {
AngleInDegrees = "180";
};
}),
(613,212,o),
(529,141,o),
(419,141,cs,{
"Letterink-NibData" = {
AngleInDegrees = "270";
};
}),
(401,141,o),
(372,143,o),
(349,146,c),
(349,499,l,{
"Letterink-NibData" = {
AngleInDegrees = "270";
};
}),
(184,499,l,{
"Letterink-NibData" = {
AngleInDegrees = "180";
};
}),
(184,5,l,{
"Letterink-NibData" = {
AngleInDegrees = "95.10217";
};
}),
(274,-4,ls,{
"Letterink-NibData" = {
AngleInDegrees = "95.12819";
};
}),
(308,-7,o),
(353,-10,o)
);
}
);
width = 810;
}
);
metricLeft = E;
metricRight = O;
userData = {
position = 674;
width = 60;
};
},
{
glyphname = E;
kernLeft = E;
kernRight = E;
layers = (
{
anchors = (
{
name = bottom;
pos = (385,2);
},
{
name = ogonek;
pos = (619,-1);
},
{
name = top;
pos = (366,684);
},
{
name = topleft;
pos = (55,684);
}
);
hints = (
{
name = _corner.caps_left;
origin = (0,10);
type = Corner;
}
);
layerId = "0CAF3BED-C4AC-4024-B3E1-4C69D1EF7EC0";
shapes = (
{
closed = 1;
nodes = (
(596,-1,l),
(596,75,l,{
"Letterink-NibData" = {
AngleInDegrees = "270";
};
}),
(209,75,l),
(209,323,l,{
"Letterink-NibData" = {
AngleInDegrees = "90";
};
}),
(480,323,l),
(480,399,l,{
"Letterink-NibData" = {
AngleInDegrees = "270";
};
}),
(209,399,l),
(209,608,l,{
"Letterink-NibData" = {
AngleInDegrees = "90";
};
}),
(577,608,l),
(577,684,l,{
"Letterink-NibData" = {
AngleInDegrees = "270";
};
}),
(127,684,l,{
"Letterink-NibData" = {
AngleInDegrees = "180";
};
}),
(127,-1,l,{
"Letterink-NibData" = {
AngleInDegrees = "90";
};
})
);
}
);
width = 632;
},
{
anchors = (
{
name = bottom;
pos = (333,0);
},
{
name = ogonek;
pos = (552,1);
},
{
name = top;
pos = (340,684);
},
{
name = topleft;
pos = (26,684);
}
);
hints = (
{
name = _corner.caps_left;
origin = (0,10);
type = Corner;
}
);
layerId = "49C16FD3-6177-408B-A733-AEB3898BB77C";
shapes = (
{
closed = 1;
nodes = (
(553,0,l),
(553,36,l,{
"Letterink-NibData" = {
AngleInDegrees = 270;
};
}),
(167,36,l),
(167,346,l,{
"Letterink-NibData" = {
AngleInDegrees = 90;
};
}),
(430,346,l),
(430,382,l,{
"Letterink-NibData" = {
AngleInDegrees = 270;
};
}),
(167,382,l),
(167,649,l,{
"Letterink-NibData" = {
AngleInDegrees = 90;
};
}),
(555,649,l),
(555,685,l,{
"Letterink-NibData" = {
AngleInDegrees = 269.86613;
};
}),
(129,684,l,{
"Letterink-NibData" = {
AngleInDegrees = 180;
};
}),
(129,0,l,{
"Letterink-NibData" = {
AngleInDegrees = 90;
};
})
);
}
);
width = 597;
},
{
anchors = (
{
name = bottom;
pos = (420,0);
},
{
name = ogonek;
pos = (643,0);
},
{
name = top;
pos = (422,684);
},
{
name = topleft;
pos = (161,684);
}
);
hints = (
{
name = _corner.caps_left;
origin = (0,10);
type = Corner;
}
);
layerId = m004;
shapes = (
{
closed = 1;
nodes = (
(623,0,l),
(623,148,l,{
"Letterink-NibData" = {
AngleInDegrees = "270";
};
}),
(327,148,l),
(327,273,l,{
"Letterink-NibData" = {
AngleInDegrees = "90";
};
}),
(527,273,l),
(527,421,l,{
"Letterink-NibData" = {
AngleInDegrees = "270";
};
}),
(327,421,l),
(327,536,l,{
"Letterink-NibData" = {
AngleInDegrees = "90";
};
}),
(613,536,l),
(613,684,l,{
"Letterink-NibData" = {
AngleInDegrees = "270";
};
}),
(161,684,l,{
"Letterink-NibData" = {
AngleInDegrees = "180";
};
}),
(161,0,l,{
"Letterink-NibData" = {
AngleInDegrees = "90";
};
})
);
}
);
width = 663;
}
);
unicode = 69;
userData = {
position = 130;
width = 61;
};
},
{
glyphname = E.ss01;
kernLeft = L;
kernRight = E;
layers = (
{
anchors = (
{
name = bottom;
pos = (322,0);
},
{
name = ogonek;
pos = (553,-1);
},
{
name = top;
pos = (324,685);
},
{
name = topleft;
pos = (20,684);
}
);
layerId = "0CAF3BED-C4AC-4024-B3E1-4C69D1EF7EC0";
shapes = (
{
closed = 1;
nodes = (
(553,-1,l),
(553,75,l,{
"Letterink-NibData" = {
AngleInDegrees = 270;
};
}),
(166,75,l),
(166,323,l,{
"Letterink-NibData" = {
AngleInDegrees = 90;
};
}),
(437,323,l),
(437,399,l,{
"Letterink-NibData" = {
AngleInDegrees = 270;
};
}),
(166,399,l),
(166,608,l,{
"Letterink-NibData" = {
AngleInDegrees = 90;
};
}),
(534,608,l),
(534,684,l,{
"Letterink-NibData" = {
AngleInDegrees = 270;
};
}),
(84,684,l,{
"Letterink-NibData" = {
AngleInDegrees = 180;
};
}),
(84,-1,l,{
"Letterink-NibData" = {
AngleInDegrees = 90;
};
})
);
}
);
width = 589;
},
{
anchors = (
{
name = bottom;
pos = (329,2);
},
{
name = ogonek;
pos = (551,1);
},
{
name = top;
pos = (327,684);
},
{
name = topleft;
pos = (35,684);
}
);
layerId = "49C16FD3-6177-408B-A733-AEB3898BB77C";
shapes = (
{
closed = 1;
nodes = (
(551,0,l),
(551,36,l,{
"Letterink-NibData" = {
AngleInDegrees = 270;
};
}),
(139,36,l),
(139,346,l,{
"Letterink-NibData" = {
AngleInDegrees = 90;
};
}),
(428,346,l),
(428,382,l,{
"Letterink-NibData" = {
AngleInDegrees = 270;
};
}),
(139,382,l),
(139,649,l,{
"Letterink-NibData" = {
AngleInDegrees = 90;
};
}),
(531,649,l),
(531,685,l,{
"Letterink-NibData" = {
AngleInDegrees = 270;
};
}),
(100,685,l,{
"Letterink-NibData" = {
AngleInDegrees = 180;
};
}),
(100,0,l,{
"Letterink-NibData" = {
AngleInDegrees = 90;
};
})
);
}
);
width = 593;
},
{
anchors = (
{
name = bottom;
pos = (315,0);
},
{
name = ogonek;
pos = (559,-5);
},
{
name = top;
pos = (302,687);
},
{
name = topleft;
pos = (58,684);
}
);
layerId = m004;
shapes = (
{
closed = 1;
nodes = (
(550,0,l),
(550,148,l,{
"Letterink-NibData" = {
AngleInDegrees = 270;
};
}),
(224,148,l),
(224,273,l,{
"Letterink-NibData" = {
AngleInDegrees = 90;
};
}),
(454,273,l),
(454,421,l,{
"Letterink-NibData" = {
AngleInDegrees = 270;
};
}),
(224,421,l),
(224,536,l,{
"Letterink-NibData" = {
AngleInDegrees = 90;
};
}),
(540,536,l),
(540,684,l,{
"Letterink-NibData" = {
AngleInDegrees = 270;
};
}),
(58,684,l,{
"Letterink-NibData" = {
AngleInDegrees = 180;
};
}),
(58,0,l,{
"Letterink-NibData" = {
AngleInDegrees = 90;
};
})
);
}
);
width = 590;
}
);
metricLeft = N.ss01;
metricRight = E;
userData = {
position = 95;
width = 61;
};
},
{
glyphname = E.swsh;
kernLeft = Swash;
kernRight = E;
layers = (
{
anchors = (
{
name = bottom;
pos = (405,0);
},
{
name = ogonek;
pos = (623,0);
},
{
name = top;
pos = (398,684);
},
{
name = topleft;
pos = (6,684);
}
);
hints = (
{
name = _corner.caps_swash;
origin = (1,3);
type = Corner;
}
);
layerId = "0CAF3BED-C4AC-4024-B3E1-4C69D1EF7EC0";
shapes = (
{
closed = 1;
nodes = (
(623,0,l),
(623,76,l,{
"Letterink-NibData" = {
AngleInDegrees = 270;
};
}),
(257,76,l),
(257,325,l,{
"Letterink-NibData" = {
AngleInDegrees = 90;
};
}),
(507,325,l),
(507,401,l,{
"Letterink-NibData" = {
AngleInDegrees = 270;
};
}),
(257,401,l),
(257,559,l,{
"Letterink-NibData" = {
AngleInDegrees = 270;
};
}),
(175,559,l,{
"Letterink-NibData" = {
AngleInDegrees = 180;
};
}),
(175,0,l,{
"Letterink-NibData" = {
AngleInDegrees = 90;
};
})
);
},
{
closed = 1;
nodes = (
(150,609,l,{
"Letterink-NibData" = {
AngleInDegrees = 90;
};
}),
(623,609,l),
(623,685,l,{
"Letterink-NibData" = {
AngleInDegrees = 270;
};
}),
(150,685,l,{
"Letterink-NibData" = {
AngleInDegrees = 180;
};
})
);
}
);
width = 659;
},
{
anchors = (
{
name = bottom;
pos = (397,0);
},
{
name = ogonek;
pos = (605,0);
},
{
name = top;
pos = (387,684);
},
{
name = topleft;
pos = (-9,684);
}
);
hints = (
{
name = _corner.caps_swash;
origin = (1,3);
type = Corner;
}
);
layerId = "49C16FD3-6177-408B-A733-AEB3898BB77C";
shapes = (
{
closed = 1;
nodes = (
(605,0,l),
(605,36,l,{
"Letterink-NibData" = {
AngleInDegrees = 270;
};
}),
(213,36,l),
(213,346,l,{
"Letterink-NibData" = {
AngleInDegrees = 90;
};
}),
(481,346,l),
(481,382,l,{
"Letterink-NibData" = {
AngleInDegrees = 270;
};
}),
(213,382,l),
(213,570,l,{
"Letterink-NibData" = {
AngleInDegrees = 270;
};
}),
(176,570,l,{
"Letterink-NibData" = {
AngleInDegrees = 180;
};
}),
(176,0,l,{
"Letterink-NibData" = {
AngleInDegrees = 90;
};
})
);
},
{
closed = 1;
nodes = (
(142,648,l,{
"Letterink-NibData" = {
AngleInDegrees = 90;
};
}),
(605,648,l),
(605,684,l,{
"Letterink-NibData" = {
AngleInDegrees = 270;
};
}),
(142,684,l,{
"Letterink-NibData" = {
AngleInDegrees = 180;
};
})
);
}
);
width = 647;
},
{
anchors = (
{
name = bottom;
pos = (435,0);
},
{
name = ogonek;
pos = (666,0);
},
{
name = top;
pos = (423,684);
},
{
name = topleft;
pos = (-25,728);
}
);
hints = (
{
name = _corner.caps_swash;
origin = (1,3);
type = Corner;
}
);
layerId = m004;
shapes = (
{
closed = 1;
nodes = (
(666,0,l),
(666,148,l,{
"Letterink-NibData" = {
AngleInDegrees = "270";
};
}),
(350,148,l),
(350,276,l,{
"Letterink-NibData" = {
AngleInDegrees = "90";
};
}),
(570,276,l),
(570,424,l,{
"Letterink-NibData" = {
AngleInDegrees = "270";
};
}),
(350,424,l),
(350,501,l,{
"Letterink-NibData" = {
AngleInDegrees = "90";
};
}),
(184,500,l,{
"Letterink-NibData" = {
AngleInDegrees = "180";
};
}),
(184,0,l,{
"Letterink-NibData" = {
AngleInDegrees = "90";
};
})
);
},
{
closed = 1;
nodes = (
(184,536,l),
(656,536,l),
(656,684,l,{
"Letterink-NibData" = {
AngleInDegrees = "270";
};
}),
(184,684,l,{
"Letterink-NibData" = {
AngleInDegrees = "180";
};
})
);
}
);
width = 706;
}
);
metricLeft = E;
metricRight = E;
userData = {
position = 130;
width = 61;
};
},
{
glyphname = Schwa;
kernLeft = O;
kernRight = O;
layers = (
{
anchors = (
{
name = bottom;
pos = (323,-14);
},
{
name = ogonek;
pos = (544,85);
},
{
name = top;
pos = (324,701);
}
);
layerId = "49C16FD3-6177-408B-A733-AEB3898BB77C";
shapes = (
{
closed = 1;
nodes = (
(238,701,o),
(156,679,o),
(85,630,c,{
"Letterink-NibData" = {
AngleInDegrees = 328.49573;
};
}),
(101,604,l,{
"Letterink-NibData" = {
AngleInDegrees = 241.38954;
};
}),
(179,648,o),
(239,668,o),
(314,668,cs,{
"Letterink-NibData" = {
AngleInDegrees = 270;
};
}),
(571,668,o),
(594,442,o),
(594,359,cs),
(594,168,o),
(486,16,o),
(321,16,cs,{
"Letterink-NibData" = {
AngleInDegrees = 90;
};
}),
(198,16,o),
(94,121,o),
(94,267,cs,{
"Letterink-NibData" = {
AngleInDegrees = 180;
};
}),
(94,278,o),
(95,315,o),
(102,351,c,{
"Letterink-NibData" = {
AngleInDegrees = 90;
};
}),
(63,351,l,{
"Letterink-NibData" = {
AngleInDegrees = 4.96974;
};
}),
(60,316,o),
(58,291,o),
(58,270,cs),
(58,99,o),
(166,-12,o),
(323,-14,cs,{
"Letterink-NibData" = {
AngleInDegrees = 270.42128;
};
}),
(503,-16,o),
(629,128,o),
(629,365,cs,{
"Letterink-NibData" = {
AngleInDegrees = 180;
};
}),
(629,566,o),
(522,701,o),
(324,701,cs,{
"Letterink-NibData" = {
AngleInDegrees = 90;
};
})
);
},
{
closed = 1;
nodes = (
(89,351,l),
(89,318,l,{
"Letterink-NibData" = {
AngleInDegrees = 270;
};
}),
(601,318,l,{
"Letterink-NibData" = {
AngleInDegrees = 180;
};
}),
(601,351,l,{
"Letterink-NibData" = {
AngleInDegrees = 90;
};
})
);
}
);
userData = {
RMXScaler = {
height = 140;
weight = -145;
width = 135;
};
};
width = 690;
},
{
anchors = (
{
name = bottom;
pos = (326,0);
},
{
name = ogonek;
pos = (614,68);
},
{
name = top;
pos = (326,712);
}
);
layerId = "0CAF3BED-C4AC-4024-B3E1-4C69D1EF7EC0";
shapes = (
{
closed = 1;
nodes = (
(233,712,o),
(138,683,o),
(70,629,c,{
"Letterink-NibData" = {
AngleInDegrees = 328.49573;
};
}),
(106,569,l,{
"Letterink-NibData" = {
AngleInDegrees = 235.0806;
};
}),
(185,621,o),
(247,635,o),
(321,635,cs,{
"Letterink-NibData" = {
AngleInDegrees = 270;
};
}),
(543,635,o),
(556,442,o),
(556,370,cs),
(556,169,o),
(451,62,o),
(326,62,cs,{
"Letterink-NibData" = {
AngleInDegrees = 90;
};
}),
(216,62,o),
(128,153,o),
(128,273,cs,{
"Letterink-NibData" = {
AngleInDegrees = 180;
};
}),
(128,301,o),
(132,337,o),
(138,377,c,{
"Letterink-NibData" = {
AngleInDegrees = 90;
};
}),
(50,377,l,{
"Letterink-NibData" = {
AngleInDegrees = 4.08562;
};
}),
(48,342,o),
(44,313,o),
(44,277,cs),
(44,113,o),
(167,-15,o),
(325,-15,cs,{
"Letterink-NibData" = {
AngleInDegrees = 270;
};
}),
(530,-15,o),
(640,177,o),
(640,369,cs,{
"Letterink-NibData" = {
AngleInDegrees = 180;
};
}),
(640,568,o),
(528,712,o),
(326,712,cs,{
"Letterink-NibData" = {
AngleInDegrees = 90;
};
})
);
},
{
closed = 1;
nodes = (
(81,377,l),
(81,300,l,{
"Letterink-NibData" = {
AngleInDegrees = 270;
};
}),
(613,300,l,{
"Letterink-NibData" = {
AngleInDegrees = 180;
};
}),
(613,377,l,{
"Letterink-NibData" = {
AngleInDegrees = 90;
};
})
);
}
);
userData = {
RMXScaler = {
height = 140;
weight = -120;
width = 135;
};
};
width = 686;
},
{
anchors = (
{
name = bottom;
pos = (355,48);
},
{
name = ogonek;
pos = (659,96);
},
{
name = top;
pos = (351,697);
}
);
layerId = m004;
shapes = (
{
closed = 1;
nodes = (
(208,707,o),
(93,660,o),
(39,592,c,{
"Letterink-NibData" = {
AngleInDegrees = 328.49573;
};
}),
(121,476,l,{
"Letterink-NibData" = {
AngleInDegrees = 235.0806;
};
}),
(172,529,o),
(244,558,o),
(313,558,cs,{
"Letterink-NibData" = {
AngleInDegrees = 270;
};
}),
(454,558,o),
(474,437,o),
(474,354,cs),
(474,198,o),
(400,129,o),
(324,129,cs,{
"Letterink-NibData" = {
AngleInDegrees = 90;
};
}),
(259,129,o),
(204,184,o),
(204,264,cs,{
"Letterink-NibData" = {
AngleInDegrees = 180;
};
}),
(204,299,o),
(204,334,o),
(215,399,c,{
"Letterink-NibData" = {
AngleInDegrees = 90;
};
}),
(38,399,l,{
"Letterink-NibData" = {
AngleInDegrees = 4.08562;
};
}),
(32,354,o),
(29,316,o),
(29,268,cs),
(29,100,o),
(153,-18,o),
(321,-19,cs,{
"Letterink-NibData" = {
AngleInDegrees = 270;
};
}),
(533,-20,o),
(654,161,o),
(654,354,cs,{
"Letterink-NibData" = {
AngleInDegrees = 180;
};
}),
(654,550,o),
(535,707,o),
(324,707,cs,{
"Letterink-NibData" = {
AngleInDegrees = 90;
};
})
);
},
{
closed = 1;
nodes = (
(49,399,l),
(49,269,l,{
"Letterink-NibData" = {
AngleInDegrees = 270;
};
}),
(636,269,l,{
"Letterink-NibData" = {
AngleInDegrees = 180;
};
}),
(636,399,l,{
"Letterink-NibData" = {
AngleInDegrees = 90;
};
})
);
}
);
userData = {
RMXScaler = {
height = 140;
weight = 200;
width = 135;
};
};
width = 681;
}
);
unicode = 399;
userData = {
RMXScaler = {
source = e.ss01;
};
};
},
{
glyphname = F;
kernLeft = E;
kernRight = F;
layers = (
{
anchors = (
{
name = bottom;
pos = (341,0);
},
{
name = top;
pos = (342,684);
}
);
hints = (
{
name = _corner.caps_left;
origin = (0,8);
type = Corner;
}
);
layerId = "0CAF3BED-C4AC-4024-B3E1-4C69D1EF7EC0";
shapes = (
{
closed = 1;
nodes = (
(210,-1,l),
(210,323,l,{
"Letterink-NibData" = {
AngleInDegrees = 90;
};
}),
(460,323,l),
(460,400,l,{
"Letterink-NibData" = {
AngleInDegrees = 270;
};
}),
(210,400,l),
(210,609,l,{
"Letterink-NibData" = {
AngleInDegrees = 90;
};
}),
(546,609,l),
(546,685,l,{
"Letterink-NibData" = {
AngleInDegrees = 270;
};
}),
(127,685,l,{
"Letterink-NibData" = {
AngleInDegrees = 179.91648;
};
}),
(128,-1,l,{
"Letterink-NibData" = {
AngleInDegrees = 90;
};
})
);
}
);
width = 575;
},
{
anchors = (
{
name = bottom;
pos = (343,-18);
},
{
name = top;
pos = (345,684);
}
);
hints = (
{
name = _corner.caps_left;
origin = (0,8);
type = Corner;
}
);
layerId = "49C16FD3-6177-408B-A733-AEB3898BB77C";
shapes = (
{
closed = 1;
nodes = (
(167,0,l),
(167,345,l,{
"Letterink-NibData" = {
AngleInDegrees = 90;
};
}),
(434,345,l),
(434,381,l,{
"Letterink-NibData" = {
AngleInDegrees = 270;
};
}),
(167,381,l),
(167,648,l,{
"Letterink-NibData" = {
AngleInDegrees = 90;
};
}),
(527,648,l),
(527,684,l,{
"Letterink-NibData" = {
AngleInDegrees = 270;
};
}),
(129,684,l,{
"Letterink-NibData" = {
AngleInDegrees = 180;
};
}),
(129,0,l,{
"Letterink-NibData" = {
AngleInDegrees = 90;
};
})
);
}
);
width = 561;
},
{
anchors = (
{
name = bottom;
pos = (404,-3);
},
{
name = top;
pos = (406,684);
}
);
background = {
anchors = (
{
name = bottom;
pos = (349,0);
},
{
name = top;
pos = (349,684);
}
);
hints = (
{
name = _corner.caps_left;
origin = (0,8);
type = Corner;
}
);
shapes = (
{
closed = 1;
nodes = (
(257,-1,l),
(257,323,l,{
"Letterink-NibData" = {
AngleInDegrees = 90;
};
}),
(507,323,l),
(507,400,l,{
"Letterink-NibData" = {
AngleInDegrees = 270;
};
}),
(257,400,l),
(257,609,l,{
"Letterink-NibData" = {
AngleInDegrees = 90;
};
}),
(603,609,l),
(603,685,l,{
"Letterink-NibData" = {
AngleInDegrees = 270;
};
}),
(174,685,l,{
"Letterink-NibData" = {
AngleInDegrees = 179.91648;
};
}),
(175,-1,l,{
"Letterink-NibData" = {
AngleInDegrees = 90;
};
})
);
}
);
};
hints = (
{
name = _corner.caps_left;
origin = (0,8);
type = Corner;
}
);
layerId = m004;
shapes = (
{
closed = 1;
nodes = (
(328,0,l),
(327,263,l,{
"Letterink-NibData" = {
AngleInDegrees = "90";
};
}),
(527,263,l),
(527,411,l,{
"Letterink-NibData" = {
AngleInDegrees = "270";
};
}),
(327,411,l),
(327,536,l,{
"Letterink-NibData" = {
AngleInDegrees = "90";
};
}),
(613,536,l),
(613,684,l,{
"Letterink-NibData" = {
AngleInDegrees = "270";
};
}),
(161,684,l,{
"Letterink-NibData" = {
AngleInDegrees = "180";
};
}),
(161,0,l,{
"Letterink-NibData" = {
AngleInDegrees = "90";
};
})
);
}
);
width = 645;
}
);
metricLeft = E;
metricRight = "=E*.8";
unicode = 70;
userData = {
position = 129;
width = 61;
};
},
{
glyphname = F.ss01;
kernRight = F;
layers = (
{
anchors = (
{
name = bottom;
pos = (297,0);
},
{
name = top;
pos = (298,684);
}
);
layerId = "0CAF3BED-C4AC-4024-B3E1-4C69D1EF7EC0";
shapes = (
{
closed = 1;
nodes = (
(166,-1,l),
(166,315,l,{
"Letterink-NibData" = {
AngleInDegrees = 90;
};
}),
(444,315,l),
(444,393,l,{
"Letterink-NibData" = {
AngleInDegrees = 270;
};
}),
(166,393,l),
(166,608,l,{
"Letterink-NibData" = {
AngleInDegrees = 90;
};
}),
(512,608,l),
(512,686,l,{
"Letterink-NibData" = {
AngleInDegrees = 270;
};
}),
(84,686,l,{
"Letterink-NibData" = {
AngleInDegrees = 180;
};
}),
(84,-1,l,{
"Letterink-NibData" = {
AngleInDegrees = 90;
};
})
);
}
);
width = 541;
},
{
anchors = (
{
name = bottom;
pos = (301,0);
},
{
name = top;
pos = (303,684);
}
);
layerId = "49C16FD3-6177-408B-A733-AEB3898BB77C";
shapes = (
{
closed = 1;
nodes = (
(141,1,l),
(141,337,l,{
"Letterink-NibData" = {
AngleInDegrees = 90;
};
}),
(438,337,l),
(438,372,l,{
"Letterink-NibData" = {
AngleInDegrees = 270;
};
}),
(141,372,l),
(141,648,l,{
"Letterink-NibData" = {
AngleInDegrees = 90;
};
}),
(510,648,l),
(510,685,l,{
"Letterink-NibData" = {
AngleInDegrees = 270;
};
}),
(100,685,l,{
"Letterink-NibData" = {
AngleInDegrees = 180;
};
}),
(100,1,l,{
"Letterink-NibData" = {
AngleInDegrees = 90;
};
})
);
}
);
width = 544;
},
{
anchors = (
{
name = bottom;
pos = (292,-11);
},
{
name = top;
pos = (294,684);
}
);
layerId = m004;
shapes = (
{
closed = 1;
nodes = (
(225,1,l),
(224,263,l,{
"Letterink-NibData" = {
AngleInDegrees = "90";
};
}),
(444,263,l),
(444,411,l,{
"Letterink-NibData" = {
AngleInDegrees = "270";
};
}),
(224,411,l),
(224,536,l,{
"Letterink-NibData" = {
AngleInDegrees = "90";
};
}),
(530,536,l),
(530,684,l,{
"Letterink-NibData" = {
AngleInDegrees = "270";
};
}),
(58,684,l,{
"Letterink-NibData" = {
AngleInDegrees = "180";
};
}),
(58,1,l,{
"Letterink-NibData" = {
AngleInDegrees = "90";
};
})
);
}
);
width = 562;
}
);
metricLeft = N.ss01;
metricRight = "=E*.8";
userData = {
position = 95;
width = 61;
};
},
{
glyphname = F.swsh;
kernLeft = Swash;
kernRight = F;
layers = (
{
anchors = (
{
name = bottom;
pos = (368,0);
},
{
name = top;
pos = (362,684);
}
);
hints = (
{
name = _corner.caps_swash;
origin = (1,3);
type = Corner;
}
);
layerId = "0CAF3BED-C4AC-4024-B3E1-4C69D1EF7EC0";
shapes = (
{
closed = 1;
nodes = (
(259,-1,l),
(259,324,l,{
"Letterink-NibData" = {
AngleInDegrees = 90;
};
}),
(508,324,l),
(508,400,l,{
"Letterink-NibData" = {
AngleInDegrees = 270;
};
}),
(259,400,l),
(259,559,l,{
"Letterink-NibData" = {
AngleInDegrees = 270;
};
}),
(176,559,l,{
"Letterink-NibData" = {
AngleInDegrees = 180;
};
}),
(176,-1,l,{
"Letterink-NibData" = {
AngleInDegrees = 90;
};
})
);
},
{
closed = 1;
nodes = (
(150,608,l,{
"Letterink-NibData" = {
AngleInDegrees = 90;
};
}),
(604,608,l),
(604,684,l,{
"Letterink-NibData" = {
AngleInDegrees = 270;
};
}),
(150,684,l,{
"Letterink-NibData" = {
AngleInDegrees = 180;
};
})
);
}
);
width = 633;
},
{
anchors = (
{
name = bottom;
pos = (357,0);
},
{
name = top;
pos = (353,684);
}
);
hints = (
{
name = _corner.caps_swash;
origin = (1,3);
type = Corner;
}
);
layerId = "49C16FD3-6177-408B-A733-AEB3898BB77C";
shapes = (
{
closed = 1;
nodes = (
(213,0,l),
(213,345,l,{
"Letterink-NibData" = {
AngleInDegrees = 90;
};
}),
(481,345,l),
(481,381,l,{
"Letterink-NibData" = {
AngleInDegrees = 270;
};
}),
(213,381,l),
(213,570,l,{
"Letterink-NibData" = {
AngleInDegrees = 270;
};
}),
(175,570,l,{
"Letterink-NibData" = {
AngleInDegrees = 180;
};
}),
(175,0,l,{
"Letterink-NibData" = {
AngleInDegrees = 90;
};
})
);
},
{
closed = 1;
nodes = (
(142,648,l,{
"Letterink-NibData" = {
AngleInDegrees = 90;
};
}),
(585,648,l),
(585,684,l,{
"Letterink-NibData" = {
AngleInDegrees = 270;
};
}),
(142,684,l,{
"Letterink-NibData" = {
AngleInDegrees = 180;
};
})
);
}
);
width = 619;
},
{
anchors = (
{
name = bottom;
pos = (436,-4);
},
{
name = top;
pos = (439,684);
}
);
hints = (
{
name = _corner.caps_swash;
origin = (1,3);
type = Corner;
}
);
layerId = m004;
shapes = (
{
closed = 1;
nodes = (
(352,0,l),
(350,263,l,{
"Letterink-NibData" = {
AngleInDegrees = "90";
};
}),
(570,263,l),
(570,411,l,{
"Letterink-NibData" = {
AngleInDegrees = "270";
};
}),
(350,411,l),
(350,500,l,{
"Letterink-NibData" = {
AngleInDegrees = "90";
};
}),
(184,499,l),
(185,0,l,{
"Letterink-NibData" = {
AngleInDegrees = "90";
};
})
);
},
{
closed = 1;
nodes = (
(184,536,l),
(656,536,l),
(656,684,l,{
"Letterink-NibData" = {
AngleInDegrees = "270";
};
}),
(184,684,l,{
"Letterink-NibData" = {
AngleInDegrees = "180";
};
})
);
}
);
width = 688;
}
);
metricLeft = E.swsh;
metricRight = F;
userData = {
position = 129;
width = 61;
};
},
{
glyphname = G;
kernLeft = O;
kernRight = O;
layers = (
{
anchors = (
{
name = bottom;
pos = (378,-9);
},
{
name = top;
pos = (378,689);
}
);
background = {
shapes = (
{
closed = 1;
nodes = (
(581,-25,o),
(727,126,o),
(727,326,cs),
(727,355,ls),
(727,548,o),
(575,702,o),
(385,702,cs,{
"Letterink-NibData" = {
AngleInDegrees = "270";
};
}),
(195,702,o),
(44,548,o),
(44,355,cs,{
"Letterink-NibData" = {
AngleInDegrees = "180";
};
}),
(44,326,ls,{
"Letterink-NibData" = {
AngleInDegrees = "180";
};
}),
(44,126,o),
(188,-19,o),
(389,-22,cs,{
"Letterink-NibData" = {
AngleInDegrees = "90.89517371732774";
};
})
);
},
{
closed = 1;
nodes = (
(238,54,o),
(126,170,o),
(126,326,cs),
(126,355,ls),
(126,504,o),
(240,626,o),
(384,626,cs,{
"Letterink-NibData" = {
AngleInDegrees = "90";
};
}),
(530,626,o),
(645,504,o),
(645,355,cs,{
"Letterink-NibData" = {
AngleInDegrees = "180";
};
}),
(645,326,ls,{
"Letterink-NibData" = {
AngleInDegrees = "180";
};
}),
(645,170,o),
(533,54,o),
(386,54,cs,{
"Letterink-NibData" = {
AngleInDegrees = "270";
};
})
);
}
);
};
layerId = "0CAF3BED-C4AC-4024-B3E1-4C69D1EF7EC0";
shapes = (
{
closed = 1;
nodes = (
(481,454,l),
(503,439,o),
(526,434,o),
(544,434,cs),
(598,434,o),
(648,477,o),
(648,541,cs),
(648,654,o),
(526,703,o),
(392,703,cs),
(201,703,o),
(44,539,o),
(44,339,cs),
(44,127,o),
(195,-21,o),
(396,-21,cs),
(594,-21,o),
(702,136,o),
(696,332,cs),
(696,342,l),
(380,342,l),
(380,272,l),
(659,272,l),
(618,303,l),
(621,158,o),
(547,55,o),
(396,55,cs),
(241,55,o),
(124,164,o),
(124,339,cs),
(124,504,o),
(239,627,o),
(392,627,cs),
(524,627,o),
(570,575,o),
(570,541,cs),
(570,527,o),
(561,508,o),
(544,508,cs),
(538,508,o),
(529,509,o),
(521,514,c)
);
}
);
width = 739;
},
{
anchors = (
{
name = bottom;
pos = (393,0);
},
{
name = top;
pos = (391,688);
}
);
background = {
shapes = (
{
closed = 1;
nodes = (
(594,-14,o),
(736,131,o),
(736,331,cs),
(736,350,ls),
(736,550,o),
(588,702,o),
(394,702,cs,{
"Letterink-NibData" = {
AngleInDegrees = "270";
};
}),
(200,702,o),
(54,551,o),
(54,350,cs,{
"Letterink-NibData" = {
AngleInDegrees = "180";
};
}),
(54,331,ls,{
"Letterink-NibData" = {
AngleInDegrees = "180";
};
}),
(54,133,o),
(201,-14,o),
(398,-14,cs,{
"Letterink-NibData" = {
AngleInDegrees = "90";
};
})
);
},
{
closed = 1;
nodes = (
(224,24,o),
(96,156,o),
(96,331,cs),
(96,350,ls),
(96,526,o),
(225,662,o),
(393,662,cs,{
"Letterink-NibData" = {
AngleInDegrees = "90";
};
}),
(562,662,o),
(694,526,o),
(694,350,cs,{
"Letterink-NibData" = {
AngleInDegrees = "180";
};
}),
(694,331,ls,{
"Letterink-NibData" = {
AngleInDegrees = "180";
};
}),
(694,156,o),
(565,24,o),
(395,24,cs,{
"Letterink-NibData" = {
AngleInDegrees = "270";
};
})
);
}
);
};
layerId = "49C16FD3-6177-408B-A733-AEB3898BB77C";
shapes = (
{
closed = 1;
nodes = (
(509,463,l),
(528,449,o),
(548,446,o),
(563,446,cs),
(604,446,o),
(645,484,o),
(645,538,cs),
(645,620,o),
(545,696,o),
(391,696,cs),
(209,696,o),
(56,555,o),
(56,340,cs),
(56,130,o),
(196,-14,o),
(399,-14,cs),
(577,-14,o),
(700,118,o),
(700,311,cs),
(700,330,l),
(410,330,l),
(410,292,l),
(682,292,l),
(663,311,l),
(658,135,o),
(556,25,o),
(399,25,cs),
(212,25,o),
(94,153,o),
(94,340,cs),
(94,528,o),
(225,658,o),
(391,658,cs),
(535,658,o),
(606,585,o),
(607,538,cs),
(608,514,o),
(592,485,o),
(563,485,cs),
(552,485,o),
(540,488,o),
(531,494,c)
);
}
);
width = 755;
},
{
anchors = (
{
name = bottom;
pos = (392,-35);
},
{
name = top;
pos = (402,683);
}
);
associatedMasterId = "49C16FD3-6177-408B-A733-AEB3898BB77C";
layerId = "D0E3D1AC-81E4-4FC2-A1B9-BDF5A86A417E";
name = "3 Jan 22, 15:37";
shapes = (
{
closed = 1;
nodes = (
(537,-20,o),
(678,85,o),
(678,253,c),
(678,296,l,{
"Letterink-NibData" = {
AngleInDegrees = 270;
};
}),
(636,296,l,{
"Letterink-NibData" = {
AngleInDegrees = 180;
};
}),
(636,251,l,{
"Letterink-NibData" = {
AngleInDegrees = 180;
};
}),
(636,124,o),
(523,20,o),
(392,20,cs,{
"Letterink-NibData" = {
AngleInDegrees = 270;
};
}),
(227,20,o),
(103,157,o),
(103,329,cs),
(103,504,o),
(232,658,o),
(402,658,cs,{
"Letterink-NibData" = {
AngleInDegrees = 90;
};
}),
(466,658,o),
(587,637,o),
(587,563,cs,{
"Letterink-NibData" = {
AngleInDegrees = 180;
};
}),
(587,537,o),
(570,514,o),
(547,514,cs,{
"Letterink-NibData" = {
AngleInDegrees = 270;
};
}),
(537,514,o),
(529,518,o),
(524,524,c,{
"Letterink-NibData" = {
AngleInDegrees = 218.23383;
};
}),
(498,491,l,{
"Letterink-NibData" = {
AngleInDegrees = 138.36646;
};
}),
(506,482,o),
(524,473,o),
(546,473,cs,{
"Letterink-NibData" = {
AngleInDegrees = 90;
};
}),
(594,473,o),
(628,509,o),
(628,563,cs),
(628,669,o),
(486,698,o),
(401,698,cs,{
"Letterink-NibData" = {
AngleInDegrees = 270;
};
}),
(203,698,o),
(61,531,o),
(61,330,cs,{
"Letterink-NibData" = {
AngleInDegrees = 180;
};
}),
(61,138,o),
(198,-20,o),
(392,-20,cs,{
"Letterink-NibData" = {
AngleInDegrees = 90;
};
})
);
},
{
closed = 1;
nodes = (
(678,293,l),
(678,335,l,{
"Letterink-NibData" = {
AngleInDegrees = 270;
};
}),
(387,335,l,{
"Letterink-NibData" = {
AngleInDegrees = 180;
};
}),
(387,293,l,{
"Letterink-NibData" = {
AngleInDegrees = 90;
};
})
);
}
);
width = 735;
},
{
anchors = (
{
name = bottom;
pos = (390,-16);
},
{
name = top;
pos = (393,684);
}
);
associatedMasterId = "0CAF3BED-C4AC-4024-B3E1-4C69D1EF7EC0";
layerId = "801CC91F-0C96-44A6-9720-FE52325A0B43";
name = "3 Jan 22, 15:45";
shapes = (
{
closed = 1;
nodes = (
(541,-13,o),
(683,104,o),
(683,271,cs),
(683,319,l,{
"Letterink-NibData" = {
AngleInDegrees = 270;
};
}),
(600,319,l,{
"Letterink-NibData" = {
AngleInDegrees = 178.85424;
};
}),
(601,269,l,{
"Letterink-NibData" = {
AngleInDegrees = 180.96286;
};
}),
(599,150,o),
(504,63,o),
(390,63,cs,{
"Letterink-NibData" = {
AngleInDegrees = 270;
};
}),
(245,63,o),
(135,176,o),
(135,342,cs),
(135,497,o),
(245,620,o),
(399,620,cs,{
"Letterink-NibData" = {
AngleInDegrees = 90;
};
}),
(456,620,o),
(558,599,o),
(558,544,cs,{
"Letterink-NibData" = {
AngleInDegrees = 180;
};
}),
(558,530,o),
(551,518,o),
(537,517,cs,{
"Letterink-NibData" = {
AngleInDegrees = 264.28941;
};
}),
(527,516,o),
(517,523,o),
(511,528,c,{
"Letterink-NibData" = {
AngleInDegrees = 218.90414;
};
}),
(465,471,l,{
"Letterink-NibData" = {
AngleInDegrees = 136.54816;
};
}),
(483,452,o),
(511,442,o),
(536,442,cs,{
"Letterink-NibData" = {
AngleInDegrees = 90;
};
}),
(591,442,o),
(635,488,o),
(635,547,cs),
(635,656,o),
(481,696,o),
(398,696,cs,{
"Letterink-NibData" = {
AngleInDegrees = 270;
};
}),
(205,696,o),
(53,539,o),
(53,343,cs,{
"Letterink-NibData" = {
AngleInDegrees = 180;
};
}),
(53,141,o),
(196,-13,o),
(390,-13,cs,{
"Letterink-NibData" = {
AngleInDegrees = 90;
};
})
);
},
{
closed = 1;
nodes = (
(683,280,l),
(683,356,l,{
"Letterink-NibData" = {
AngleInDegrees = 270;
};
}),
(364,356,l,{
"Letterink-NibData" = {
AngleInDegrees = 180;
};
}),
(364,280,l,{
"Letterink-NibData" = {
AngleInDegrees = 90;
};
})
);
}
);
width = 734;
},
{
anchors = (
{
name = bottom;
pos = (390,-16);
},
{
name = top;
pos = (393,684);
}
);
associatedMasterId = "0CAF3BED-C4AC-4024-B3E1-4C69D1EF7EC0";
layerId = "F3CD14B1-1EDD-434D-B368-A4692BE06C00";
name = "5 Jan 22, 08:08";
shapes = (
{
attr = {
strokeHeight = 74;
strokeWidth = 80;
};
closed = 0;
nodes = (
(515,478,l,{
"Letterink-NibData" = {
AngleInDegrees = 116.56505;
};
}),
(525,473,o),
(534,471,o),
(543,471,cs,{
"Letterink-NibData" = {
AngleInDegrees = 90;
};
}),
(587,471,o),
(608,511,o),
(608,546,cs),
(608,617,o),
(519,674,o),
(391,668,cs,{
"Letterink-NibData" = {
AngleInDegrees = 267.25739;
};
}),
(224,660,o),
(90,522,o),
(90,334,cs,{
"Letterink-NibData" = {
AngleInDegrees = 180;
};
}),
(90,144,o),
(227,4,o),
(408,15,cs,{
"Letterink-NibData" = {
AngleInDegrees = 86.30861;
};
}),
(563,25,o),
(648,137,o),
(648,281,c,{
"Letterink-NibData" = {
AngleInDegrees = 358.26429;
};
}),
(647,314,l,{
"Letterink-NibData" = {
AngleInDegrees = 270.21221;
};
}),
(377,315,l,{
"Letterink-NibData" = {
AngleInDegrees = 270.21221;
};
})
);
}
);
width = 734;
},
{
anchors = (
{
name = bottom;
pos = (392,-35);
},
{
name = top;
pos = (402,683);
}
);
associatedMasterId = "49C16FD3-6177-408B-A733-AEB3898BB77C";
background = {
shapes = (
{
closed = 1;
nodes = (
(540,-19,o),
(678,85,o),
(678,253,c),
(678,296,l),
(636,296,l),
(636,251,l),
(636,124,o),
(523,20,o),
(392,20,cs),
(227,20,o),
(103,157,o),
(103,329,cs),
(103,504,o),
(232,658,o),
(402,658,cs),
(466,658,o),
(587,637,o),
(587,563,cs),
(587,537,o),
(570,514,o),
(547,514,cs),
(537,514,o),
(529,518,o),
(524,524,c),
(498,491,l),
(506,482,o),
(524,473,o),
(546,473,cs),
(594,473,o),
(628,509,o),
(628,563,cs),
(628,669,o),
(486,698,o),
(401,698,cs),
(203,698,o),
(61,531,o),
(61,330,cs),
(61,138,o),
(198,-21,o),
(392,-20,cs)
);
}
);
};
layerId = "F0F46AC2-3B0D-4489-B32E-B81CEA10F2A9";
name = "5 Jan 22, 08:18";
shapes = (
{
attr = {
strokeHeight = 38;
strokeWidth = 42;
};
closed = 0;
nodes = (
(518,484,l,{
"Letterink-NibData" = {
AngleInDegrees = 116.56505;
};
}),
(528,479,o),
(537,477,o),
(547,477,cs,{
"Letterink-NibData" = {
AngleInDegrees = 90;
};
}),
(591,477,o),
(613,519,o),
(613,556,cs),
(613,630,o),
(522,690,o),
(391,683,cs,{
"Letterink-NibData" = {
AngleInDegrees = 267.30572;
};
}),
(221,675,o),
(84,530,o),
(84,334,cs,{
"Letterink-NibData" = {
AngleInDegrees = 180;
};
}),
(84,135,o),
(224,-12,o),
(404,0,cs,{
"Letterink-NibData" = {
AngleInDegrees = 86.48932;
};
}),
(567,10,o),
(654,127,o),
(654,278,c,{
"Letterink-NibData" = {
AngleInDegrees = 358.36342;
};
}),
(653,313,l,{
"Letterink-NibData" = {
AngleInDegrees = 270.20759;
};
}),
(377,314,l,{
"Letterink-NibData" = {
AngleInDegrees = 270.20759;
};
})
);
}
);
width = 735;
},
{
anchors = (
{
name = bottom;
pos = (384,-10);
},
{
name = top;
pos = (384,703);
}
);
background = {
shapes = (
{
closed = 1;
nodes = (
(592,-25,o),
(738,126,o),
(738,326,cs),
(738,355,ls),
(738,548,o),
(586,702,o),
(396,702,cs,{
"Letterink-NibData" = {
AngleInDegrees = "270";
};
}),
(206,702,o),
(55,548,o),
(55,355,cs,{
"Letterink-NibData" = {
AngleInDegrees = "180";
};
}),
(55,326,ls,{
"Letterink-NibData" = {
AngleInDegrees = "180";
};
}),
(55,126,o),
(199,-19,o),
(400,-22,cs,{
"Letterink-NibData" = {
AngleInDegrees = "90.89517371732774";
};
})
);
},
{
closed = 1;
nodes = (
(249,54,o),
(137,170,o),
(137,326,cs),
(137,355,ls),
(137,504,o),
(251,626,o),
(395,626,cs,{
"Letterink-NibData" = {
AngleInDegrees = "90";
};
}),
(541,626,o),
(656,504,o),
(656,355,cs,{
"Letterink-NibData" = {
AngleInDegrees = "180";
};
}),
(656,326,ls,{
"Letterink-NibData" = {
AngleInDegrees = "180";
};
}),
(656,170,o),
(544,54,o),
(397,54,cs,{
"Letterink-NibData" = {
AngleInDegrees = "270";
};
})
);
}
);
};
layerId = m004;
shapes = (
{
closed = 1;
nodes = (
(436,419,l),
(458,397,o),
(490,385,o),
(525,385,cs),
(605,385,o),
(670,448,o),
(670,525,cs),
(670,632,o),
(554,713,o),
(401,713,cs),
(187,713,o),
(32,554,o),
(32,335,cs),
(32,124,o),
(179,-28,o),
(384,-28,cs),
(599,-28,o),
(724,113,o),
(713,342,cs),
(712,362,l),
(391,362,l),
(391,224,l),
(637,224,l),
(562,285,l),
(565,183,o),
(502,120,o),
(397,120,cs),
(275,120,o),
(197,204,o),
(197,333,cs),
(197,472,o),
(281,565,o),
(406,565,cs),
(467,565,o),
(531,541,o),
(531,513,cs),
(531,506,o),
(527,502,o),
(520,502,cs),
(512,502,o),
(509,505,o),
(504,509,c)
);
}
);
width = 745;
},
{
anchors = (
{
name = bottom;
pos = (390,-16);
},
{
name = top;
pos = (393,684);
}
);
associatedMasterId = m004;
layerId = "0E9EACE4-EA9D-4B48-AA91-148DF9A2A64E";
name = "3 Jan 22, 15:45";
shapes = (
{
closed = 1;
nodes = (
(541,-13,o),
(683,104,o),
(683,271,cs),
(683,319,l,{
"Letterink-NibData" = {
AngleInDegrees = 270;
};
}),
(600,319,l,{
"Letterink-NibData" = {
AngleInDegrees = 178.85424;
};
}),
(601,269,l,{
"Letterink-NibData" = {
AngleInDegrees = 180.96286;
};
}),
(599,150,o),
(504,63,o),
(390,63,cs,{
"Letterink-NibData" = {
AngleInDegrees = 270;
};
}),
(245,63,o),
(135,176,o),
(135,342,cs),
(135,497,o),
(245,620,o),
(399,620,cs,{
"Letterink-NibData" = {
AngleInDegrees = 90;
};
}),
(456,620,o),
(558,599,o),
(558,544,cs,{
"Letterink-NibData" = {
AngleInDegrees = 180;
};
}),
(558,530,o),
(551,518,o),
(537,517,cs,{
"Letterink-NibData" = {
AngleInDegrees = 264.28941;
};
}),
(527,516,o),
(517,523,o),
(511,528,c,{
"Letterink-NibData" = {
AngleInDegrees = 218.90414;
};
}),
(465,471,l,{
"Letterink-NibData" = {
AngleInDegrees = 136.54816;
};
}),
(483,452,o),
(511,442,o),
(536,442,cs,{
"Letterink-NibData" = {
AngleInDegrees = 90;
};
}),
(591,442,o),
(635,488,o),
(635,547,cs),
(635,656,o),
(481,696,o),
(398,696,cs,{
"Letterink-NibData" = {
AngleInDegrees = 270;
};
}),
(205,696,o),
(53,539,o),
(53,343,cs,{
"Letterink-NibData" = {
AngleInDegrees = 180;
};
}),
(53,141,o),
(196,-13,o),
(390,-13,cs,{
"Letterink-NibData" = {
AngleInDegrees = 90;
};
})
);
},
{
closed = 1;
nodes = (
(683,280,l),
(683,356,l,{
"Letterink-NibData" = {
AngleInDegrees = 270;
};
}),
(364,356,l,{
"Letterink-NibData" = {
AngleInDegrees = 180;
};
}),
(364,280,l,{
"Letterink-NibData" = {
AngleInDegrees = 90;
};
})
);
}
);
width = 734;
},
{
anchors = (
{
name = bottom;
pos = (390,-16);
},
{
name = top;
pos = (393,684);
}
);
associatedMasterId = m004;
layerId = "E2560365-B553-4320-8997-4873FFE2CB5E";
name = "5 Jan 22, 08:08";
shapes = (
{
attr = {
strokeHeight = 74;
strokeWidth = 80;
};
closed = 0;
nodes = (
(515,478,l,{
"Letterink-NibData" = {
AngleInDegrees = 116.56505;
};
}),
(525,473,o),
(534,471,o),
(543,471,cs,{
"Letterink-NibData" = {
AngleInDegrees = 90;
};
}),
(587,471,o),
(608,511,o),
(608,546,cs),
(608,617,o),
(519,674,o),
(391,668,cs,{
"Letterink-NibData" = {
AngleInDegrees = 267.25739;
};
}),
(224,660,o),
(90,522,o),
(90,334,cs,{
"Letterink-NibData" = {
AngleInDegrees = 180;
};
}),
(90,144,o),
(227,4,o),
(408,15,cs,{
"Letterink-NibData" = {
AngleInDegrees = 86.30861;
};
}),
(563,25,o),
(648,137,o),
(648,281,c,{
"Letterink-NibData" = {
AngleInDegrees = 358.26429;
};
}),
(647,314,l,{
"Letterink-NibData" = {
AngleInDegrees = 270.21221;
};
}),
(377,315,l,{
"Letterink-NibData" = {
AngleInDegrees = 270.21221;
};
})
);
}
);
width = 734;
}
);
metricLeft = O;
metricRight = "=O*.975";
note = "Bold: 98/95.5%";
unicode = 71;
userData = {
position = 593;
width = 57;
};
},
{
glyphname = G.ss01;
kernLeft = O;
kernRight = O;
layers = (
{
anchors = (
{
name = bottom;
pos = (389,-6);
},
{
name = top;
pos = (386,691);
}
);
background = {
shapes = (
{
closed = 1;
nodes = (
(578,-25,o),
(724,126,o),
(724,326,cs),
(724,355,ls),
(724,548,o),
(572,702,o),
(382,702,cs,{
"Letterink-NibData" = {
AngleInDegrees = "270";
};
}),
(192,702,o),
(41,548,o),
(41,355,cs,{
"Letterink-NibData" = {
AngleInDegrees = "180";
};
}),
(41,326,ls,{
"Letterink-NibData" = {
AngleInDegrees = "180";
};
}),
(41,126,o),
(185,-19,o),
(386,-22,cs,{
"Letterink-NibData" = {
AngleInDegrees = "90.89517371732774";
};
})
);
},
{
closed = 1;
nodes = (
(235,54,o),
(123,170,o),
(123,326,cs),
(123,355,ls),
(123,504,o),
(237,626,o),
(381,626,cs,{
"Letterink-NibData" = {
AngleInDegrees = "90";
};
}),
(527,626,o),
(642,504,o),
(642,355,cs,{
"Letterink-NibData" = {
AngleInDegrees = "180";
};
}),
(642,326,ls,{
"Letterink-NibData" = {
AngleInDegrees = "180";
};
}),
(642,170,o),
(530,54,o),
(383,54,cs,{
"Letterink-NibData" = {
AngleInDegrees = "270";
};
})
);
}
);
};
layerId = "0CAF3BED-C4AC-4024-B3E1-4C69D1EF7EC0";
shapes = (
{
closed = 1;
nodes = (
(668,535,l),
(638,639,o),
(526,709,o),
(392,709,cs),
(190,709,o),
(44,556,o),
(44,344,cs),
(44,133,o),
(187,-17,o),
(389,-17,cs),
(579,-17,o),
(705,117,o),
(705,320,cs),
(705,358,l),
(397,358,l),
(397,282,l),
(667,282,l),
(629,320,l),
(629,162,o),
(535,59,o),
(391,59,cs),
(235,59,o),
(124,178,o),
(124,345,cs),
(124,512,o),
(237,633,o),
(393,633,cs),
(492,633,o),
(574,584,o),
(596,513,c)
);
}
);
width = 749;
},
{
anchors = (
{
name = bottom;
pos = (393,-2);
},
{
name = top;
pos = (400,694);
}
);
background = {
shapes = (
{
closed = 1;
nodes = (
(589,-14,o),
(731,131,o),
(731,331,cs),
(731,350,ls),
(731,550,o),
(583,702,o),
(389,702,cs,{
"Letterink-NibData" = {
AngleInDegrees = "270";
};
}),
(195,702,o),
(49,551,o),
(49,350,cs,{
"Letterink-NibData" = {
AngleInDegrees = "180";
};
}),
(49,331,ls,{
"Letterink-NibData" = {
AngleInDegrees = "180";
};
}),
(49,133,o),
(196,-14,o),
(393,-14,cs,{
"Letterink-NibData" = {
AngleInDegrees = "90";
};
})
);
},
{
closed = 1;
nodes = (
(219,24,o),
(91,156,o),
(91,331,cs),
(91,350,ls),
(91,526,o),
(220,662,o),
(388,662,cs,{
"Letterink-NibData" = {
AngleInDegrees = "90";
};
}),
(557,662,o),
(689,526,o),
(689,350,cs,{
"Letterink-NibData" = {
AngleInDegrees = "180";
};
}),
(689,331,ls,{
"Letterink-NibData" = {
AngleInDegrees = "180";
};
}),
(689,156,o),
(560,24,o),
(390,24,cs,{
"Letterink-NibData" = {
AngleInDegrees = "270";
};
})
);
}
);
};
layerId = "49C16FD3-6177-408B-A733-AEB3898BB77C";
shapes = (
{
closed = 1;
nodes = (
(665,535,l),
(636,625,o),
(537,699,o),
(400,699,cs),
(207,699,o),
(56,557,o),
(56,339,cs),
(56,132,o),
(200,-12,o),
(398,-12,cs),
(581,-12,o),
(702,120,o),
(702,319,cs),
(702,336,l),
(402,336,l),
(402,303,l),
(686,303,l),
(669,319,l),
(669,141,o),
(559,22,o),
(398,22,cs),
(223,22,o),
(94,152,o),
(94,339,cs),
(94,535,o),
(226,665,o),
(400,665,cs),
(529,665,o),
(611,595,o),
(633,524,c)
);
}
);
width = 758;
},
{
anchors = (
{
name = bottom;
pos = (386,0);
},
{
name = top;
pos = (401,684);
}
);
associatedMasterId = "49C16FD3-6177-408B-A733-AEB3898BB77C";
layerId = "96951EB1-18FB-4FDF-9014-B6300BAB0AB6";
name = "3 Jan 22, 15:40";
shapes = (
{
closed = 1;
nodes = (
(542,-15,o),
(675,97,o),
(675,285,cs),
(675,343,l,{
"Letterink-NibData" = {
AngleInDegrees = 270;
};
}),
(633,343,l,{
"Letterink-NibData" = {
AngleInDegrees = 180;
};
}),
(633,273,ls,{
"Letterink-NibData" = {
AngleInDegrees = 180;
};
}),
(633,127,o),
(512,25,o),
(391,25,cs,{
"Letterink-NibData" = {
AngleInDegrees = 270;
};
}),
(209,25,o),
(104,154,o),
(104,331,cs),
(104,508,o),
(231,656,o),
(401,656,cs,{
"Letterink-NibData" = {
AngleInDegrees = 90;
};
}),
(470,656,o),
(577,625,o),
(584,557,c,{
"Letterink-NibData" = {
AngleInDegrees = 88.60282;
};
}),
(625,558,l,{
"Letterink-NibData" = {
AngleInDegrees = 356.1432;
};
}),
(619,647,o),
(507,696,o),
(403,696,cs,{
"Letterink-NibData" = {
AngleInDegrees = 270;
};
}),
(207,696,o),
(62,537,o),
(62,332,cs,{
"Letterink-NibData" = {
AngleInDegrees = 180;
};
}),
(62,131,o),
(179,-15,o),
(387,-15,cs,{
"Letterink-NibData" = {
AngleInDegrees = 90;
};
})
);
},
{
closed = 1;
nodes = (
(675,303,l),
(675,343,l,{
"Letterink-NibData" = {
AngleInDegrees = 270;
};
}),
(384,343,l,{
"Letterink-NibData" = {
AngleInDegrees = 180;
};
}),
(384,303,l,{
"Letterink-NibData" = {
AngleInDegrees = 90;
};
})
);
}
);
width = 730;
},
{
anchors = (
{
name = bottom;
pos = (387,0);
},
{
name = top;
pos = (401,684);
}
);
associatedMasterId = "0CAF3BED-C4AC-4024-B3E1-4C69D1EF7EC0";
layerId = "B969E5E4-86DE-47F2-A424-5DC87FFFE71B";
name = "5 Jan 22, 08:26";
shapes = (
{
attr = {
strokeHeight = 74;
strokeWidth = 80;
};
closed = 0;
nodes = (
(618,528,ls,{
"Letterink-NibData" = {
AngleInDegrees = 356.63354;
};
}),
(613,613,o),
(519,675,o),
(391,669,cs,{
"Letterink-NibData" = {
AngleInDegrees = 267.25739;
};
}),
(224,661,o),
(90,523,o),
(90,331,cs,{
"Letterink-NibData" = {
AngleInDegrees = 180;
};
}),
(90,145,o),
(222,15,o),
(403,15,c,{
"Letterink-NibData" = {
AngleInDegrees = 86.42367;
};
}),
(563,25,o),
(648,137,o),
(648,281,c,{
"Letterink-NibData" = {
AngleInDegrees = 358.26429;
};
}),
(647,314,l,{
"Letterink-NibData" = {
AngleInDegrees = 270.21221;
};
}),
(377,315,l,{
"Letterink-NibData" = {
AngleInDegrees = 270.21221;
};
})
);
}
);
width = 730;
},
{
anchors = (
{
name = bottom;
pos = (387,-27);
},
{
name = top;
pos = (387,721);
}
);
associatedMasterId = "49C16FD3-6177-408B-A733-AEB3898BB77C";
background = {
shapes = (
{
closed = 1;
nodes = (
(542,-15,o),
(675,97,o),
(675,285,cs),
(675,343,l),
(633,343,l),
(633,273,ls),
(633,127,o),
(512,25,o),
(391,25,cs),
(209,25,o),
(104,154,o),
(104,331,cs),
(104,508,o),
(231,656,o),
(401,656,cs),
(470,656,o),
(577,625,o),
(584,557,c),
(625,558,l),
(619,647,o),
(507,696,o),
(403,696,cs),
(207,696,o),
(62,537,o),
(62,332,cs),
(62,131,o),
(179,-15,o),
(387,-15,cs)
);
},
{
closed = 1;
nodes = (
(675,303,l),
(675,343,l),
(384,343,l),
(384,303,l)
);
}
);
};
layerId = "AFEECE5E-BFEE-4508-863A-E5AFB845FDE7";
name = "5 Jan 22, 08:33";
shapes = (
{
attr = {
strokeHeight = 38;
strokeWidth = 42;
};
closed = 0;
nodes = (
(623,537,ls,{
"Letterink-NibData" = {
AngleInDegrees = 356.78451;
};
}),
(618,626,o),
(522,691,o),
(391,684,cs,{
"Letterink-NibData" = {
AngleInDegrees = 267.30572;
};
}),
(221,676,o),
(84,532,o),
(84,330,cs,{
"Letterink-NibData" = {
AngleInDegrees = 180;
};
}),
(84,136,o),
(219,0,o),
(409,0,c,{
"Letterink-NibData" = {
AngleInDegrees = 86.37852;
};
}),
(567,10,o),
(654,127,o),
(654,278,c,{
"Letterink-NibData" = {
AngleInDegrees = 358.36342;
};
}),
(653,313,l,{
"Letterink-NibData" = {
AngleInDegrees = 270.20759;
};
}),
(377,314,l,{
"Letterink-NibData" = {
AngleInDegrees = 270.20759;
};
})
);
}
);
width = 730;
},
{
anchors = (
{
name = bottom;
pos = (378,-12);
},
{
name = top;
pos = (392,698);
}
);
background = {
shapes = (
{
closed = 1;
nodes = (
(589,-25,o),
(735,126,o),
(735,326,cs),
(735,355,ls),
(735,548,o),
(583,702,o),
(393,702,cs,{
"Letterink-NibData" = {
AngleInDegrees = "270";
};
}),
(203,702,o),
(52,548,o),
(52,355,cs,{
"Letterink-NibData" = {
AngleInDegrees = "180";
};
}),
(52,326,ls,{
"Letterink-NibData" = {
AngleInDegrees = "180";
};
}),
(52,126,o),
(196,-19,o),
(397,-22,cs,{
"Letterink-NibData" = {
AngleInDegrees = "90.89517371732774";
};
})
);
},
{
closed = 1;
nodes = (
(246,54,o),
(134,170,o),
(134,326,cs),
(134,355,ls),
(134,504,o),
(248,626,o),
(392,626,cs,{
"Letterink-NibData" = {
AngleInDegrees = "90";
};
}),
(538,626,o),
(653,504,o),
(653,355,cs,{
"Letterink-NibData" = {
AngleInDegrees = "180";
};
}),
(653,326,ls,{
"Letterink-NibData" = {
AngleInDegrees = "180";
};
}),
(653,170,o),
(541,54,o),
(394,54,cs,{
"Letterink-NibData" = {
AngleInDegrees = "270";
};
})
);
}
);
};
layerId = m004;
shapes = (
{
closed = 1;
nodes = (
(683,527,l),
(648,648,o),
(527,713,o),
(394,713,cs),
(187,713,o),
(32,559,o),
(32,340,cs),
(32,118,o),
(183,-31,o),
(384,-31,cs),
(586,-31,o),
(723,116,o),
(723,340,c),
(723,387,l),
(406,387,l),
(406,239,l),
(649,239,l),
(575,313,l),
(575,193,o),
(509,117,o),
(394,117,cs),
(277,117,o),
(197,201,o),
(197,338,cs),
(197,467,o),
(275,565,o),
(398,565,cs),
(477,565,o),
(530,522,o),
(541,485,c)
);
}
);
width = 755;
},
{
anchors = (
{
name = bottom;
pos = (387,0);
},
{
name = top;
pos = (401,684);
}
);
associatedMasterId = m004;
layerId = "2166FA3C-D590-4885-A8B0-B32BF30CBC31";
name = "5 Jan 22, 08:26";
shapes = (
{
attr = {
strokeHeight = 74;
strokeWidth = 80;
};
closed = 0;
nodes = (
(618,528,ls,{
"Letterink-NibData" = {
AngleInDegrees = 356.63354;
};
}),
(613,613,o),
(519,675,o),
(391,669,cs,{
"Letterink-NibData" = {
AngleInDegrees = 267.25739;
};
}),
(224,661,o),
(90,523,o),
(90,331,cs,{
"Letterink-NibData" = {
AngleInDegrees = 180;
};
}),
(90,145,o),
(222,15,o),
(403,15,c,{
"Letterink-NibData" = {
AngleInDegrees = 86.42367;
};
}),
(563,25,o),
(648,137,o),
(648,281,c,{
"Letterink-NibData" = {
AngleInDegrees = 358.26429;
};
}),
(647,314,l,{
"Letterink-NibData" = {
AngleInDegrees = 270.21221;
};
}),
(377,315,l,{
"Letterink-NibData" = {
AngleInDegrees = 270.21221;
};
})
);
}
);
width = 730;
}
);
metricLeft = O;
metricRight = O;
userData = {
position = 593;
width = 57;
};
},
{
glyphname = G.swsh;
kernLeft = O;
kernRight = O;
layers = (
{
layerId = "0CAF3BED-C4AC-4024-B3E1-4C69D1EF7EC0";
shapes = (
{
ref = G;
},
{
closed = 1;
nodes = (
(428,-187,l),
(452,-235,o),
(499,-266,o),
(551,-266,cs),
(622,-266,o),
(689,-216,o),
(689,-110,cs),
(689,342,l),
(612,342,l),
(612,-110,ls),
(612,-156,o),
(591,-190,o),
(551,-190,cs),
(531,-190,o),
(508,-177,o),
(496,-153,c)
);
}
);
width = 739;
},
{
layerId = "49C16FD3-6177-408B-A733-AEB3898BB77C";
shapes = (
{
ref = G;
},
{
closed = 1;
nodes = (
(456,-208,l),
(479,-251,o),
(521,-278,o),
(567,-278,cs),
(631,-278,o),
(690,-232,o),
(690,-137,cs),
(690,318,l),
(651,318,l),
(651,-137,ls),
(651,-198,o),
(615,-236,o),
(567,-236,cs),
(537,-236,o),
(509,-219,o),
(494,-188,c)
);
}
);
width = 755;
},
{
anchors = (
{
name = bottom;
pos = (393,0);
},
{
name = top;
pos = (402,684);
}
);
associatedMasterId = "49C16FD3-6177-408B-A733-AEB3898BB77C";
layerId = "99324C05-2E3B-491C-BB33-A281431388C0";
name = "3 Jan 22, 15:43";
shapes = (
{
closed = 1;
nodes = (
(632,-275,o),
(677,-247,o),
(677,-188,cs),
(677,296,l,{
"Letterink-NibData" = {
AngleInDegrees = 270;
};
}),
(635,296,l,{
"Letterink-NibData" = {
AngleInDegrees = 180;
};
}),
(635,231,l,{
"Letterink-NibData" = {
AngleInDegrees = 189.05072;
};
}),
(617,118,o),
(524,19,o),
(389,19,cs,{
"Letterink-NibData" = {
AngleInDegrees = 270;
};
}),
(229,19,o),
(103,157,o),
(103,331,cs),
(103,504,o),
(226,661,o),
(399,661,cs,{
"Letterink-NibData" = {
AngleInDegrees = 90;
};
}),
(467,661,o),
(588,637,o),
(588,563,cs,{
"Letterink-NibData" = {
AngleInDegrees = 180;
};
}),
(588,537,o),
(571,514,o),
(548,514,cs,{
"Letterink-NibData" = {
AngleInDegrees = 270;
};
}),
(542,514,o),
(535,516,o),
(528,519,c,{
"Letterink-NibData" = {
AngleInDegrees = 218.23383;
};
}),
(502,486,l,{
"Letterink-NibData" = {
AngleInDegrees = 122.73523;
};
}),
(516,477,o),
(531,473,o),
(547,473,cs,{
"Letterink-NibData" = {
AngleInDegrees = 90;
};
}),
(595,473,o),
(629,509,o),
(629,562,cs),
(629,670,o),
(485,701,o),
(402,701,cs,{
"Letterink-NibData" = {
AngleInDegrees = 270;
};
}),
(204,701,o),
(61,530,o),
(61,333,cs,{
"Letterink-NibData" = {
AngleInDegrees = 180;
};
}),
(61,137,o),
(202,-21,o),
(385,-21,cs,{
"Letterink-NibData" = {
AngleInDegrees = 90;
};
}),
(490,-21,o),
(597,31,o),
(635,124,c,{
"Letterink-NibData" = {
AngleInDegrees = 180;
};
}),
(635,-188,l,{
"Letterink-NibData" = {
AngleInDegrees = 186.00901;
};
}),
(633,-207,o),
(619,-229,o),
(592,-229,cs,{
"Letterink-NibData" = {
AngleInDegrees = 270;
};
}),
(579,-229,o),
(569,-224,o),
(562,-217,c,{
"Letterink-NibData" = {
AngleInDegrees = 236.65929;
};
}),
(524,-242,l,{
"Letterink-NibData" = {
AngleInDegrees = 142.69605;
};
}),
(540,-263,o),
(563,-275,o),
(591,-275,cs,{
"Letterink-NibData" = {
AngleInDegrees = 90;
};
})
);
}
);
width = 745;
},
{
anchors = (
{
name = bottom;
pos = (392,-35);
},
{
name = top;
pos = (402,683);
}
);
associatedMasterId = "49C16FD3-6177-408B-A733-AEB3898BB77C";
layerId = "993784D9-67C7-4A50-9317-88BF6374F3F5";
name = "5 Jan 22, 08:42";
shapes = (
{
closed = 1;
nodes = (
(632,-188,l,{
"Letterink-NibData" = {
AngleInDegrees = 186.00901;
};
}),
(630,-207,o),
(616,-229,o),
(589,-229,cs,{
"Letterink-NibData" = {
AngleInDegrees = 270;
};
}),
(576,-229,o),
(566,-224,o),
(559,-217,c,{
"Letterink-NibData" = {
AngleInDegrees = 236.65929;
};
}),
(521,-242,l,{
"Letterink-NibData" = {
AngleInDegrees = 142.69605;
};
}),
(537,-263,o),
(560,-275,o),
(588,-275,cs,{
"Letterink-NibData" = {
AngleInDegrees = 90;
};
}),
(629,-275,o),
(674,-247,o),
(674,-188,cs),
(674,296,l,{
"Letterink-NibData" = {
AngleInDegrees = 270;
};
}),
(632,296,l,{
"Letterink-NibData" = {
AngleInDegrees = 180;
};
})
);
},
{
ref = G;
}
);
width = 745;
},
{
anchors = (
{
name = bottom;
pos = (392,-35);
},
{
name = top;
pos = (402,683);
}
);
associatedMasterId = "49C16FD3-6177-408B-A733-AEB3898BB77C";
hints = (
{
name = _corner.caps_swash;
options = 1;
origin = (0,2);
scale = (-1,1);
type = Corner;
}
);
layerId = "A1B0A753-5F1E-49B0-BC7C-F65043380999";
name = "5 Jan 22, 08:46";
shapes = (
{
closed = 1;
nodes = (
(651,330,l,{
"Letterink-NibData" = {
AngleInDegrees = 270;
};
}),
(651,-154,l),
(693,-154,l,{
"Letterink-NibData" = {
AngleInDegrees = 186.00901;
};
}),
(693,330,l,{
"Letterink-NibData" = {
AngleInDegrees = 180;
};
})
);
},
{
ref = G;
},
{
closed = 0;
nodes = (
(344,-192,l),
(363,-228,o),
(402,-253,o),
(446,-253,cs),
(509,-253,o),
(561,-202,o),
(561,-139,cs),
(561,-139,o),
(561,-139,o),
(561,-138,cs),
(561,308,l)
);
}
);
width = 745;
},
{
anchors = (
{
name = bottom;
pos = (393,-16);
},
{
name = top;
pos = (396,689);
}
);
associatedMasterId = "0CAF3BED-C4AC-4024-B3E1-4C69D1EF7EC0";
layerId = "14C1AB9A-2353-4380-971D-F4E2C0A0EA14";
name = "5 Jan 22, 08:50";
shapes = (
{
closed = 1;
nodes = (
(605,-161,l,{
"Letterink-NibData" = {
AngleInDegrees = 180;
};
}),
(605,-174,o),
(595,-183,o),
(582,-183,cs,{
"Letterink-NibData" = {
AngleInDegrees = 270;
};
}),
(569,-183,o),
(563,-178,o),
(556,-165,c,{
"Letterink-NibData" = {
AngleInDegrees = 235.68491;
};
}),
(493,-208,l,{
"Letterink-NibData" = {
AngleInDegrees = 154.88516;
};
}),
(508,-240,o),
(544,-263,o),
(581,-263,cs,{
"Letterink-NibData" = {
AngleInDegrees = 90;
};
}),
(626,-263,o),
(685,-228,o),
(685,-162,cs),
(685,317,l,{
"Letterink-NibData" = {
AngleInDegrees = 270;
};
}),
(605,317,l,{
"Letterink-NibData" = {
AngleInDegrees = 180;
};
})
);
},
{
attr = {
strokeHeight = 74;
strokeWidth = 80;
};
closed = 0;
nodes = (
(515,478,l,{
"Letterink-NibData" = {
AngleInDegrees = 116.56505;
};
}),
(525,473,o),
(534,471,o),
(543,471,cs,{
"Letterink-NibData" = {
AngleInDegrees = 90;
};
}),
(587,471,o),
(608,511,o),
(608,546,cs),
(608,617,o),
(519,674,o),
(391,668,cs,{
"Letterink-NibData" = {
AngleInDegrees = 267.25739;
};
}),
(224,660,o),
(90,522,o),
(90,334,cs,{
"Letterink-NibData" = {
AngleInDegrees = 180;
};
}),
(90,144,o),
(227,4,o),
(408,15,cs,{
"Letterink-NibData" = {
AngleInDegrees = 86.30861;
};
}),
(563,25,o),
(648,137,o),
(648,281,c,{
"Letterink-NibData" = {
AngleInDegrees = 358.26429;
};
}),
(647,314,l,{
"Letterink-NibData" = {
AngleInDegrees = 270.21221;
};
}),
(377,315,l,{
"Letterink-NibData" = {
AngleInDegrees = 270.21221;
};
})
);
}
);
width = 749;
},
{
layerId = m004;
shapes = (
{
ref = G;
},
{
closed = 1;
nodes = (
(348,-153,l),
(381,-219,o),
(444,-262,o),
(518,-262,cs),
(618,-262,o),
(714,-196,o),
(714,-50,cs),
(714,312,l),
(554,312,l),
(554,-50,ls),
(554,-83,o),
(547,-114,o),
(518,-114,cs),
(508,-114,o),
(489,-105,o),
(480,-87,c)
);
}
);
width = 745;
},
{
anchors = (
{
name = bottom;
pos = (393,-16);
},
{
name = top;
pos = (396,689);
}
);
associatedMasterId = m004;
layerId = "1BDCECD6-6FE7-4C37-9D37-AA6D55EDC2F1";
name = "5 Jan 22, 08:50";
shapes = (
{
closed = 1;
nodes = (
(605,-161,l,{
"Letterink-NibData" = {
AngleInDegrees = 180;
};
}),
(605,-174,o),
(595,-183,o),
(582,-183,cs,{
"Letterink-NibData" = {
AngleInDegrees = 270;
};
}),
(569,-183,o),
(563,-178,o),
(556,-165,c,{
"Letterink-NibData" = {
AngleInDegrees = 235.68491;
};
}),
(493,-208,l,{
"Letterink-NibData" = {
AngleInDegrees = 154.88516;
};
}),
(508,-240,o),
(544,-263,o),
(581,-263,cs,{
"Letterink-NibData" = {
AngleInDegrees = 90;
};
}),
(626,-263,o),
(685,-228,o),
(685,-162,cs),
(685,317,l,{
"Letterink-NibData" = {
AngleInDegrees = 270;
};
}),
(605,317,l,{
"Letterink-NibData" = {
AngleInDegrees = 180;
};
})
);
},
{
attr = {
strokeHeight = 74;
strokeWidth = 80;
};
closed = 0;
nodes = (
(515,478,l,{
"Letterink-NibData" = {
AngleInDegrees = 116.56505;
};
}),
(525,473,o),
(534,471,o),
(543,471,cs,{
"Letterink-NibData" = {
AngleInDegrees = 90;
};
}),
(587,471,o),
(608,511,o),
(608,546,cs),
(608,617,o),
(519,674,o),
(391,668,cs,{
"Letterink-NibData" = {
AngleInDegrees = 267.25739;
};
}),
(224,660,o),
(90,522,o),
(90,334,cs,{
"Letterink-NibData" = {
AngleInDegrees = 180;
};
}),
(90,144,o),
(227,4,o),
(408,15,cs,{
"Letterink-NibData" = {
AngleInDegrees = 86.30861;
};
}),
(563,25,o),
(648,137,o),
(648,281,c,{
"Letterink-NibData" = {
AngleInDegrees = 358.26429;
};
}),
(647,314,l,{
"Letterink-NibData" = {
AngleInDegrees = 270.21221;
};
}),
(377,315,l,{
"Letterink-NibData" = {
AngleInDegrees = 270.21221;
};
})
);
}
);
width = 749;
}
);
metricLeft = O;
metricRight = G;
userData = {
position = 593;
width = 57;
};
},
{
glyphname = H;
kernLeft = E;
layers = (
{
anchors = (
{
name = bottom;
pos = (381,0);
},
{
name = center;
pos = (381,500);
},
{
name = top;
pos = (381,675);
},
{
name = topleft;
pos = (22,684);
}
);
hints = (
{
name = _corner.caps_vert;
origin = (0,9);
type = Corner;
}
);
layerId = "0CAF3BED-C4AC-4024-B3E1-4C69D1EF7EC0";
shapes = (
{
closed = 1;
nodes = (
(198,-1,l),
(198,319,l,{
"Letterink-NibData" = {
AngleInDegrees = 90;
};
}),
(564,319,l,{
"Letterink-NibData" = {
AngleInDegrees = 180;
};
}),
(564,-1,l,{
"Letterink-NibData" = {
AngleInDegrees = 90;
};
}),
(646,-1,l),
(646,686,l,{
"Letterink-NibData" = {
AngleInDegrees = 270;
};
}),
(564,686,l,{
"Letterink-NibData" = {
AngleInDegrees = 180;
};
}),
(564,395,l,{
"Letterink-NibData" = {
AngleInDegrees = 270;
};
}),
(198,395,l),
(198,559,l,{
"Letterink-NibData" = {
AngleInDegrees = 269.30131;
};
}),
(116,558,l,{
"Letterink-NibData" = {
AngleInDegrees = 180;
};
}),
(116,-1,l,{
"Letterink-NibData" = {
AngleInDegrees = 90;
};
})
);
}
);
width = 730;
},
{
anchors = (
{
name = bottom;
pos = (380,0);
},
{
name = center;
pos = (380,489);
},
{
name = top;
pos = (380,685);
},
{
name = topleft;
pos = (53,684);
}
);
hints = (
{
name = _corner.caps_vert;
origin = (0,9);
type = Corner;
}
);
layerId = "49C16FD3-6177-408B-A733-AEB3898BB77C";
shapes = (
{
closed = 1;
nodes = (
(167,1,l),
(167,340,l,{
"Letterink-NibData" = {
AngleInDegrees = 90;
};
}),
(595,340,l,{
"Letterink-NibData" = {
AngleInDegrees = 180;
};
}),
(595,1,l,{
"Letterink-NibData" = {
AngleInDegrees = 90;
};
}),
(632,1,l),
(632,685,l,{
"Letterink-NibData" = {
AngleInDegrees = 270;
};
}),
(595,685,l,{
"Letterink-NibData" = {
AngleInDegrees = 180;
};
}),
(595,376,l,{
"Letterink-NibData" = {
AngleInDegrees = 270;
};
}),
(167,376,l),
(167,570,l,{
"Letterink-NibData" = {
AngleInDegrees = 270;
};
}),
(129,570,l,{
"Letterink-NibData" = {
AngleInDegrees = 180;
};
}),
(129,1,l,{
"Letterink-NibData" = {
AngleInDegrees = 90;
};
})
);
}
);
width = 732;
},
{
anchors = (
{
name = bottom;
pos = (417,0);
},
{
name = center;
pos = (417,500);
},
{
name = top;
pos = (416,684);
},
{
name = topleft;
pos = (96,684);
}
);
hints = (
{
name = _corner.caps_vert;
origin = (0,9);
type = Corner;
}
);
layerId = m004;
shapes = (
{
closed = 1;
nodes = (
(299,0,l),
(299,270,l,{
"Letterink-NibData" = {
AngleInDegrees = "90";
};
}),
(544,270,l,{
"Letterink-NibData" = {
AngleInDegrees = "180";
};
}),
(544,0,l,{
"Letterink-NibData" = {
AngleInDegrees = "90";
};
}),
(709,0,l),
(709,684,l,{
"Letterink-NibData" = {
AngleInDegrees = "270";
};
}),
(544,684,l,{
"Letterink-NibData" = {
AngleInDegrees = "180";
};
}),
(544,422,l,{
"Letterink-NibData" = {
AngleInDegrees = "270";
};
}),
(299,422,l),
(299,500,l,{
"Letterink-NibData" = {
AngleInDegrees = "270";
};
}),
(134,500,l,{
"Letterink-NibData" = {
AngleInDegrees = "180";
};
}),
(134,0,l,{
"Letterink-NibData" = {
AngleInDegrees = "90";
};
})
);
}
);
width = 767;
}
);
unicode = 72;
userData = {
position = 554;
width = 61;
};
},
{
glyphname = H.ss01;
layers = (
{
anchors = (
{
name = bottom;
pos = (357,0);
},
{
name = center;
pos = (357,512);
},
{
name = top;
pos = (357,684);
},
{
name = topleft;
pos = (40,684);
}
);
layerId = "0CAF3BED-C4AC-4024-B3E1-4C69D1EF7EC0";
shapes = (
{
closed = 1;
nodes = (
(166,-1,l),
(166,318,l,{
"Letterink-NibData" = {
AngleInDegrees = 90;
};
}),
(544,318,l,{
"Letterink-NibData" = {
AngleInDegrees = 180;
};
}),
(544,-1,l,{
"Letterink-NibData" = {
AngleInDegrees = 90;
};
}),
(626,-1,l),
(626,684,l,{
"Letterink-NibData" = {
AngleInDegrees = 270;
};
}),
(544,684,l,{
"Letterink-NibData" = {
AngleInDegrees = 180;
};
}),
(544,394,l,{
"Letterink-NibData" = {
AngleInDegrees = 270;
};
}),
(166,394,l),
(166,684,l,{
"Letterink-NibData" = {
AngleInDegrees = 270;
};
}),
(84,684,l,{
"Letterink-NibData" = {
AngleInDegrees = 180;
};
}),
(84,-1,l,{
"Letterink-NibData" = {
AngleInDegrees = 90;
};
})
);
}
);
width = 710;
},
{
anchors = (
{
name = bottom;
pos = (350,0);
},
{
name = center;
pos = (352,498);
},
{
name = top;
pos = (351,684);
},
{
name = topleft;
pos = (41,684);
}
);
layerId = "49C16FD3-6177-408B-A733-AEB3898BB77C";
shapes = (
{
closed = 1;
nodes = (
(138,0,l),
(138,340,l,{
"Letterink-NibData" = {
AngleInDegrees = 90;
};
}),
(566,340,l,{
"Letterink-NibData" = {
AngleInDegrees = 180;
};
}),
(566,0,l,{
"Letterink-NibData" = {
AngleInDegrees = 90;
};
}),
(604,0,l),
(604,684,l,{
"Letterink-NibData" = {
AngleInDegrees = 270;
};
}),
(566,684,l,{
"Letterink-NibData" = {
AngleInDegrees = 180;
};
}),
(566,376,l,{
"Letterink-NibData" = {
AngleInDegrees = 270;
};
}),
(138,376,l),
(138,684,l,{
"Letterink-NibData" = {
AngleInDegrees = 270;
};
}),
(100,684,l,{
"Letterink-NibData" = {
AngleInDegrees = 180;
};
}),
(100,0,l,{
"Letterink-NibData" = {
AngleInDegrees = 90;
};
})
);
}
);
width = 704;
},
{
anchors = (
{
name = bottom;
pos = (349,0);
},
{
name = center;
pos = (350,508);
},
{
name = top;
pos = (349,684);
},
{
name = topleft;
pos = (15,684);
}
);
layerId = m004;
shapes = (
{
closed = 1;
nodes = (
(223,0,l),
(223,270,l,{
"Letterink-NibData" = {
AngleInDegrees = "90";
};
}),
(474,270,l,{
"Letterink-NibData" = {
AngleInDegrees = "180";
};
}),
(474,0,l,{
"Letterink-NibData" = {
AngleInDegrees = "90";
};
}),
(639,0,l),
(639,684,l,{
"Letterink-NibData" = {
AngleInDegrees = "270";
};
}),
(474,684,l,{
"Letterink-NibData" = {
AngleInDegrees = "180";
};
}),
(474,422,l,{
"Letterink-NibData" = {
AngleInDegrees = "270";
};
}),
(223,422,l),
(223,684,l,{
"Letterink-NibData" = {
AngleInDegrees = "270";
};
}),
(58,684,l,{
"Letterink-NibData" = {
AngleInDegrees = "180";
};
}),
(58,0,l,{
"Letterink-NibData" = {
AngleInDegrees = "90";
};
})
);
}
);
width = 697;
}
);
metricLeft = "=|H";
metricRight = H;
userData = {
position = 525;
width = 61;
};
},
{
glyphname = H.swsh;
kernLeft = Swash;
layers = (
{
anchors = (
{
name = bottom;
pos = (422,0);
},
{
name = center;
pos = (422,478);
},
{
name = top;
pos = (422,675);
},
{
name = topleft;
pos = (60,684);
}
);
hints = (
{
name = _corner.caps_swash_vert;
origin = (0,9);
type = Corner;
}
);
layerId = "0CAF3BED-C4AC-4024-B3E1-4C69D1EF7EC0";
shapes = (
{
closed = 1;
nodes = (
(246,-1,l),
(246,317,l,{
"Letterink-NibData" = {
AngleInDegrees = 90;
};
}),
(591,317,l,{
"Letterink-NibData" = {
AngleInDegrees = 180;
};
}),
(591,-1,l,{
"Letterink-NibData" = {
AngleInDegrees = 90;
};
}),
(673,-1,l),
(673,686,l,{
"Letterink-NibData" = {
AngleInDegrees = 270;
};
}),
(591,686,l,{
"Letterink-NibData" = {
AngleInDegrees = 180;
};
}),
(591,395,l,{
"Letterink-NibData" = {
AngleInDegrees = 270;
};
}),
(246,395,l),
(246,559,l,{
"Letterink-NibData" = {
AngleInDegrees = 270;
};
}),
(164,559,l,{
"Letterink-NibData" = {
AngleInDegrees = 180;
};
}),
(164,-1,l,{
"Letterink-NibData" = {
AngleInDegrees = 90;
};
})
);
}
);
width = 757;
},
{
anchors = (
{
name = bottom;
pos = (411,0);
},
{
name = center;
pos = (411,450);
},
{
name = top;
pos = (411,684);
},
{
name = topleft;
pos = (78,684);
}
);
hints = (
{
name = _corner.caps_swash_vert;
options = 1;
origin = (0,9);
type = Corner;
}
);
layerId = "49C16FD3-6177-408B-A733-AEB3898BB77C";
shapes = (
{
closed = 1;
nodes = (
(206,1,l),
(206,340,l,{
"Letterink-NibData" = {
AngleInDegrees = 90;
};
}),
(617,340,l,{
"Letterink-NibData" = {
AngleInDegrees = 180;
};
}),
(617,1,l,{
"Letterink-NibData" = {
AngleInDegrees = 90;
};
}),
(655,1,l),
(655,685,l,{
"Letterink-NibData" = {
AngleInDegrees = 270;
};
}),
(617,685,l,{
"Letterink-NibData" = {
AngleInDegrees = 180;
};
}),
(617,376,l,{
"Letterink-NibData" = {
AngleInDegrees = 270;
};
}),
(206,376,l),
(206,570,l,{
"Letterink-NibData" = {
AngleInDegrees = 270;
};
}),
(168,570,l,{
"Letterink-NibData" = {
AngleInDegrees = 180;
};
}),
(168,1,l,{
"Letterink-NibData" = {
AngleInDegrees = 90;
};
})
);
}
);
width = 755;
},
{
anchors = (
{
name = bottom;
pos = (472,0);
},
{
name = center;
pos = (472,512);
},
{
name = top;
pos = (472,684);
},
{
name = topleft;
pos = (147,684);
}
);
hints = (
{
name = _corner.caps_swash_vert;
origin = (0,9);
type = Corner;
}
);
layerId = m004;
shapes = (
{
closed = 1;
nodes = (
(357,-5,l),
(357,270,l,{
"Letterink-NibData" = {
AngleInDegrees = "90";
};
}),
(594,270,l,{
"Letterink-NibData" = {
AngleInDegrees = "180";
};
}),
(594,-5,l,{
"Letterink-NibData" = {
AngleInDegrees = "90";
};
}),
(759,-5,l),
(759,684,l,{
"Letterink-NibData" = {
AngleInDegrees = "270";
};
}),
(594,684,l,{
"Letterink-NibData" = {
AngleInDegrees = "180";
};
}),
(594,422,l,{
"Letterink-NibData" = {
AngleInDegrees = "270";
};
}),
(357,422,l),
(357,501,l,{
"Letterink-NibData" = {
AngleInDegrees = "270";
};
}),
(192,501,l,{
"Letterink-NibData" = {
AngleInDegrees = "180";
};
}),
(192,-5,l,{
"Letterink-NibData" = {
AngleInDegrees = "90";
};
})
);
}
);
width = 817;
}
);
metricLeft = "=H";
metricRight = H;
userData = {
position = 554;
width = 61;
};
},
{
glyphname = I;
layers = (
{
anchors = (
{
name = bottom;
pos = (125,0);
},
{
name = center;
pos = (124,340);
},
{
name = ogonek;
pos = (166,-1);
},
{
name = top;
pos = (123,684);
},
{
name = topleft;
pos = (18,684);
}
);
layerId = "0CAF3BED-C4AC-4024-B3E1-4C69D1EF7EC0";
shapes = (
{
closed = 1;
nodes = (
(166,-1,l),
(166,684,l,{
"Letterink-NibData" = {
AngleInDegrees = 270;
};
}),
(84,684,l,{
"Letterink-NibData" = {
AngleInDegrees = 180;
};
}),
(84,-1,l,{
"Letterink-NibData" = {
AngleInDegrees = 90;
};
})
);
}
);
width = 250;
},
{
anchors = (
{
name = bottom;
pos = (117,0);
},
{
name = center;
pos = (117,343);
},
{
name = ogonek;
pos = (138,1);
},
{
name = top;
pos = (119,685);
},
{
name = topleft;
pos = (31,684);
}
);
layerId = "49C16FD3-6177-408B-A733-AEB3898BB77C";
shapes = (
{
closed = 1;
nodes = (
(138,1,l),
(138,684,l,{
"Letterink-NibData" = {
AngleInDegrees = 270;
};
}),
(100,684,l,{
"Letterink-NibData" = {
AngleInDegrees = 180;
};
}),
(100,1,l,{
"Letterink-NibData" = {
AngleInDegrees = 90;
};
})
);
}
);
width = 238;
},
{
anchors = (
{
name = bottom;
pos = (141,-1);
},
{
name = center;
pos = (141,339);
},
{
name = ogonek;
pos = (223,0);
},
{
name = top;
pos = (140,684);
},
{
name = topleft;
pos = (-4,684);
}
);
layerId = m004;
shapes = (
{
closed = 1;
nodes = (
(223,0,l),
(223,684,l,{
"Letterink-NibData" = {
AngleInDegrees = 270;
};
}),
(58,684,l,{
"Letterink-NibData" = {
AngleInDegrees = 180;
};
}),
(58,0,l,{
"Letterink-NibData" = {
AngleInDegrees = 90;
};
})
);
}
);
width = 281;
}
);
metricLeft = "=|H";
metricRight = H;
unicode = 73;
userData = {
position = 54;
width = 61;
};
},
{
glyphname = I.swsh;
kernLeft = Swash;
layers = (
{
anchors = (
{
name = bottom;
pos = (215,0);
},
{
name = center;
pos = (214,340);
},
{
name = ogonek;
pos = (256,-1);
},
{
name = top;
pos = (215,684);
},
{
name = topleft;
pos = (108,684);
}
);
hints = (
{
name = _corner.caps_swash;
origin = (1,3);
type = Corner;
}
);
layerId = "0CAF3BED-C4AC-4024-B3E1-4C69D1EF7EC0";
shapes = (
{
closed = 1;
nodes = (
(256,0,l),
(256,684,l,{
"Letterink-NibData" = {
AngleInDegrees = 270;
};
}),
(174,684,l,{
"Letterink-NibData" = {
AngleInDegrees = 180;
};
}),
(174,0,l,{
"Letterink-NibData" = {
AngleInDegrees = 90;
};
})
);
},
{
closed = 1;
nodes = (
(154,608,l),
(219,608,l),
(219,684,l),
(154,684,l)
);
}
);
width = 340;
},
{
anchors = (
{
name = bottom;
pos = (204,0);
},
{
name = center;
pos = (203,342);
},
{
name = ogonek;
pos = (226,1);
},
{
name = top;
pos = (203,684);
},
{
name = topleft;
pos = (115,684);
}
);
hints = (
{
name = _corner.caps_swash;
origin = (1,3);
type = Corner;
}
);
layerId = "49C16FD3-6177-408B-A733-AEB3898BB77C";
shapes = (
{
closed = 1;
nodes = (
(221,1,l),
(221,684,l,{
"Letterink-NibData" = {
AngleInDegrees = 270;
};
}),
(184,684,l,{
"Letterink-NibData" = {
AngleInDegrees = 180;
};
}),
(184,1,l,{
"Letterink-NibData" = {
AngleInDegrees = 90;
};
})
);
},
{
closed = 1;
nodes = (
(136,648,l),
(190,648,l),
(190,684,l),
(136,684,l)
);
}
);
width = 321;
},
{
anchors = (
{
name = bottom;
pos = (179,0);
},
{
name = center;
pos = (178,386);
},
{
name = ogonek;
pos = (202,1);
},
{
name = top;
pos = (176,684);
},
{
name = topleft;
pos = (88,684);
}
);
associatedMasterId = "49C16FD3-6177-408B-A733-AEB3898BB77C";
hints = (
{
name = _corner.caps_swash_vert;
options = 1;
origin = (0,1);
type = Corner;
}
);
layerId = "AE169FFE-AC8B-4E8A-9035-7F809B0493BD";
name = "5 Jan 22, 09:48";
shapes = (
{
closed = 1;
nodes = (
(198,1,l),
(198,576,l,{
"Letterink-NibData" = {
AngleInDegrees = 270;
};
}),
(156,576,l,{
"Letterink-NibData" = {
AngleInDegrees = 180;
};
}),
(156,1,l,{
"Letterink-NibData" = {
AngleInDegrees = 90;
};
})
);
}
);
width = 301;
},
{
anchors = (
{
name = bottom;
pos = (282,0);
},
{
name = center;
pos = (286,341);
},
{
name = ogonek;
pos = (365,-1);
},
{
name = top;
pos = (285,684);
},
{
name = topleft;
pos = (134,684);
}
);
hints = (
{
name = _corner.caps_swash;
origin = (1,3);
type = Corner;
}
);
layerId = m004;
shapes = (
{
closed = 1;
nodes = (
(365,-1,l),
(365,684,l,{
"Letterink-NibData" = {
AngleInDegrees = 270;
};
}),
(200,684,l,{
"Letterink-NibData" = {
AngleInDegrees = 180;
};
}),
(200,-1,l,{
"Letterink-NibData" = {
AngleInDegrees = 90;
};
})
);
},
{
closed = 1;
nodes = (
(189,536,l),
(327,536,l),
(327,684,l),
(189,684,l,{
"Letterink-NibData" = {
AngleInDegrees = 180;
};
})
);
}
);
width = 423;
}
);
metricLeft = H.swsh;
metricRight = H;
userData = {
position = 54;
width = 61;
};
},
{
glyphname = IJ;
kernRight = J;
layers = (
{
anchors = (
{
name = bottom;
pos = (319,0);
},
{
name = top;
pos = (319,684);
}
);
background = {
shapes = (
{
closed = 1;
nodes = (
(430,-7,o),
(508,70,o),
(508,193,cs),
(508,689,l,{
"Letterink-NibData" = {
AngleInDegrees = "270";
};
}),
(439,689,l,{
"Letterink-NibData" = {
AngleInDegrees = "211.6075";
};
}),
(431,676,o),
(401,663,o),
(381,663,cs,{
"Letterink-NibData" = {
AngleInDegrees = "270";
};
}),
(339,663,o),
(306,698,o),
(256,698,cs,{
"Letterink-NibData" = {
AngleInDegrees = "270";
};
}),
(220,698,o),
(188,692,o),
(131,664,c,{
"Letterink-NibData" = {
AngleInDegrees = "153.09391";
};
}),
(165,597,l,{
"Letterink-NibData" = {
AngleInDegrees = "67.52057000000001";
};
}),
(194,609,o),
(223,620,o),
(248,620,cs,{
"Letterink-NibData" = {
AngleInDegrees = "90";
};
}),
(296,620,o),
(333,587,o),
(376,587,cs,{
"Letterink-NibData" = {
AngleInDegrees = "90";
};
}),
(398,587,o),
(413,589,o),
(426,594,c,{
"Letterink-NibData" = {
AngleInDegrees = "180";
};
}),
(426,196,ls,{
"Letterink-NibData" = {
AngleInDegrees = "180";
};
}),
(426,118,o),
(381,69,o),
(309,69,cs,{
"Letterink-NibData" = {
AngleInDegrees = "270";
};
}),
(233,69,o),
(188,115,o),
(192,188,c,{
"Letterink-NibData" = {
AngleInDegrees = "274.39871";
};
}),
(114,194,l,{
"Letterink-NibData" = {
AngleInDegrees = "181.88819";
};
}),
(110,71,o),
(184,-7,o),
(306,-7,cs,{
"Letterink-NibData" = {
AngleInDegrees = "90";
};
})
);
}
);
};
layerId = "0CAF3BED-C4AC-4024-B3E1-4C69D1EF7EC0";
shapes = (
{
pos = (6,285);
ref = I;
scale = (1,0.5845);
},
{
attr = {
identifier = ID0x7f962dd1a620;
lineCapEnd = "4";
strokeHeight = 76;
strokeWidth = 74;
};
closed = 0;
nodes = (
(240,632,l),
(273,656,o),
(303,664,o),
(335,664,cs),
(378,664,o),
(398,633,o),
(441,633,cs),
(483,633,o),
(522,656,o),
(530,684,c)
);
},
{
closed = 1;
nodes = (
(470,-13,o),
(568,74,o),
(568,236,cs),
(568,684,l,{
"Letterink-NibData" = {
AngleInDegrees = "270";
};
}),
(493,684,l,{
"Letterink-NibData" = {
AngleInDegrees = "211.6075";
};
}),
(487,654,l),
(486,243,ls,{
"Letterink-NibData" = {
AngleInDegrees = "180";
};
}),
(486,122,o),
(421,63,o),
(319,63,cs,{
"Letterink-NibData" = {
AngleInDegrees = "270";
};
}),
(216,63,o),
(164,139,o),
(163,196,c),
(84,185,l),
(86,79,o),
(176,-13,o),
(316,-13,cs,{
"Letterink-NibData" = {
AngleInDegrees = "90";
};
})
);
}
);
width = 644;
},
{
anchors = (
{
name = bottom;
pos = (352,0);
},
{
name = top;
pos = (368,684);
}
);
layerId = "49C16FD3-6177-408B-A733-AEB3898BB77C";
shapes = (
{
alignment = -1;
pos = (5,264);
ref = I;
scale = (1,0.6157);
},
{
attr = {
identifier = ID0x7f962dd1a620;
lineCapEnd = 4;
strokeHeight = 36;
strokeWidth = 34;
};
closed = 0;
nodes = (
(237,648,l),
(258,665,o),
(295,678,o),
(326,678,cs),
(374,678,o),
(398,648,o),
(448,648,cs),
(483,648,o),
(514,663,o),
(525,687,c)
);
},
{
closed = 1;
nodes = (
(457,-6,o),
(544,82,o),
(544,219,cs),
(544,687,l,{
"Letterink-NibData" = {
AngleInDegrees = "268.5679";
};
}),
(508,687,l,{
"Letterink-NibData" = {
AngleInDegrees = "184.66686";
};
}),
(504,656,l),
(508,222,ls,{
"Letterink-NibData" = {
AngleInDegrees = "180";
};
}),
(509,103,o),
(432,30,o),
(318,30,cs,{
"Letterink-NibData" = {
AngleInDegrees = "270";
};
}),
(217,30,o),
(147,85,o),
(138,177,c),
(100,172,l),
(110,64,o),
(192,-6,o),
(319,-6,cs,{
"Letterink-NibData" = {
AngleInDegrees = "90";
};
})
);
}
);
width = 634;
},
{
anchors = (
{
name = bottom;
pos = (384,0);
},
{
name = top;
pos = (359,684);
}
);
layerId = m004;
shapes = (
{
pos = (0,300);
ref = I;
scale = (1,0.5611);
},
{
attr = {
identifier = ID0x7f962dd1a620;
lineCapEnd = "4";
strokeHeight = 148;
strokeWidth = 138;
};
closed = 0;
nodes = (
(267,598,l),
(296,619,o),
(325,629,o),
(351,629,cs),
(400,629,o),
(434,594,o),
(478,594,cs),
(519,594,o),
(574,642,o),
(575,684,c)
);
},
{
closed = 1;
nodes = (
(531,-27,o),
(644,77,o),
(644,244,cs),
(644,684,l,{
"Letterink-NibData" = {
AngleInDegrees = "270";
};
}),
(522,684,l,{
"Letterink-NibData" = {
AngleInDegrees = "211.6075";
};
}),
(479,632,l),
(479,247,ls,{
"Letterink-NibData" = {
AngleInDegrees = "180";
};
}),
(479,187,o),
(433,125,o),
(351,125,cs,{
"Letterink-NibData" = {
AngleInDegrees = "270";
};
}),
(284,125,o),
(223,165,o),
(223,225,c),
(69,212,l),
(76,77,o),
(182,-27,o),
(352,-27,cs,{
"Letterink-NibData" = {
AngleInDegrees = "90";
};
})
);
}
);
width = 696;
}
);
metricLeft = I;
metricRight = J;
unicode = 306;
userData = {
position = 507;
width = 53;
};
},
{
glyphname = IJ.ss01;
kernRight = J;
layers = (
{
layerId = "0CAF3BED-C4AC-4024-B3E1-4C69D1EF7EC0";
shapes = (
{
pos = (6,241);
ref = I;
scale = (1,0.6481);
},
{
closed = 1;
nodes = (
(84,165,l),
(86,69,o),
(164,-13,o),
(286,-13,cs,{
"Letterink-NibData" = {
AngleInDegrees = "90";
};
}),
(422,-13,o),
(508,74,o),
(508,212,cs),
(508,684,l,{
"Letterink-NibData" = {
AngleInDegrees = "270";
};
}),
(427,684,l,{
"Letterink-NibData" = {
AngleInDegrees = "211.6075";
};
}),
(426,215,ls,{
"Letterink-NibData" = {
AngleInDegrees = "180";
};
}),
(426,122,o),
(373,63,o),
(289,63,cs,{
"Letterink-NibData" = {
AngleInDegrees = "270";
};
}),
(206,63,o),
(164,123,o),
(163,176,c)
);
}
);
width = 584;
},
{
layerId = "49C16FD3-6177-408B-A733-AEB3898BB77C";
shapes = (
{
alignment = -1;
pos = (5,234);
ref = I;
scale = (1,0.6583);
},
{
closed = 1;
nodes = (
(100,172,l),
(109,64,o),
(184,-6,o),
(299,-6,cs,{
"Letterink-NibData" = {
AngleInDegrees = 90;
};
}),
(425,-6,o),
(504,80,o),
(504,214,cs),
(504,685,l,{
"Letterink-NibData" = {
AngleInDegrees = 268.5679;
};
}),
(464,684,l,{
"Letterink-NibData" = {
AngleInDegrees = 184.66686;
};
}),
(468,217,ls,{
"Letterink-NibData" = {
AngleInDegrees = 180;
};
}),
(469,101,o),
(400,30,o),
(298,30,cs,{
"Letterink-NibData" = {
AngleInDegrees = 270;
};
}),
(208,30,o),
(146,85,o),
(138,177,c)
);
}
);
width = 594;
},
{
layerId = m004;
shapes = (
{
pos = (0,275);
ref = I;
scale = (1,0.5969);
},
{
closed = 1;
nodes = (
(64,217,l),
(56,82,o),
(145,-22,o),
(312,-22,cs,{
"Letterink-NibData" = {
AngleInDegrees = "90";
};
}),
(475,-22,o),
(569,78,o),
(569,239,cs),
(569,684,l,{
"Letterink-NibData" = {
AngleInDegrees = "270";
};
}),
(404,684,l,{
"Letterink-NibData" = {
AngleInDegrees = "211.6075";
};
}),
(404,242,ls,{
"Letterink-NibData" = {
AngleInDegrees = "180";
};
}),
(404,187,o),
(376,130,o),
(311,130,cs,{
"Letterink-NibData" = {
AngleInDegrees = "270";
};
}),
(247,130,o),
(218,170,o),
(218,230,c)
);
}
);
width = 621;
}
);
metricLeft = I;
metricRight = J;
userData = {
position = 507;
width = 53;
};
},
{
glyphname = J;
kernLeft = J;
kernRight = J;
layers = (
{
anchors = (
{
name = bottom;
pos = (262,0);
},
{
name = top;
pos = (262,684);
}
);
layerId = "0CAF3BED-C4AC-4024-B3E1-4C69D1EF7EC0";
shapes = (
{
closed = 1;
nodes = (
(369,-7,o),
(451,74,o),
(451,203,cs),
(451,689,l,{
"Letterink-NibData" = {
AngleInDegrees = 270;
};
}),
(382,689,l,{
"Letterink-NibData" = {
AngleInDegrees = 211.6075;
};
}),
(374,676,o),
(344,663,o),
(324,663,cs,{
"Letterink-NibData" = {
AngleInDegrees = 270;
};
}),
(282,663,o),
(249,698,o),
(199,698,cs,{
"Letterink-NibData" = {
AngleInDegrees = 270;
};
}),
(163,698,o),
(131,692,o),
(74,664,c,{
"Letterink-NibData" = {
AngleInDegrees = 153.09391;
};
}),
(108,597,l,{
"Letterink-NibData" = {
AngleInDegrees = 67.52057;
};
}),
(137,609,o),
(166,620,o),
(191,620,cs,{
"Letterink-NibData" = {
AngleInDegrees = 90;
};
}),
(239,620,o),
(276,587,o),
(319,587,cs,{
"Letterink-NibData" = {
AngleInDegrees = 90;
};
}),
(341,587,o),
(356,589,o),
(369,594,c,{
"Letterink-NibData" = {
AngleInDegrees = 180;
};
}),
(369,206,ls,{
"Letterink-NibData" = {
AngleInDegrees = 180;
};
}),
(369,122,o),
(320,69,o),
(242,69,cs,{
"Letterink-NibData" = {
AngleInDegrees = 270;
};
}),
(160,69,o),
(111,121,o),
(115,194,c,{
"Letterink-NibData" = {
AngleInDegrees = 274.39871;
};
}),
(37,194,l,{
"Letterink-NibData" = {
AngleInDegrees = 181.88819;
};
}),
(33,71,o),
(111,-7,o),
(239,-7,cs,{
"Letterink-NibData" = {
AngleInDegrees = 90;
};
})
);
}
);
width = 527;
},
{
anchors = (
{
name = bottom;
pos = (265,0);
},
{
name = top;
pos = (281,684);
}
);
background = {
shapes = (
{
closed = 1;
nodes = (
(367,-6,o),
(441,68,o),
(441,184,cs),
(441,688,l,{
"Letterink-NibData" = {
AngleInDegrees = "270";
};
}),
(396,688,l,{
"Letterink-NibData" = {
AngleInDegrees = "209.35776";
};
}),
(386,677,o),
(359,670,o),
(337,670,cs,{
"Letterink-NibData" = {
AngleInDegrees = "270";
};
}),
(319,670,o),
(277,697,o),
(229,697,cs,{
"Letterink-NibData" = {
AngleInDegrees = "270";
};
}),
(187,697,o),
(164,690,o),
(147,673,c,{
"Letterink-NibData" = {
AngleInDegrees = "153.43495";
};
}),
(163,641,l,{
"Letterink-NibData" = {
AngleInDegrees = "70.82098999999999";
};
}),
(169,647,o),
(183,662,o),
(229,662,cs,{
"Letterink-NibData" = {
AngleInDegrees = "90";
};
}),
(283,662,o),
(302,635,o),
(335,635,cs,{
"Letterink-NibData" = {
AngleInDegrees = "90";
};
}),
(362,635,o),
(386,639,o),
(403,650,c,{
"Letterink-NibData" = {
AngleInDegrees = "180";
};
}),
(403,187,ls,{
"Letterink-NibData" = {
AngleInDegrees = "180";
};
}),
(403,90,o),
(345,30,o),
(254,30,cs,{
"Letterink-NibData" = {
AngleInDegrees = "270";
};
}),
(162,30,o),
(110,83,o),
(108,156,c,{
"Letterink-NibData" = {
AngleInDegrees = "275.5722";
};
}),
(71,156,l,{
"Letterink-NibData" = {
AngleInDegrees = "176.71075";
};
}),
(78,58,o),
(148,-6,o),
(251,-6,cs,{
"Letterink-NibData" = {
AngleInDegrees = "90";
};
})
);
}
);
};
layerId = "49C16FD3-6177-408B-A733-AEB3898BB77C";
shapes = (
{
closed = 1;
nodes = (
(363,-6,o),
(441,72,o),
(441,194,cs),
(441,688,l,{
"Letterink-NibData" = {
AngleInDegrees = "270";
};
}),
(396,688,l,{
"Letterink-NibData" = {
AngleInDegrees = "209.35776";
};
}),
(386,671,o),
(359,660,o),
(337,660,cs,{
"Letterink-NibData" = {
AngleInDegrees = "270";
};
}),
(296,660,o),
(236,696,o),
(193,696,cs,{
"Letterink-NibData" = {
AngleInDegrees = "270";
};
}),
(168,696,o),
(143,696,o),
(97,672,c,{
"Letterink-NibData" = {
AngleInDegrees = "153.43495";
};
}),
(113,640,l,{
"Letterink-NibData" = {
AngleInDegrees = "70.82098999999999";
};
}),
(131,650,o),
(159,661,o),
(189,661,cs,{
"Letterink-NibData" = {
AngleInDegrees = "90";
};
}),
(253,661,o),
(271,625,o),
(335,625,cs,{
"Letterink-NibData" = {
AngleInDegrees = "90";
};
}),
(362,625,o),
(386,632,o),
(403,650,c,{
"Letterink-NibData" = {
AngleInDegrees = "180";
};
}),
(403,197,ls,{
"Letterink-NibData" = {
AngleInDegrees = "180";
};
}),
(403,94,o),
(341,30,o),
(244,30,cs,{
"Letterink-NibData" = {
AngleInDegrees = "270";
};
}),
(142,30,o),
(90,89,o),
(88,168,c,{
"Letterink-NibData" = {
AngleInDegrees = "275.5722";
};
}),
(51,168,l,{
"Letterink-NibData" = {
AngleInDegrees = "176.71075";
};
}),
(58,62,o),
(128,-6,o),
(241,-6,cs,{
"Letterink-NibData" = {
AngleInDegrees = "90";
};
})
);
}
);
width = 531;
},
{
anchors = (
{
name = bottom;
pos = (313,0);
},
{
name = top;
pos = (288,684);
}
);
layerId = m004;
shapes = (
{
closed = 1;
nodes = (
(419,-22,o),
(513,70,o),
(513,217,cs),
(513,697,l,{
"Letterink-NibData" = {
AngleInDegrees = 270;
};
}),
(406,697,l,{
"Letterink-NibData" = {
AngleInDegrees = 211.6075;
};
}),
(390,682,o),
(365,674,o),
(342,674,cs,{
"Letterink-NibData" = {
AngleInDegrees = 270;
};
}),
(303,674,o),
(265,696,o),
(197,696,cs,{
"Letterink-NibData" = {
AngleInDegrees = 270;
};
}),
(142,696,o),
(109,686,o),
(62,653,c,{
"Letterink-NibData" = {
AngleInDegrees = 153.09391;
};
}),
(130,521,l,{
"Letterink-NibData" = {
AngleInDegrees = 67.52057;
};
}),
(156,534,o),
(185,541,o),
(212,541,cs,{
"Letterink-NibData" = {
AngleInDegrees = 90;
};
}),
(253,541,o),
(278,524,o),
(307,524,cs,{
"Letterink-NibData" = {
AngleInDegrees = 90;
};
}),
(329,524,o),
(344,529,o),
(348,533,c,{
"Letterink-NibData" = {
AngleInDegrees = 180;
};
}),
(348,220,ls,{
"Letterink-NibData" = {
AngleInDegrees = 180;
};
}),
(348,172,o),
(319,130,o),
(264,130,cs,{
"Letterink-NibData" = {
AngleInDegrees = 270;
};
}),
(206,130,o),
(173,168,o),
(173,237,c,{
"Letterink-NibData" = {
AngleInDegrees = 274.39871;
};
}),
(19,237,l,{
"Letterink-NibData" = {
AngleInDegrees = 181.88819;
};
}),
(8,94,o),
(101,-22,o),
(265,-22,cs,{
"Letterink-NibData" = {
AngleInDegrees = 90;
};
})
);
}
);
width = 565;
}
);
metricRight = "=H*.9";
unicode = 74;
userData = {
position = 333;
width = 53;
};
},
{
glyphname = J.ss01;
kernLeft = Jtext;
kernRight = J;
layers = (
{
anchors = (
{
name = bottom;
pos = (237,-9);
},
{
name = top;
pos = (416,684);
}
);
layerId = "0CAF3BED-C4AC-4024-B3E1-4C69D1EF7EC0";
shapes = (
{
closed = 1;
nodes = (
(375,-9,o),
(459,82,o),
(459,226,cs),
(459,684,l,{
"Letterink-NibData" = {
AngleInDegrees = 270;
};
}),
(377,684,l,{
"Letterink-NibData" = {
AngleInDegrees = 180;
};
}),
(377,229,ls,{
"Letterink-NibData" = {
AngleInDegrees = 180;
};
}),
(377,130,o),
(315,67,o),
(246,67,cs,{
"Letterink-NibData" = {
AngleInDegrees = 270;
};
}),
(148,67,o),
(101,127,o),
(106,212,c,{
"Letterink-NibData" = {
AngleInDegrees = 274.39871;
};
}),
(28,212,l,{
"Letterink-NibData" = {
AngleInDegrees = 181.88819;
};
}),
(24,77,o),
(98,-9,o),
(243,-9,cs,{
"Letterink-NibData" = {
AngleInDegrees = 90;
};
})
);
}
);
width = 535;
},
{
anchors = (
{
name = bottom;
pos = (227,-6);
},
{
name = top;
pos = (420,684);
}
);
layerId = "49C16FD3-6177-408B-A733-AEB3898BB77C";
shapes = (
{
closed = 1;
nodes = (
(359,-6,o),
(438,78,o),
(438,210,cs),
(438,685,l,{
"Letterink-NibData" = {
AngleInDegrees = 268.5679;
};
}),
(398,684,l,{
"Letterink-NibData" = {
AngleInDegrees = 184.66686;
};
}),
(402,213,ls,{
"Letterink-NibData" = {
AngleInDegrees = 180;
};
}),
(403,99,o),
(334,30,o),
(233,30,cs,{
"Letterink-NibData" = {
AngleInDegrees = 270;
};
}),
(142,30,o),
(81,90,o),
(78,190,c,{
"Letterink-NibData" = {
AngleInDegrees = 275.19443;
};
}),
(38,190,l,{
"Letterink-NibData" = {
AngleInDegrees = 178.68309;
};
}),
(40,72,o),
(115,-6,o),
(234,-6,cs,{
"Letterink-NibData" = {
AngleInDegrees = 90;
};
})
);
}
);
width = 528;
},
{
anchors = (
{
name = bottom;
pos = (257,-7);
},
{
name = top;
pos = (395,684);
}
);
layerId = m004;
shapes = (
{
closed = 1;
nodes = (
(391,-22,o),
(481,74,o),
(481,227,cs),
(481,686,l,{
"Letterink-NibData" = {
AngleInDegrees = "270";
};
}),
(316,686,l,{
"Letterink-NibData" = {
AngleInDegrees = "180";
};
}),
(316,230,ls,{
"Letterink-NibData" = {
AngleInDegrees = "180";
};
}),
(316,169,o),
(290,130,o),
(241,130,cs,{
"Letterink-NibData" = {
AngleInDegrees = "270";
};
}),
(185,130,o),
(166,180,o),
(169,224,c,{
"Letterink-NibData" = {
AngleInDegrees = "274.39871";
};
}),
(14,224,l,{
"Letterink-NibData" = {
AngleInDegrees = "181.88819";
};
}),
(2,89,o),
(88,-22,o),
(241,-22,cs,{
"Letterink-NibData" = {
AngleInDegrees = "90";
};
})
);
}
);
width = 533;
}
);
metricLeft = "=J*.75";
metricRight = J;
userData = {
position = 333;
width = 53;
};
},
